<svg xmlns="http://www.w3.org/2000/svg" viewBox="0 0 100 100"><defs><style>.cls-1{fill:none;}</style></defs><g id="Guides"><g id="Attachment"><path d="M19.25,84.74a19.05,19.05,0,0,1-4.34-6.25,18.81,18.81,0,0,1-1-7.49c0-2.61-.29-5.18.72-7.63s2.77-4.17,4.68-6.09c2.45-2.43,1.94-3,4.4-5.38s2.29-2.6,4.75-5,3.39-1.49,5.84-3.92,1.54-3.36,4-5.79S40.94,35,43.4,32.52s2.75-2.13,5.21-4.56,2.62-2.27,5.08-4.71S56.52,21.2,59,18.76s1.71-3.19,4.17-5.63a13.57,13.57,0,0,1,6.3-3.42c2.37-.63,4.62-.14,7,.49s4.58,1.18,6.38,3a13.55,13.55,0,0,1,3.43,6.27c.63,2.37,2,5.1,1.38,7.47s-3.15,3.95-4.95,5.75c-2.46,2.43-2.44,2.45-4.9,4.88S76,40.67,73.55,43.11s-3.7,1.17-6.15,3.6S65.81,50,63.35,52.45s-1.83,3.07-4.29,5.5-2.56,2.33-5,4.76-2.82,2.07-5.28,4.5S46,69.34,43.55,71.78s-2.61,2.29-5.06,4.72C36.93,78.06,35,79.64,33,79.63a9.15,9.15,0,0,1-6.08-2.55A9.52,9.52,0,0,1,24.08,71c0-2,1.57-4.23,3.13-5.79,2.77-2.72,3.47-2,6.25-4.73s2-3.55,4.76-6.27,2.71-2.8,5.5-5.52,2.46-3.06,5.25-5.78c.79-.77,3-.36,3.75.43s.34,2.17-.45,2.95c-2.78,2.71-2.2,3.3-5,6S44.77,55.3,42,58s-3.42,2.07-6.2,4.79S33,65.54,30.23,68.27c-1.54,1.54-2.08,4.46-.52,6s4.64,1.19,6.2-.37c2.46-2.44,2-2.92,4.43-5.35s2.34-2.55,4.8-5,3.16-1.73,5.61-4.16,2.67-2.21,5.13-4.64,1.89-3,4.35-5.44,2.8-2.09,5.26-4.52,3.14-1.74,5.6-4.17,2.31-2.58,4.77-5,1-3.94,3.43-6.38c1.94-2,3.8-3.7,3.79-6.27s-1.6-4.57-3.55-6.51A8.48,8.48,0,0,0,73,13.82c-2.56,0-5.19.08-7.14,2-2.46,2.44-1.86,3-4.32,5.47s-2.9,2-5.36,4.41-2.31,2.58-4.77,5-2.87,2-5.33,4.44S43,37,40.53,39.41s-1.29,3.6-3.75,6-2.5,2.4-5,4.83S28.66,52,26.2,54.43s-2.69,2.2-5.15,4.64C19,61.13,18.81,64.39,18.11,67s-1.53,5.48-.81,8.19S18.89,81,21,83.05s5.24,2.84,7.87,3.54,5.36-.35,8.07-1.08,6.19-.3,8.25-2.36c2.73-2.7,1.77-3.67,4.5-6.37s2-3.42,4.76-6.12,4.23-1.19,7-3.89,2.92-2.51,5.66-5.21,1.6-3.85,4.34-6.55,3.11-2.32,5.85-5,2.6-2.85,5.34-5.55a2.21,2.21,0,0,1,3,0c.78.78,0,1.53-.73,2.31-2.74,2.7-1.94,3.51-4.67,6.21s-2.4,3-5.13,5.74-3.55,1.87-6.29,4.57-2.18,3.25-4.92,5.94-3.53,1.9-6.26,4.6-1.73,3.73-4.46,6.43-2.43,3-5.16,5.72C46,87.87,43,88.54,40.65,89.51A20.24,20.24,0,0,1,33,91.16c-2.61,0-5.67.45-8.11-.57S21.17,86.66,19.25,84.74Z"/></g><rect class="cls-1" x="5" y="5" width="90" height="90"/></g></svg>