<svg xmlns="http://www.w3.org/2000/svg" viewBox="0 0 100 100"><defs><style>.cls-1{fill:none;}</style></defs><g id="Guides"><g id="Bar Graph" data-name="Bar Graph"><path d="M86,12.19c-3,0-3,.57-6,.57s-3-1.7-6-1.7S71,13,68,13c-1.1,0-1,0-1,1.05,0,3.38-.91,3.38-.91,6.75s-.69,3.38-.69,6.75-.23,3.38-.23,6.76-.12,3.38-.12,6.76,3,4,.55,6.38S62.5,48.79,59,48.79s-3.91.84-6.4-1.62-.93-2.85-.93-6.31-.2-3.45-.2-6.91c0-1.11-.37-2.48-1.47-2.48-3,0-3,.66-6,.66s-3-.68-6-.68-3-.1-6-.1c-1.1,0-.9,1.49-.9,2.6,0,3.87-.73,3.87-.73,7.74s-1.44,3.86-1.44,7.73,1.9,3.87,1.9,7.74,2.24,5.35-.54,8-4.29-1-8.29-1-4,0-8,0c-1.1,0-2.26,1.58-2.26,2.68,0,3.18.59,3.18.59,6.36S12,76.45,12,79.63s-.77,3.19-.77,6.37c0,1.1,1.66,2,2.76,2,3.6,0,3.6,1,7.2,1s3.6-2,7.19-2,3.6.09,7.2.09,3.6,1.13,7.2,1.13,3.6.82,7.2.82,3.6-.08,7.2-.08,3.6-.45,7.19-.45,3.6-.67,7.21-.67,3.6,1,7.2,1,3.61-.15,7.21-.15c1.1,0,2.19-1.61,2.19-2.71,0-3.6-.79-3.6-.79-7.2S87,75.2,87,71.61s.46-3.6.46-7.2-.27-3.6-.27-7.2,1.91-3.6,1.91-7.2-1.35-3.6-1.35-7.2-.82-3.6-.82-7.19,1.26-3.6,1.26-7.21-.18-3.6-.18-7.2.54-3.61.54-7.21C88.54,12.9,87.1,12.19,86,12.19ZM30.06,84.06c-2.38,2.56-3.56-1-7.06-1s-4.92,3.76-7.3,1.19c-2.57-2.77.44-4.06.44-7.83s-3.4-5.43-.84-8.2c2.38-2.56,4.2,1.56,7.7,1.56s4.83-3.67,7.21-1.1c2.56,2.77-1.74,4.21-.95,7.9C30.09,80.56,32.63,81.29,30.06,84.06Zm18.61.62c-2.5,2.45-4.17-1.75-7.67-1.75s-5.13,4.16-7.63,1.71,1.12-4.07,1.12-7.5-1-3.43-1-6.86.49-3.43.49-6.87-.75-3.43-.75-6.85,1.26-3.44,1.26-6.87-1.19-3.44-1.19-6.87-2.56-5.23-.11-7.64,4.26.33,7.76.33,4.35-1.86,6.85.59.86,3.28.86,6.71-1.65,3.43-1.65,6.86S48,53.1,48,56.54,47,60,47,63.39s1.46,3.44,1.46,6.87-1.59,3.61-.73,6.93C48.77,81.12,51.12,82.28,48.67,84.68Zm17.71-.35c-2.3,2.64-3.88.58-7.38.58s-4.29,1.37-6.59-1.27c-2.64-3-.74-3.67-.74-7.69s-.69-4-.69-8.06.35-4,.35-8-1.79-4.86.85-7.9c2.29-2.65,3.32.76,6.82.76s4-2.93,6.27-.28c2.64,3,.36,3.39.36,7.41s0,4,0,8.06-.68,4.16.21,8.09C66.8,80.32,69,81.29,66.38,84.33Zm17.29-.63c-2.38,2.57-3.17.47-6.67.47s-3.94,1.76-6.32-.8c-2.56-2.77-.28-3.14-.28-6.92s-.78-3.78-.78-7.55,1.48-3.78,1.48-7.56-.44-3.77-.44-7.55S70.5,50,70.5,46.23s.38-3.77.38-7.55-1.47-3.78-1.47-7.56.45-3.78.45-7.56-2.07-4.46.49-7.23c2.38-2.57,3.15.34,6.65.34s4.27-2.91,6.65-.34c2.56,2.77-.54,3.44-.54,7.22s0,3.78,0,7.55S83,34.88,83,38.66s1,3.77,1,7.55.12,3.78.12,7.56-.41,3.77-.41,7.55-.15,3.78-.15,7.56-.77,3.93-.08,7.65S86.24,80.92,83.67,83.7Z"/></g><rect class="cls-1" x="5" y="5" width="90" height="90"/></g></svg>