<svg xmlns="http://www.w3.org/2000/svg" viewBox="0 0 100 100"><defs><style>.cls-1{fill:none;}</style></defs><g id="Guides"><g id="Bookmark"><path d="M69,15.66c-3.8,0-3.8-1.22-7.6-1.22s-3.8.14-7.6.14-3.8,1.15-7.59,1.15-3.81-.67-7.61-.67-3.8.76-7.6.76c-1.1,0-2.64.08-2.64,1.18,0,3.66.69,3.66.69,7.33s.43,3.66.43,7.33-.62,3.66-.62,7.33.8,3.66.8,7.33S29,50,29,53.65s-.55,3.67-.55,7.33.05,3.67.05,7.34-.36,3.66-.36,7.33S28,79.32,28,83c0,1.76,3.16,2.68,4.43,1.39,2.92-2.93,2.38-3.48,5.31-6.41s3.48-2.38,6.42-5.31S45.85,66,50,66s2.81,3.83,5.75,6.75,3.37,2.49,6.3,5.42,2.51,3.36,5.44,6.29c1,1,4.4.62,4.4-1.51,0-3.66-.74-3.66-.74-7.33s-.4-3.66-.4-7.33-.68-3.66-.68-7.33.16-3.66.16-7.33,1.51-3.66,1.51-7.33.05-3.67.05-7.33-1.2-3.67-1.2-7.34-.5-3.66-.5-7.33S72,20.67,72,17C72,15.9,70.1,15.66,69,15.66Zm-1.74,63.1c-3.38,1.44-2.46-3.59-5.06-6.18s-2.7-2.5-5.29-5.1-3.41-1.79-6-4.38c-.79-.79-1.48-1.26-2.27-.48-2.6,2.6-2.06,3.14-4.66,5.73s-3.63,1.57-6.23,4.16-1.38,7.13-4.76,5.7-.46-3.75-.46-7.44.62-3.7.62-7.39-.8-3.7-.8-7.4.65-3.69.65-7.39.55-3.7.55-7.4,0-3.69,0-7.39.36-3.7.36-7.4-2.59-4-.08-6.7c2.3-2.5,2.63-.73,6-.73s3.39-.78,6.79-.78,3.4.78,6.8.78,3.4-.75,6.81-.75,4.38-1.61,6.68.89c2.5,2.72.59,3.59.59,7.28s-.61,3.7-.61,7.39-.75,3.7-.75,7.4.74,3.69.74,7.39.4,3.7.4,7.4.68,3.69.68,7.39-1.12,3.63-.18,7.2C68.88,74.87,70.66,77.32,67.26,78.76Z"/></g><rect class="cls-1" x="5" y="5" width="90" height="90"/></g></svg>