<svg xmlns="http://www.w3.org/2000/svg" viewBox="0 0 1 1"><defs><style>.cls-1{fill:none;}</style></defs><g id="Guides"><g id="Book"><path d="M43.89,39.79c-.63,2.46-4.41,1.24-3.14,1.61-3.29-.81-2.9-2.31-6.18-3.15s-3.58.32-6.86-.53-3.38-.42-6.66-1.27a2.71,2.71,0,0,1-1.59-3c.28-1.07,1.41-.77,2.48-.49,3.28.85,3.77-1.06,7-.21s3.23,1,6.51,1.9,3.1,1.54,6.37,2.38C42.93,37.34,44.17,38.72,43.89,39.79ZM41.67,51.22c-3.27-.85-3.2-1.12-6.48-2s-2.9-2.31-6.17-3.16-3.58.32-6.86-.53c-1.07-.27-1.69.45-2,1.52s0,1.77,1,2.05c3.28.85,3,2,6.25,2.84s3.77-1,7.05-.21,3.23,1,6.51,1.9c-1.29-.3,1.48,1.73,2.09-.65C43.42,51.94,42.74,51.5,41.67,51.22ZM35.78,62.91C32.33,62,32.41,61.74,29,60.85s-3.06-2.35-6.5-3.25c-1.07-.28-2.41,1.51-2.69,2.58s.45,1.69,1.52,2c3.44.89,3.39,1.08,6.83,2s3.15,2,6.59,2.93c-1.3-.31,1-.2,1.63-2.58C36.62,63.39,36.85,63.18,35.78,62.91ZM90.62,19c0,3.75-.27,3.75-.27,7.49S88.86,30.24,88.86,34,90,37.73,90,41.48s.42,3.74.42,7.49-.18,3.75-.18,7.49-1.17,3.75-1.17,7.5S91,67.71,91,71.46A4.07,4.07,0,0,1,88.7,74.2c-3.8,1-4,.27-7.77,1.22s-3.78,1-7.58,2-4.07-.1-7.87.85-3.85.79-7.65,1.74-3.76,1.11-7.57,2.06a.68.68,0,0,1-.56,0c-3.79-1-3.86-.71-7.65-1.66s-3.86-.73-7.66-1.69S30.75,77.16,27,76.2s-4.3,1.06-8.1.1-3.63-1.65-7.43-2.61c-.88-.22-.92-1.32-.92-2.23,0-3.74.31-3.74.31-7.49S10,60.22,10,56.48s.24-3.75.24-7.49.57-3.75.57-7.5V34c0-3.75-1.53-3.75-1.53-7.5s1.5-3.75,1.5-7.5c0-1.3.45-2.42,1.73-2.1,3.75.94,3.46,2.07,7.21,3s4.22-.93,8,0,3.61,1.49,7.35,2.43,3.84.6,7.59,1.54,3.46,3.24,7.32,3.24,4-.78,7.71-1.73,3.43-2.19,7.19-3.13l7.5-1.89c3.75-.94,3.59-1.59,7.34-2.53s4.25,1,8,.08C89,17.61,90.62,17.7,90.62,19ZM47.49,30.48c-2.17-2.75-3-.9-6.38-1.75s-3-2.29-6.44-3.14S31,25.88,27.59,25s-3.5-.44-6.9-1.3S17,19.67,14.16,21.8,13.11,25,13.11,28.48,15,31.93,15,35.38s-.2,3.46-.2,6.91-.71,3.45-.71,6.9.08,3.45.08,6.9S13.11,59.55,13.11,63s-2.09,4.85.05,7.57,4,1.07,7.41,1.92l6.79,1.7c3.4.85,3.46.61,6.86,1.46s3.46.63,6.86,1.48,4.75,4.25,7.54,2.12S47,75,47,71.52s.72-3.45.72-6.9.82-3.45.82-6.9.3-3.45.3-6.9S48,47.36,48,43.91s-.28-3.45.25-6.87S49.63,33.19,47.49,30.48Zm38.13-8.4c-2.78-2.13-2.93.69-6.33,1.54s-3.76-.59-7.16.26-3.12,2-6.52,2.85S62.31,28,58.9,28.84s-4.53-1.33-6.7,1.42S51.09,33.54,51.09,37,53,40.44,53,43.89s-.2,3.45-.2,6.91-.7,3.45-.7,6.9.07,3.45.07,6.9-1.09,3.46-1.09,6.91-2.5,5.65.25,7.75,4.26-.81,7.66-1.67l6.8-1.69c3.4-.85,3.34-1.1,6.74-2S75.89,72.87,79.3,72s5.34,1.29,7.52-1.46S85,66.46,85,63s.72-3.45.72-6.9.82-3.45.82-6.9.3-3.45.3-6.9S86,38.85,86,35.4s-.47-3.47.24-6.85S88.37,24.18,85.62,22.08Zm-6,11.63c-.28-1.07-.68-1.54-1.75-1.26-3.27.84-3.65-.59-6.92.25s-3,2-6.26,2.84-3.17,1.25-6.45,2.1c-1.07.28-1.57.85-1.29,1.92.63,2.47,3.65,2,2.39,2.36,3.28-.81,2.8-2.7,6.08-3.55s3.32-.65,6.6-1.49,3.45-.17,6.73-1C79.83,35.59,79.91,34.78,79.63,33.71Zm0,13.41c-.28-1.07-.68-1.53-1.75-1.26-3.27.84-3.65-.6-6.92.25s-3,2-6.26,2.84-3.17,1.25-6.45,2.1c-1.07.28-1.57.85-1.29,1.92.61,2.38,3.68,2.07,2.4,2.37,3.27-.86,2.79-2.71,6.06-3.55s3.33-.65,6.61-1.5,3.45-.16,6.73-1C79.83,49,79.91,48.19,79.63,47.12ZM73.72,61.85c-.27-1.07-.66-1.54-1.73-1.26-3.45.88-3.82-.55-7.26.34s-3.14,2-6.59,2.92c-1.06.27-1.28,1.22-1,2.28.63,2.47,3.19.91,1.93,1.28,3.44-.86,3.73.24,7.17-.64s3-2.75,6.4-3.64C73.71,62.85,74,62.92,73.72,61.85Z"/></g><rect class="cls-1" x="5" y="5" width="90" height="90"/></g></svg>