<svg xmlns="http://www.w3.org/2000/svg" viewBox="0 0 100 100"><defs><style>.cls-1{fill:none;}</style></defs><g id="Guides"><g id="Briefcase"><path d="M86,27c-3.25,0-3.25,1.32-6.49,1.32s-3.25-.89-6.5-.89-3.25.25-6.51.25-3.77,2.2-6.16,0c-2.2-2-1.16-2.63-1.16-5.63,0-1.1-.08-1.16-1.18-1.16-4,0-4,.12-8,.12s-4-.74-8-.74c-1.1,0-.92.68-.92,1.78,0,3,1.61,4.49-.59,6.53-2.39,2.2-3.74-1.14-7-1.14s-3.25-.16-6.5-.16-3.25,1.12-6.51,1.12-3.25-.07-6.5-.07c-1.1,0-1,.62-1,1.72,0,3.43-.85,3.43-.85,6.85s.88,3.43.88,6.86-2,3.43-2,6.85,1,3.43,1,6.86-.54,3.43-.54,6.85.45,3.44.45,6.87,1,3.43,1,6.86c0,1.1,0,2.66,1.08,2.66,3.6,0,3.6-1.74,7.2-1.74s3.6,1.74,7.19,1.74,3.6-.81,7.2-.81,3.6,1.29,7.2,1.29S46.39,81,50,81s3.6-1.78,7.2-1.78,3.6,1.89,7.19,1.89S68,79.8,71.59,79.8h7.2C82.4,79.8,82.4,79,86,79c1.1,0,1.5.09,1.5-1,0-3.43,1.4-3.43,1.4-6.85s-1.25-3.43-1.25-6.86-.11-3.43-.11-6.85.14-3.43.14-6.86-.61-3.43-.61-6.85,1.76-3.44,1.76-6.87-.42-3.43-.42-6.86C88.41,28.9,87.1,27,86,27ZM44.58,24.88c2.5-1.67,2.42-1.15,5.42-1.15s3.16-.88,5.66.79c1.66,1.11,1.8,2.06.13,3.17-2.49,1.66-2.79-.2-5.79-.2s-3.34,2.12-6.22,1.3C42.09,28.31,42.92,26,44.58,24.88ZM83.3,75.21c-2.83,2.5-3.07,1.06-6.85,1.06s-3.78-.89-7.55-.89-3.78.25-7.56.25-3.77-.14-7.55-.14S50,76.82,46.23,76.82s-3.77,0-7.55,0S34.9,77,31.12,77s-3.78-.74-7.56-.74-5.44,3.09-8.28.59c-2.5-2.2,0-4.14,0-7.47s1.32-3.34,1.32-6.67-2.49-3.81-.08-6.11,3-.91,6.46-.91,3.5.07,7,.07,3.5-.73,7-.73,4.43-1.38,7.1.89C46.37,57.8,45,59,45,61.94c0,1.1-.14,3,1,3,4,0,4-1,8-1,1.1,0,2.53-.89,2.53-2,0-3-2.74-4-.48-5.88,2.67-2.26,3.45-1,6.94-1s3.5,1.58,7,1.58,3.5-1.74,7-1.74,4-.86,6.55,1.55.6,2.86.6,6.19-1.84,3.58-1.27,6.87C83.42,72.66,85.8,73,83.3,75.21ZM48.88,59.35c-1.67-2.49-1.15-2.41-1.15-5.41s-.88-3.16.79-5.66c1.11-1.66,2.06-1.8,3.17-.14,1.66,2.5-.2,2.8-.2,5.8s2.12,3.34,1.3,6.22C52.31,61.85,50,61,48.88,59.35Zm34.39-8.11c-2.53,2.41-2.77,1-6.26,1s-3.5-.89-7-.89-3.5.25-7,.25-4,2.27-6.67,0c-2.28-2-1.15-2.62-1.15-5.62,0-1.1-.08-1.17-1.18-1.17-4,0-4,.12-8,.12-1.1,0-1.78-.05-1.78,1,0,3,2.76,4.87.49,6.82-2.66,2.28-4.21-.11-7.7-.11s-3.5-1.32-7-1.32-3.5-.16-7-.16-4.7,3.44-7.24,1,0-3.58,0-6.91S15,42,15,38.67s-1.59-4.58.9-6.79c2.83-2.5,3.88-.92,7.66-.92s3.78,2,7.55,2,3.78-1,7.56-1,3.77.54,7.55.54,3.78-.45,7.56-.45,3.77-1,7.55-1,3.78,1.58,7.56,1.58,3.78-1.74,7.56-1.74,4.29-.93,7.13,1.57c2.5,2.2.58,2.84.58,6.17s-1.81,3.57-1.27,6.86C83.39,48.65,85.69,48.94,83.27,51.24Z"/></g><rect class="cls-1" x="5" y="5" width="90" height="90"/></g></svg>