<svg xmlns="http://www.w3.org/2000/svg" viewBox="0 0 1 1"><defs><style>.cls-1{fill:none;}</style></defs><g id="Guides"><g id="Browser"><path d="M88,20.06c-3.45,0-3.45.08-6.91.08s-3.45-.75-6.91-.75-3.45,1.19-6.9,1.19-3.45-1-6.91-1-3.45.55-6.9.55-3.46.73-6.91.73-3.46-1-6.91-1-3.45,1.3-6.91,1.3-3.45-1.61-6.91-1.61-3.46,1.26-6.91,1.26S15.46,19.37,12,19.37c-1.1,0-1.57,1.53-1.57,2.63,0,3.5-1,3.5-1,7s1.35,3.5,1.35,7S9,39.49,9,43s1.95,3.5,1.95,7-.47,3.5-.47,7,.61,3.5.61,7-1.78,3.5-1.78,7,0,3.51,0,7c0,1.1,1.64,3.1,2.74,3.1,3.45,0,3.45.07,6.91.07s3.45-1.49,6.91-1.49,3.45.33,6.9.33,3.45.2,6.91.2,3.45-.29,6.9-.29,3.46.58,6.91.58,3.46.56,6.91.56,3.45,0,6.91,0,3.45-1.67,6.91-1.67,3.46,1.29,6.91,1.29,3.46-1.9,6.92-1.9c1.1,0,1.88.28,1.88-.82,0-3.5-.58-3.5-.58-7S91,67.5,91,64s.13-3.5.13-7-1.34-3.5-1.34-7,1.08-3.5,1.08-7-1-3.5-1-7S91,32.51,91,29s-.39-3.51-.39-7C90.57,20.9,89.1,20.06,88,20.06Zm-1.48,56.5c-2.64,2.44-4.12-.34-7.72-.34s-3.6-.49-7.19-.49h-7.2c-3.6,0-3.6.2-7.2.2s-3.6-.52-7.2-.52-3.6-.08-7.2-.08-3.6,1-7.19,1-3.6-.09-7.21-.09-3.6-.08-7.2-.08-4.75,2.47-7.39,0c-2.45-2.27-.17-3.53-.17-6.86s.67-3.34.67-6.67.84-3.33.84-6.66-1.4-3.33-1.4-6.67.36-3.33.36-6.67S11.52,38.24,14,36c2.64-2.45,3.63-.51,7.23-.51s3.6-.29,7.19-.29,3.6-.35,7.2-.35,3.6,1.53,7.2,1.53,3.6-.57,7.2-.57,3.6-.85,7.2-.85,3.6,1.66,7.19,1.66,3.6-.51,7.21-.51,3.6-.7,7.2-.7,4.93-2.23,7.58.22c2.45,2.26-1.31,3.73-1.31,7.06s.32,3.34.32,6.67-.16,3.33-.16,6.66,1.25,3.33,1.25,6.67-.58,3.25.24,6.49C87.67,72.91,89,74.29,86.52,76.56Zm-.68-44.7c-2.41,2.67-3.44.31-7,.31s-3.6.71-7.19.71-3.6-1.3-7.2-1.3-3.6-.1-7.2-.1-3.6.92-7.2.92S46.41,31,42.81,31s-3.6.44-7.19.44-3.6.23-7.21.23-3.6.11-7.2.11-4.73,2.84-7.14.17c-2.68-3-2-4.33.63-7.31,2.41-2.67,2.9-.88,6.5-.88s3.6,1.1,7.19,1.1,3.6.31,7.2.31,3.6-.54,7.2-.54S46.39,24,50,24s3.6.7,7.2.7,3.6-1,7.19-1,3.6-.06,7.21-.06,3.6-.1,7.2-.1,4.18-1.55,7.4.07C89.91,25.49,88.52,28.88,85.84,31.86ZM29.78,28A2,2,0,0,1,28,30.17c-5,0-5,.71-10,.71-1.1,0-1.58-1.78-1.58-2.88s.48-1.48,1.58-1.48c5,0,5-.92,10-.92C29.1,25.6,29.78,26.9,29.78,28Z"/></g><rect class="cls-1" x="5" y="5" width="90" height="90"/></g></svg>