<svg xmlns="http://www.w3.org/2000/svg" viewBox="0 0 100 100"><defs><style>.cls-1{fill:none;}</style></defs><g id="Guides"><g id="Calendar"><path d="M82,22.82c-4,0-4.17,1.46-7.74-.33C72.47,21.59,73,21,73,19c0-1.1.06-1.39-1-1.39s-1.86.29-1.86,1.39c0,2,1.32,2.55-.39,3.58-2.86,1.71-3.08-.24-6.41-.24s-3.34.36-6.67.36-3.33.94-6.66.94-3.33-1.57-6.67-1.57S40,23.6,36.67,23.6s-4.23,1.82-7.09.1c-1.72-1,.41-2.7.41-4.7a2.21,2.21,0,0,0-2-2.23c-1.1,0-1.48,1.13-1.48,2.23,0,2,1.7,4-.09,4.86-3.58,1.79-4.43-.34-8.43-.34a7.08,7.08,0,0,0-5.34,2.14c-1.45,1.44-3,3.14-3,5.34,0,3.66,0,3.66,0,7.33s.09,3.67.09,7.33,1.19,3.67,1.19,7.33-.53,3.67-.53,7.34S9.49,64,9.49,67.66s.23,3.67.23,7.34c0,2.2.53,4.85,2,6.3A10,10,0,0,0,18,84.11c3.55,0,3.55-1.67,7.11-1.67s3.55,1,7.1,1,3.56-.94,7.11-.94,3.56.89,7.11.89,3.56.31,7.11.31,3.56-1.36,7.11-1.36,3.56,1.21,7.11,1.21,3.56-.34,7.12-.34S78.44,82,82,82c2.21,0,4-.1,5.4-1.55s1.67-3.2,1.67-5.4c0-3.66,1.28-3.66,1.28-7.33s.19-3.67.19-7.33S89.22,56.67,89.22,53,91,49.34,91,45.67,88.81,42,88.81,38.34s2-3.67,2-7.34a9.86,9.86,0,0,0-2.5-6.33C86.88,23.23,84.21,22.82,82,22.82ZM85.82,75c0,2.21-1.61,3.43-3.82,3.43-3.55,0-3.55,1.53-7.11,1.53s-3.55-.35-7.1-.35-3.56-.47-7.11-.47-3.56-.63-7.11-.63-3.56-.17-7.11-.17-3.56.36-7.11.36-3.56.94-7.11.94-3.56-1.57-7.12-1.57S21.56,79.6,18,79.6c-2.21,0-4.82-2.39-4.82-4.6,0-3.75.81-3.75.81-7.5s.24-3.75.24-7.5-.75-3.75-.75-7.5S10.71,47,13.3,44.33s4.3.15,7.9.15,3.6.08,7.19.08,3.6.75,7.2.75,3.6,0,7.2,0,3.6-.09,7.2-.09,3.6-1.19,7.2-1.19,3.6.53,7.19.53,3.6.91,7.21.91,3.6-.23,7.2-.23,4.06-2.25,6.55.35-.45,3.12-.45,6.87,1.67,3.75,1.67,7.5-.94,3.74-1,7.49S85.82,71.25,85.82,75Zm0-34.1c-2.11,2.92-3.46-.47-7.06-.47S75.2,42,71.61,42s-3.6-.35-7.2-.35-3.6-.47-7.2-.47-3.6-.63-7.2-.63-3.6-.17-7.2-.17-3.6.36-7.19.36-3.6.94-7.21.94-3.6-1.57-7.2-1.57-5.59,4.2-7.7,1.28C10.59,37.29,13.18,36,13.18,31c0-2.21,2.61-4,4.82-4,4,0,4.66-2.2,7.86.2,2.4,1.8.66,2.81.66,5.81,0,1.1.38,1,1.48,1s1.48.07,1.48-1c0-3-2-4.32.23-6.33,2.47-2.22,3.62.64,6.95.64s3.34,0,6.67,0,3.33-.09,6.66-.09,3.33-1.19,6.67-1.19,3.33.53,6.67.53,3.85-1.45,6.33.78c2.23,2,.06,2.62.06,5.62,0,1.1,1.18,2.91,2.28,2.91S75.11,34.1,75.11,33c0-3-3.85-4.65-1.45-6.45,3.2-2.4,4.34.89,8.34.89,2.21,0,4.47,1.19,4.47,3.4C88.16,35.73,88.78,36.84,85.86,40.9Z"/></g><rect class="cls-1" x="5" y="5" width="90" height="90"/></g></svg>