<svg xmlns="http://www.w3.org/2000/svg" viewBox="0 0 1 1"><defs><style>.cls-1{fill:none;}</style></defs><g id="Guides"><g id="Camera"><path d="M50,34.33c-2.58,0-5.14-.13-7.38.8a19.41,19.41,0,0,0-6,4.4c-1.75,1.75-4.25,3.38-5.21,5.7s.29,5.14.29,7.71-.42,5.14.51,7.38,1.93,5,3.68,6.77,4.88,1.64,7.2,2.61,4.36,3.12,6.94,3.12a20.41,20.41,0,0,0,7.53-1.7c2.32-1,4.13-3,5.88-4.76s2.1-4.27,3.06-6.59,1.91-4.25,1.91-6.83a18.21,18.21,0,0,0-1.08-7.16c-1-2.32-1.5-5.14-3.25-6.89s-4.49-2.45-6.81-3.42A18.61,18.61,0,0,0,50,34.33Zm0,34c-2.73,0-5.15-1.36-7.36-2.63A15,15,0,0,1,37,60.46c-1.28-2.21-.83-4.79-.83-7.52s-1-5.63.28-7.83,3.94-3.59,6.21-4.91S47.27,39,50,39s5.73-1,7.93.25,3,4.41,4.3,6.68a13.41,13.41,0,0,1,2.1,7.06c0,2.73,0,5.31-1.32,7.51s-2.65,5.18-4.92,6.49S52.73,68.33,50,68.33Zm33-38c-3.75,0-3.75-.63-7.51-.62S71.42,31.51,68,30c-2.57-1.1-.64-3-2.21-5.28s-3-1.3-4.63-3.59c-.38-.49-.43-1.44-1-1.44-3.36,0-3.36-.7-6.72-.7S50,20.85,46.64,20.85s-3.37-1.71-6.73-1.71a3.81,3.81,0,0,0-2.13,1.27c-1.59,2.29-1,2.69-2.59,5S35,30,32.47,31.06c-3.45,1.49-4.21-.45-8-.45s-3.76-.33-7.51-.33c-2.2,0-4.79,0-6.24,1.38s-1.67,4-1.67,6.22C9.09,41.29,8,41.29,8,44.7v6.82c0,3.41,1.23,3.41,1.23,6.82s-.69,3.42-.69,6.83S8.2,68.59,8.2,72A9.21,9.21,0,0,0,11,78a8.75,8.75,0,0,0,6,2.32c3.66,0,3.66.67,7.33.67s3.66-2.06,7.33-2.06,3.66,1.56,7.33,1.56h7.33c3.67,0,3.67-.62,7.33-.62s3.67-.25,7.34-.25,3.67.8,7.33.8,3.67-.73,7.34-.73,3.67-.9,7.34-.9a5.93,5.93,0,0,0,4.89-1.89c1.45-1.45,2.78-2.69,2.78-4.89,0-3.5.87-3.5.87-7s-1.69-3.49-1.69-7V51c0-3.5.37-3.5.37-7s0-3.5,0-7c0-2.24,0-4.26-1.46-5.48S85.17,30.32,83,30.32ZM87.38,72c0,2.21-2.17,3.73-4.38,3.73-3.66,0-3.66.31-7.33.31S72,74.87,68.34,74.87,64.68,76.66,61,76.66s-3.67-.94-7.33-.94S50,75,46.35,75,42.68,76.85,39,76.85s-3.67-1.71-7.33-1.71-3.67.2-7.34.2S20.67,76,17,76c-2.21,0-5.15-1.82-5.15-4,0-3.41.54-3.41.54-6.82s.33-3.41.33-6.82,1.14-3.41,1.14-6.83-.95-3.41-.95-6.83,1.14-3.41,1.14-6.83c0-2.21.74-2.88,2.95-2.88,4,0,4-1.22,8-1.21s4,.71,8,.73a3.63,3.63,0,0,0,2.25-.83c1.59-2.3,1.3-2.51,2.87-4.81s.42-3.35,2.92-4.6c2.71-1.35,2.89.7,5.92.7s3-2.06,6.07-2.06,3.15.16,5.86,1.51c2.5,1.25,1.39,2.15,3,4.46s2.07,2,3.66,4.26c.38.49.86.47,1.48.47,4,0,4,.78,8,.77s4-.75,8-.77c2.21,0,5.22,1.18,5.22,3.39,0,3.5-.14,3.5-.14,7s-.75,3.49-.75,7-.87,3.5-.87,7,1.56,3.46,1.69,7S87.38,68.5,87.38,72Z"/></g><rect class="cls-1" x="5" y="5" width="90" height="90"/></g></svg>