<svg xmlns="http://www.w3.org/2000/svg" viewBox="0 0 1 1"><defs><style>.cls-1{fill:none;}</style></defs><g id="Guides"><g id="Cancel"><path d="M50,11c-2.54,0-5,1.27-7.41,1.75a37.62,37.62,0,0,0-7.22,1.93c-2.32,1-4,3-6,4.38s-5.25,1.51-7,3.27-2,4.83-3.41,6.91-4,3.5-5,5.82-.3,5.14-.79,7.61A37.69,37.69,0,0,0,12.23,50c0,2.54-.29,5.08.19,7.48a36.84,36.84,0,0,0,2.36,7.11c1,2.31,2.81,4.09,4.18,6.15a37.33,37.33,0,0,0,4.5,5.8c1.76,1.76,3.9,2.86,6,4.25s3.44,4,5.76,5a38.59,38.59,0,0,0,7.28,2.11,39.72,39.72,0,0,0,7.53.7c2.54,0,5-.9,7.4-1.37a36.77,36.77,0,0,0,7-2.36c2.32-1,4.91-1.45,7-2.82s3.45-3.67,5.2-5.43a37,37,0,0,0,4.33-5.93c1.37-2.06,3.66-3.62,4.62-5.94a38.85,38.85,0,0,0,2-7.26C88,55.06,89,52.54,89,50s-2.15-4.83-2.62-7.23a36,36,0,0,0-1.75-7.09,37.72,37.72,0,0,0-3-6.74c-1.39-2.08-2.37-4.59-4.13-6.34a39.1,39.1,0,0,0-5.78-5c-2.05-1.38-5.16-.84-7.47-1.8a36.29,36.29,0,0,0-6.89-2.33C54.86,13,52.54,11,50,11Zm0,72c-2.6,0-5.14.73-7.57.18a33.54,33.54,0,0,1-7.08-2.75c-2.31-1.11-5.06-1.65-7-3.23s-2.41-4.73-4-6.72S19.92,67.33,18.8,65s-.37-5.17-.94-7.68S15.57,52.6,15.57,50a34.32,34.32,0,0,1,1.06-7.62c.57-2.51,1.92-4.73,3-7a33,33,0,0,1,3.87-6.51c1.58-2,2.88-4.4,4.87-6A34.2,34.2,0,0,1,35.05,19a34.67,34.67,0,0,1,7.17-3c2.43-.56,5.18.8,7.78.8a33,33,0,0,1,7.43.73,32.66,32.66,0,0,1,7.07,2.45c2.31,1.11,4.76,1.9,6.74,3.48a34.29,34.29,0,0,1,5.56,5.27c1.58,2,2.27,4.54,3.38,6.84s2.78,4.37,3.35,6.88A34.67,34.67,0,0,1,84.82,50c0,2.6-1.56,5-2.11,7.46a33.89,33.89,0,0,1-2.29,7.19c-1.12,2.3-3,4-4.59,5.95s-2,5.14-4,6.73A35.82,35.82,0,0,1,65,81.15a34.45,34.45,0,0,1-7.41,2.09C55.15,83.79,52.6,83,50,83Zm3.83-33c0-4.45,2.13-3.16,5.27-6.31s3.32-3,6.47-6.12c.79-.78.06-1.63-.73-2.41S62.57,33,61.79,33.79c-3.15,3.15-1.9,4.39-5,7.53S54.45,46.14,50,46.14s-3.45-1.81-6.6-5-3-3.28-6.15-6.43c-.78-.79-2.1-1.17-2.88-.38a2.36,2.36,0,0,0,.14,3.12c3.15,3.15,3.71,2.59,6.85,5.73s6.28,2.33,6.28,6.78-2.92,3.84-6.07,7-4.33,2-7.48,5.1a3.26,3.26,0,0,0,.08,3.75,3.11,3.11,0,0,0,3.64,0c3.15-3.15,2.69-3.6,5.84-6.75s1.9-6.52,6.35-6.52,2.79,3.79,5.94,6.93,3.78,2.52,6.93,5.66c.78.79,1.17.48,2-.3s1.69-1.78.9-2.56c-3.14-3.15-2.83-3.61-6.47-6.17S53.83,54.45,53.83,50Z"/></g><rect class="cls-1" x="5" y="5" width="90" height="90"/></g></svg>