<svg xmlns="http://www.w3.org/2000/svg" viewBox="0 0 1 1"><defs><style>.cls-1{fill:none;}</style></defs><g id="Guides"><g id="Clock"><path d="M50,11.94c-2.54,0-4.8,1.42-7.2,1.9s-5.48-.87-7.75.07-4,3.33-6,4.71S25.49,22,23.74,23.74s-4.58,2.66-6,4.73-.92,5.09-1.87,7.41a34.79,34.79,0,0,0-2.54,6.83c-.48,2.4-1.78,4.75-1.78,7.29s.91,5,1.38,7.37a37.24,37.24,0,0,0,2.27,7c1,2.31,1.58,4.79,3,6.85s3.8,3.24,5.56,5,2.83,4.31,4.9,5.7a40,40,0,0,0,6.46,4c2.28,1,5.06.54,7.53,1S47.46,87,50,87s5,.39,7.35-.09a35.78,35.78,0,0,0,7-2.24c2.31-.95,4.12-2.56,6.18-3.94a35.69,35.69,0,0,0,5.77-4.44,36.7,36.7,0,0,0,4.38-5.81c1.37-2.06,3.83-3.5,4.79-5.82a38.74,38.74,0,0,0,1.79-7.28A38.63,38.63,0,0,0,87.78,50a37,37,0,0,0-.91-7.34,38,38,0,0,0-1.72-7.22c-1-2.31-1.39-5-2.77-7.08s-3.73-3.5-5.48-5.26-4.06-2.79-6.14-4.18a36.53,36.53,0,0,0-6.37-3.66c-2.28-.94-4.4-2.56-6.87-3A39.84,39.84,0,0,0,50,11.94Zm2,72c-.8-.62-1.18-1-1.18-2s.24-3.05-.86-3.05-1.73,2-1.73,3.05,1,2.07.26,2.69c-2.39-.14-5.05-1.93-7.28-2.54s-5.2.22-7.27-.85a36,36,0,0,1-5.81-4.33c-1.82-1.48-2.76-3.92-4.25-5.75s-3.31-3.42-4.39-5.52a33.58,33.58,0,0,1-2.7-6.58c-.61-2.23-.44-4.51-.58-6.9.62-.79.82-1,1.82-1s2.4,0,2.4-1.11-1.3-2.86-2.4-2.86S16.4,49,15.79,48.21c.13-2.39-.13-5.18.48-7.41s2.12-4.39,3.19-6.47a34.78,34.78,0,0,1,3.81-6c1.48-1.82,2.86-4,4.69-5.47a36.49,36.49,0,0,1,6.17-3.77,36.64,36.64,0,0,1,6.63-2.91c2.24-.61,4.6.36,7,.22.79.62.24.68.24,1.69a1.84,1.84,0,0,0,2,1.78c1.1,0,1.59-.68,1.59-1.78s-.36-1.36.43-2c2.39.14,4.45,1.4,6.68,2s4.73.62,6.8,1.69,4.49,1.85,6.31,3.33a35.57,35.57,0,0,1,4.9,5.21c1.48,1.82,2,4.29,3.07,6.39a32.9,32.9,0,0,1,2.52,6.47,29.69,29.69,0,0,1,1.24,6.49c-.62.8-.61,1.21-1.61,1.21s-1.66,0-1.66,1.11.56,1.87,1.66,1.87,2.11-1.22,2.72-.43a41.07,41.07,0,0,1-1,7.75A35.59,35.59,0,0,1,81,65.9c-1.08,2.1-3.46,3.43-4.94,5.25s-3.47,3-5.3,4.45S68,79.94,65.91,81s-4.59,1.43-6.88,2A34.18,34.18,0,0,1,52,83.89ZM62,62c-.78.78-2.8,1.64-3.59.84-2.65-2.65-1.11-4.2-3.76-6.85s-3.58-1.72-6.23-4.37c.1.09-1.26-.64-1.26-1.6,0-4,1.61-4,1.61-8s-1.86-4-1.86-8,.45-4,.45-8c0-1.1,1.56-1.59,2.66-1.59s2.25.49,2.25,1.59c0,3.86.13,3.86.13,7.72s-.62,3.87-.62,7.73-.35,3.81,1.07,7.4c1.29,3.3,1.39,3.12,3.89,5.62s2.19,2.83,4.69,5.33C62.19,60.58,62.76,61.2,62,62Z"/></g><rect class="cls-1" x="5" y="5" width="90" height="90"/></g></svg>