<svg xmlns="http://www.w3.org/2000/svg" viewBox="0 0 100 100"><defs><style>.cls-1{fill:none;}</style></defs><g id="Guides"><g id="Comment Lines" data-name="Comment Lines"><path d="M74.7,43A3.18,3.18,0,0,1,72,45.49c-3.66,0-3.66.51-7.33.51s-3.67.09-7.33.09-3.67-2-7.33-2H42.67C39,44.09,39,45,35.34,45s-3.67.83-7.34.83c-1.1,0-1.63-1.75-1.63-2.85s.53-2.6,1.63-2.6c3.66,0,3.66,0,7.33,0s3.67,1.69,7.33,1.69,3.67-1.93,7.34-1.93,3.66.71,7.33.71,3.67-.57,7.33-.57S68.33,41,72,41C73.1,41,74.7,41.9,74.7,43ZM59.78,51.71c-4,0-4-.2-7.94-.2s-4,.51-8,.51-4,.09-7.94.09-4-2-8-2A3.91,3.91,0,0,0,25.09,53c0,1.1,1.81,2,2.91,2,4,0,4-.83,7.94-.83s4,1.22,8,1.22,4-1,7.94-1,4,0,8,0c1.1,0,3.12-.32,3.12-1.42S60.88,51.71,59.78,51.71ZM72,31.71c-3.66,0-3.66-.21-7.33-.21S61,32,57.34,32s-3.67.09-7.33.09-3.67-2-7.34-2H35.34c-3.67,0-3.67.93-7.34.93-1.1,0-1.16.89-1.16,2s.06,2.37,1.16,2.37c3.66,0,3.66-1,7.33-1s3.67,0,7.33,0,3.67,1.7,7.34,1.7,3.66-1.93,7.33-1.93,3.67.71,7.33.71,3.67-.58,7.34-.58c1.1,0,2-.22,2-1.32S73.1,31.71,72,31.71ZM88.68,19c0,3.43-.2,3.43-.2,6.85s.5,3.43.5,6.86.09,3.43.09,6.86S87.12,43,87.12,46.42s0,3.43,0,6.86.91,3.43.91,6.86.81,3.43.81,6.86c0,1.1-1.73,1.64-2.83,1.64-3.9,0-3.9,1-7.8,1s-3.9,0-7.8,0-3.9-1.66-7.8-1.66-3.9,1.88-7.81,1.88-4.1-2-7.77-.69c-3,1.08-1.83,2.61-4.09,4.84s-2.74,1.76-5,4-2.85,1.65-5.11,3.89c-.56.56-2.69,2-2.69-.83,0-3-.72-3-.72-6s3.14-4.4.74-6.2c-3.2-2.4-4.15.56-8.15.56s-4-.81-8-.81c-1.1,0-2.14-.45-2.14-1.55,0-3.42.33-3.42.33-6.85s-.33-3.43-.33-6.86.82-3.42.82-6.85S11.37,43,11.37,39.59s1.36-3.43,1.36-6.86-1.4-3.43-1.4-6.87,1-3.43,1-6.86c0-1.1.53-1.75,1.63-1.75,3.6,0,3.6.09,7.2.09s3.6-.7,7.19-.7,3.6-.23,7.2-.23,3.6.13,7.2.13,3.6.78,7.2.78h7.2c3.6,0,3.6-1.34,7.19-1.34s3.6,1.92,7.21,1.92,3.6-1.62,7.2-1.62,3.61.6,7.21.6C87.1,16.87,88.68,17.9,88.68,19Zm-5.15,2.49c-2.71-2.63-3.3,0-7.08,0s-3.78.5-7.55.5-3.78.09-7.56.09-3.77-1.95-7.55-1.95H46.23c-3.77,0-3.77.91-7.55.91s-3.78.81-7.56.81-3.78-1.2-7.56-1.2-4.44-1.84-7.15.79.15,3.25.15,6.91S14.91,32,14.91,35.66s1.88,3.67,1.88,7.34-.69,3.66-.69,7.33.56,3.67.56,7.34S13.29,62.53,16,65c3,2.71,4,.83,8,.83s4-.7,8-.7c1.1,0,2.59.76,2.59,1.86,0,4.61-4.47,6.72-.74,9.42,3.06,2.22,2.59-3.12,5.28-5.77s3.26-2.08,5.95-4.74c.38-.37.56-1,1.09-1,3.78,0,3.78.33,7.56.33s3.79-.34,7.57-.34,3.78.82,7.56.82,3.79-1.3,7.57-1.3,5.36,3.78,8.08,1.15-1.18-4.19-1.18-7.86,1-3.66,1-7.33-.12-3.67-.12-7.33.09-3.67.09-7.34-1.36-3.79-.69-7.4S86.16,24,83.53,21.49Z"/></g><rect class="cls-1" x="5" y="5" width="90" height="90"/></g></svg>