<svg xmlns="http://www.w3.org/2000/svg" viewBox="0 0 100 100"><defs><style>.cls-1{fill:none;}</style></defs><g id="Guides"><g id="Comment"><path d="M86,16.45c-3.6,0-3.6,1.42-7.2,1.42s-3.6.1-7.19.1-3.6-.48-7.2-.48-3.6.48-7.2.48-3.6.14-7.2.14-3.6-2.1-7.2-2.1-3.6.41-7.19.41-3.6,1.69-7.21,1.69-3.6-.26-7.2-.26S17.6,16.42,14,16.42c-1.1,0-1.25,1.48-1.25,2.58,0,3.43-1.64,3.43-1.64,6.85s1.21,3.43,1.21,6.86S11,36.14,11,39.56s2.14,3.43,2.14,6.86-.39,3.42-.39,6.85-1.83,3.43-1.83,6.87,1.71,3.43,1.71,6.86c0,1.1.32,2.72,1.42,2.72,4,0,4-.22,8-.22s4.89-3,8.09-.62c2.4,1.8-.78,3.12-.78,6.12s1.55,3,1.55,6c0,1.8,1.62,3,2.88,1.76,2.27-2.23,2.47-2,4.73-4.27s1.87-2.64,4.13-4.88,1.64-2.85,4.63-3.94c3.67-1.33,3.66-1.1,7.56-1.1s3.9-.37,7.8-.37,3.9,1,7.8,1,3.9.52,7.81.52,3.9-1.26,7.8-1.26c1.1,0,2.19-.33,2.19-1.43,0-3.43.4-3.43.4-6.86s.36-3.42.36-6.85.09-3.43.09-6.85-.26-3.43-.26-6.86,0-3.43,0-6.85-1.56-3.44-1.56-6.87,0-3.43,0-6.86C87.19,17.9,87.1,16.45,86,16.45ZM83.62,64.61c-2.72,2.63-3.4,1.26-7.18,1.26s-3.79.1-7.57.1-3.78-.49-7.56-.49-3.79.49-7.57.49-3.79.14-7.57.14c-.53,0-1.72-1.61-2.1-1.24-2.7,2.66-2.4,3-5.09,5.61s-2.57,8.84-5.63,6.62c-3.73-2.7-.2-5.5-.2-10.1,0-1.1,0-2.58-1.15-2.58-4,0-4,1.33-8,1.33S19.55,67,16.6,64.34c-2.7-2.47-.92-3-.92-6.67s1.37-3.67,1.37-7.33S14.91,46.67,14.91,43s.39-3.66.39-7.33,1.83-3.67,1.83-7.33-4.17-5.2-1.54-7.76,4.19,1.15,8,1.15,3.78-.23,7.55-.23,3.78-.64,7.56-.64,3.77.83,7.55.83,3.78-1.55,7.56-1.55,3.77,1.34,7.55,1.34,3.78.28,7.56.28,3.78-.56,7.56-.56,4.35-2.32,7.06.31.92,3.15.92,6.82.38,3.66.38,7.33-1,3.67-1,7.33-.53,3.67-.53,7.34.57,3.62,1.26,7.22S86.25,62.05,83.62,64.61Z"/></g><rect class="cls-1" x="5" y="5" width="90" height="90"/></g></svg>