<svg xmlns="http://www.w3.org/2000/svg" viewBox="0 0 1 1"><defs><style>.cls-1{fill:none;}</style></defs><g id="Guides"><g id="Computer"><path d="M84,17.09c-3.77,0-3.77-1.24-7.55-1.24s-3.78,2.29-7.55,2.29-3.78-.5-7.56-.5-3.77-1.4-7.55-1.4-3.78.37-7.56.37-3.77,0-7.55,0-3.78.62-7.56.62-3.78,0-7.56,0S19.78,16,16,16c-3.3,0-6.81,3.68-6.81,7,0,3.5.14,3.5.14,7s1.15,3.5,1.15,7,.33,3.5.33,7-.48,3.5-.48,7,.77,3.5.77,7-1,3.51-1,7c0,3.3,2.58,5,5.88,5,3.66,0,3.66.62,7.33.62s3.67-.71,7.33-.71,4.75-1.79,7.93,0c1.82,1-1.38,3.12-1.41,5.21a4.57,4.57,0,0,1-.49,2c-1.06,1.39-2.9,3.19-2.13,4.75.33.66,1.82,0,3.49,0,3.81,0,3.81.81,7.63.81s3.82.41,7.63.41,3.82-1.05,7.64-1.05c1,0,3.18.87,4-.93a4.61,4.61,0,0,0-1.17-4.92c-.42-.46-2.36-.73-2.53-1.09-.08-2-.59-2.37,1.2-3.38,3.2-1.78,3.24.3,6.91.3s3.67-1.12,7.33-1.12,3.67-.56,7.34-.56c3.3,0,7.17-2.07,7.17-5.37,0-3.5-.06-3.5-.06-7s-1.28-3.5-1.28-7,.52-3.5.52-7-.77-3.5-.77-7,.08-3.5.08-7-.3-3.51-.3-7C89.36,19.7,87.3,17.09,84,17.09Zm-43.46,61c.85-1.14,1.77-1.47,1.77-2.84,0-2.12-1.74-2.41.13-3.4C46,70,46,71,50,71s4.06-1.07,7.59.8c1.87,1,.71,1.34.71,3.46a6.86,6.86,0,0,0,1.78,4.21c-3.21.64-3.36.33-6.63.33s-3.3,0-6.57-.12S43.75,78.72,40.54,78.07ZM86.14,65A2.57,2.57,0,0,1,84,67.42c-3.77,0-3.77-1.38-7.55-1.38s-3.78-.15-7.55-.15-3.78,1.86-7.56,1.86-3.77-1.93-7.55-1.93-3.78,1-7.56,1S42.46,66,38.68,66s-3.78.27-7.56.27-3.78,1.32-7.56,1.32S19.78,67,16,67c-1.08,0-1.23-1-1.23-2,0-3-3.22-4.25-.91-6.17,2.76-2.31,3.74,1.3,7.34,1.3s3.6-1.42,7.19-1.42,3.6,1,7.2,1,3.6-1.83,7.2-1.83,3.6.18,7.2.18,3.6,1,7.2,1,3.6,1.08,7.19,1.08,3.6-2.17,7.21-2.17,3.6,1.35,7.2,1.35,4.08-2.13,7.42-.77C89,59.63,86.14,62,86.14,65Zm.4-9.51c-2.41,2.67-4.14.29-7.74.29s-3.6.09-7.19.09-3.6-.82-7.2-.82-3.6-.59-7.2-.59-3.6-.17-7.2-.17-3.6.65-7.2.65-3.6.17-7.19.17-3.6-.53-7.21-.53-3.6-.14-7.2-.14S16,58,13.62,55.34c-2.68-3,.82-4.34.82-8.34s-1.06-4-1.06-8,1.56-4,1.56-8-.87-4-.87-8c0-1.08.85-1.18,1.93-1.18,3.77,0,3.77-.92,7.55-.92s3.78-.6,7.55-.6,3.78,1.57,7.56,1.57,3.77-.17,7.55-.17,3.78.48,7.56.48,3.77-1,7.55-1,3.78.6,7.56.6S72.66,21,76.44,21s3.78,1.19,7.56,1.19c1.08,0,2.49-.23,2.49.85,0,4-.63,4-.63,8s-.43,4-.43,8-.13,4,.8,7.94C87.27,51.34,89.22,52.51,86.54,55.49Z"/></g><rect class="cls-1" x="5" y="5" width="90" height="90"/></g></svg>