<svg xmlns="http://www.w3.org/2000/svg" viewBox="0 0 1 1"><defs><style>.cls-1{fill:none;}</style></defs><g id="Guides"><g id="Controls"><path d="M31.15,36.15c-.78-.84-.23-1-.23-2.15S30.1,31,29,31s-2.85,1.9-2.85,3,.76.66,0,1.5c-2.89.87-4.24,4.34-4.24,7.5s3.22,5.52,6.11,6.39c1.24,3.88-1.61,4.39-1.61,8.46s-.11,4.08-.11,8.15A3.31,3.31,0,0,0,29,68.6c1.1,0,1.48-1.5,1.48-2.6,0-4.07-.32-4.07-.32-8.15s-.23-4.21,1-8.08c2.89-.87,5.56-3.61,5.56-6.77S34,37,31.15,36.15ZM29,45c-1.65,0-2.84-.39-2.84-2s1.19-1.88,2.84-1.88,2.32.23,2.32,1.88S30.65,45,29,45Zm23.19,5.19c-1.24-3.88-.27-4-.27-8.09S53,38.07,53,34c0-1.1-1.9-2.85-3-2.85S46.83,32.9,46.83,34c0,4.07,1.07,4.07,1.07,8.14s2.35,4.59,1.11,8.47c-2.89.87-6.61,3.23-6.61,6.39a7.71,7.71,0,0,0,5.08,7.19c.77.84-.08.66-.08,1.81s1.5,1.48,2.6,1.48,1.16-.38,1.16-1.48.2-1.32,1-2.16C55,63,57.74,60.16,57.74,57S55.08,51.1,52.19,50.23ZM50,59c-1.65,0-2.84-.39-2.84-2s1.19-1.88,2.84-1.88,2.32.23,2.32,1.88S51.65,59,50,59ZM73.19,42.23c-1.25-3.95-.27-4.09-.27-8.23,0-1.1-.82-3-1.92-3s-2.85,1.9-2.85,3c0,4.14,1,4-.26,7.94-2.89.87-4,3.9-4,7.06s3.23,5.58,6.12,6.45c1.29,5-1.62,5.4-1.62,10.55A3.31,3.31,0,0,0,71,68.71,3.31,3.31,0,0,0,73.6,66c0-5.15-2.39-5.44-1.1-10.42A6.57,6.57,0,0,0,77.16,49C77.16,45.84,76.08,43.1,73.19,42.23ZM71,51c-1.65,0-2.84-.39-2.84-2s1.19-1.88,2.84-1.88,2.32.23,2.32,1.88S72.65,51,71,51ZM88,20.2c-3.45,0-3.45.26-6.91.26s-3.45-.5-6.91-.5-3.45-.61-6.9-.61-3.45.66-6.91.66-3.45-.79-6.9-.79-3.46.69-6.91.69-3.46-.34-6.91-.34-3.45-.77-6.91-.77-3.45,1.12-6.91,1.12-3.46.56-6.91.56-3.46-.62-6.92-.62c-1.1,0-2.82,1-2.82,2.14,0,3.5.94,3.5.94,7s0,3.5,0,7-.71,3.5-.71,7v7c0,3.5.6,3.5.6,7s-.85,3.5-.85,7,1.48,3.5,1.48,7-.32,3.51-.32,7A1.52,1.52,0,0,0,12,79.66c3.45,0,3.45-.3,6.91-.3S22.36,81,25.82,81s3.45-.72,6.9-.72,3.45.82,6.91.82,3.45-1.78,6.9-1.78,3.46.87,6.91.87,3.46.21,6.91.21,3.45-.33,6.91-.33,3.45.2,6.91.2,3.46-.49,6.91-.49,3.46-.91,6.92-.91c1.1,0,1,.19,1-.91,0-3.5,1.82-3.5,1.82-7S90,67.5,90,64s.58-3.5.58-7-1.09-3.5-1.09-7,1.6-3.5,1.6-7-1.31-3.5-1.31-7,.1-3.5.1-7,1.14-3.51,1.14-7C91.06,20.9,89.1,20.2,88,20.2ZM85.33,75.35c-2.51,2.58-2.93.5-6.53.5s-3.6-.94-7.19-.94-3.6.43-7.2.43-3.6.46-7.2.46-3.6.28-7.2.28-3.6-1-7.2-1-3.6.14-7.19.14-3.6-.31-7.21-.31-3.6,1-7.2,1-5.44,3.4-8,.82,1.32-4.43,1.32-8.15.11-3.71.11-7.42-.11-3.71-.11-7.43S13.49,50,13.49,46.29s-.31-3.71-.31-7.42,1-3.72,1-7.44-2.25-4.26.34-6.93,3.08-.33,6.68-.33S24.8,24,28.39,24s3.6,0,7.2,0,3.6-.46,7.2-.46,3.6-.26,7.2-.26,3.6,0,7.2,0,3.6.36,7.19.36,3.6-.23,7.21-.23,3.6.69,7.2.69,5.4-3.35,7.91-.77-1.65,4.39-1.65,8.11,1.51,3.71,1.51,7.42S86,42.56,86,46.28s.32,3.71.32,7.43-1.3,3.71-1.3,7.42-.52,3.91.09,7.58S87.91,72.68,85.33,75.35Z"/></g><rect class="cls-1" x="5" y="5" width="90" height="90"/></g></svg>