<svg xmlns="http://www.w3.org/2000/svg" viewBox="0 0 100 100"><defs><style>.cls-1{fill:none;}</style></defs><g id="Guides"><g id="Create New" data-name="Create New"><path d="M85.74,27.61c-3.19-3.18-3.17-3.21-6.36-6.4-.75-.75-.67-.64-1.42.11-2.23,2.24-3.48,1-5.71,3.24s-1.09,3.38-3.33,5.62-2.35,2.27-5.3,3.43c-3.24,1.27-3.32.34-6.81.34s-3.48.1-7,.1-3.48.94-7,.94-3.48-.32-7-.32-3.49-1-7-1S25.46,33,22,33s-3.49.5-7,.5c-1.1,0-1.17,1.43-1.17,2.53,0,3.5-1.29,3.5-1.29,7S12,46.49,12,50,14,53.49,14,57s-.78,3.5-.78,7,.55,3.5.55,7-1.8,3.51-1.8,7c0,1.1,2,2,3.07,2,3.75,0,3.75.05,7.5.05s3.75,0,7.5,0,3.75,1,7.49,1,3.75-1.45,7.5-1.45,3.76,1.23,7.51,1.23,3.75-.86,7.5-.86,3.75.44,7.5.44,3.75,0,7.51,0A2.39,2.39,0,0,0,77.15,78c0-3.88.55-3.88.55-7.76s-.58-3.88-.58-7.76-.42-3.88-.42-7.77.64-3.88.64-7.76S75.6,42.8,77,39.17c1.17-3.11,1.7-3,4-5.38s2.4-2.3,4.75-4.66C86.55,28.35,86.53,28.38,85.74,27.61Zm-12,49.08c-2.55,2.39-4.15.23-7.65.23s-3.5.16-7,.16-3.5-1.76-7-1.76-3.5,1.62-7,1.62-3.5-1.36-7-1.36S34.53,76,31,76s-3.51.1-7,.1-5.37,3.2-7.75.62c-2.57-2.79.06-4.47.06-8.27s1-3.8,1-7.6S18,57,18,53.2s-.5-3.8-.5-7.6-3.73-5.39-1.13-8.17c2.44-2.59,4.17,1,7.73,1s3.56.51,7.13.51S34.82,37,38.38,37s3.56.78,7.13.78,3.56-.56,7.13-.56,5.13-2.4,6.11,1c1.08,3.78-1.73,2.51-4.5,5.28s-2.82,2.74-5.59,5.51a1.94,1.94,0,0,0-.5,1c-.86,3,.46,3.57-2.23,5.1-3.8,2.15-3.89,1.32-8.26,1.32S33.31,55.23,29,55.23c-1.1,0-1.88,1.63-1.88,2.73s.78,2.33,1.88,2.33c3.16,0,3.16,0,6.33,0s3.17-.15,6.34-.15,3.17.55,6.34.55a66.63,66.63,0,0,0,6.6-1.13c1.37-.34,1.1-.71,2.31-1,.35-.08,1,.27,1.24,0,2.52-2.51,2.26-2.77,4.79-5.29s1.88-3.18,4.41-5.69,2.59-6.24,6-5.21c3.14.94.78,4.14.78,7.42s-.54,3.28-.54,6.56.1,3.28.1,6.56-2.07,3.55-1.23,6.73C73.42,73.37,76.1,74.44,73.7,76.69ZM56,55.86c-2,1.33-4.16,2.75-5.88,1s-.41-3.91.91-6c2.06-3.17,4.06-1.6,6.73-4.27s1.53-3.81,4.2-6.48,3.64-1.71,6.31-4.38,2.41-2.94,5.09-5.61,1.6-4.67,5.3-5.43c2.46-.49,5,1.33,4.53,3.79-.75,3.7-3.17,2.95-5.84,5.62s-3.35,2-6,4.66-3.2,2.15-5.87,4.82a35.4,35.4,0,0,0-5,5.76C58,52.59,59.13,53.81,56,55.86Z"/></g><rect class="cls-1" x="2.88" y="5" width="90" height="90"/></g></svg>