<svg xmlns="http://www.w3.org/2000/svg" viewBox="0 0 1 1"><defs><style>.cls-1{fill:none;}</style></defs><g id="Guides"><g id="Credit Card" data-name="Credit Card"><path d="M86,24.6c-3.6,0-3.6-1.49-7.2-1.49s-3.6,1.37-7.19,1.37-3.6-.72-7.2-.72-3.6.21-7.2.21-3.6,0-7.2,0-3.6-1-7.2-1-3.6,1.35-7.19,1.35-3.6-.19-7.21-.19-3.6-.77-7.2-.77-3.61.6-7.21.6A2.16,2.16,0,0,0,11.79,26c0,3.43,1.29,3.43,1.29,6.85s-1.69,3.43-1.69,6.86-.4,3.43-.4,6.85,1.23,3.43,1.23,6.86,0,3.43,0,6.85-.61,3.44-.61,6.87.9,3.43.9,6.86c0,1.1.43,2.33,1.53,2.33,3.6,0,3.6-.5,7.2-.5s3.6.55,7.19.55,3.6-1.19,7.2-1.19,3.6-.19,7.2-.19,3.6.64,7.2.64,3.6.09,7.2.09,3.6.77,7.19.77,3.6-1.58,7.21-1.58S75.19,77,78.79,77s3.61-.84,7.21-.84A2.2,2.2,0,0,0,88.06,74c0-3.43.12-3.43.12-6.85s.71-3.43.71-6.86.09-3.43.09-6.85-.77-3.43-.77-6.86.3-3.43.3-6.85-1.05-3.44-1.05-6.87S87,29.43,87,26C87,24.9,87.1,24.6,86,24.6Zm-1.36,48c-2.59,2.75-4.41-.27-8.19-.27S72.67,71.1,68.9,71.1s-3.78.63-7.56.63-3.77,1.4-7.55,1.4-3.78-.36-7.56-.36-3.77-1.48-7.55-1.48-3.78.12-7.56.12-3.78,1-7.56,1-5.34,2.69-7.93-.06C12.88,69.45,16.84,68,16.84,64s-1.9-4-1.9-8-2.45-5.81.29-8.72c2.59-2.75,4.54.06,8.32.06s3.78.59,7.55.59,3.78.61,7.56.61,3.77-1,7.55-1,3.78,1.58,7.56,1.58,3.77-.33,7.55-.33,3.78-1.65,7.56-1.65,3.78.08,7.56.08,4.37-1.36,7,1.39c2.75,2.9.39,3.44.39,7.44s-.2,4,.76,7.86C85.66,68.32,87.38,69.69,84.64,72.6Zm-.76-28.75c-3,2.34-3.65.5-7.43.5s-3.78.5-7.55.5-3.78-.58-7.56-.58-3.77-1.19-7.55-1.19S50,44.24,46.23,44.24s-3.77-.82-7.55-.82-3.78,1-7.56,1-3.78-1-7.56-1-4,2.21-6.95-.14c-2.35-1.87-3.34-3.84-1-5.71,3-2.35,4.15-.26,7.93-.26s3.78,0,7.55,0,3.78,1.28,7.56,1.28,3.77-.68,7.55-.68,3.78,1.12,7.56,1.12,3.77-.68,7.55-.68,3.78-.66,7.56-.66,3.78,1.16,7.56,1.16,3.75-1.43,7.26,0C86.63,39.94,86.23,42,83.88,43.85Zm.39-9.51c-3,2.35-4-.88-7.82-.88s-3.78.82-7.55.82S65.12,34,61.34,34s-3.77-.26-7.55-.26-3.78-.54-7.56-.54-3.77,1.61-7.55,1.61-3.78-.32-7.56-.32-3.78.59-7.56.59-4,.6-7-1.75C14.22,31.42,13,29,15.32,27.14c2.95-2.35,4.45,1.23,8.23,1.23s3.78-.06,7.55-.06,3.78-.43,7.56-.43,3.77-.2,7.55-.2,3.78.21,7.56.21,3.77-.21,7.55-.21h7.56c3.78,0,3.78-.62,7.56-.62s3.72.28,7.18,1.8C86.76,30.25,86.62,32.47,84.27,34.34ZM46.43,64c0,1.1-1.33,1.46-2.43,1.46-3.33,0-3.33.82-6.66.82S34,66,30.67,66s-3.34-.26-6.67-.26c-1.1,0-1.15-.59-1.15-1.69s0-2.76,1.15-2.76c3.33,0,3.33.32,6.66.32S34,61,37.33,61s3.34,2,6.67,2C45.1,62.92,46.43,62.9,46.43,64Z"/></g><rect class="cls-1" x="5" y="5" width="90" height="90"/></g></svg>