<svg xmlns="http://www.w3.org/2000/svg" viewBox="0 0 1 1"><defs><style>.cls-1{fill:none;}</style></defs><g id="Guides"><g id="Crosshair"><path d="M88,47.8c-3,0-3,.71-5.79-.46-.16-2.62-1.4-4.34-2.16-6.75s-.77-5.34-2.09-7.52S73.63,30,71.82,28.18A30.23,30.23,0,0,0,66,23.54c-2.18-1.32-3.85-3.72-6.33-4.49s-5.58-.61-8.2-.77c-1.17-2.8-.68-3.25-.68-6.28,0-1.1.29-1.73-.81-1.73s-1.09.63-1.09,1.73c0,3,.53,3.38-.65,6.18a34.23,34.23,0,0,0-7.83,1.24,32.1,32.1,0,0,0-7,3.27c-2.21,1.34-4.72,2.44-6.53,4.25s-2.26,4.72-3.6,6.92-4,3.82-4.77,6.3-.27,5.39-.43,8c-2.8,1.17-3.1.68-6.14.68-1.1,0-1.28,0-1.28,1.15s.18,2.6,1.28,2.6c3,0,3.66-2.7,6.46-1.53a38.4,38.4,0,0,0,1.85,8.23c.78,2.47.91,5.14,2.24,7.32a33,33,0,0,0,4.56,6.27c1.81,1.82,4.33,2.78,6.54,4.12a30.41,30.41,0,0,0,7,2.87c2.41.76,4.14,2.14,6.76,2.3,1.17,2.8.06,2.78.06,5.82,0,1.1,1.44,1.53,2.54,1.53s1.12-.43,1.12-1.53c0-3,.8-2.81,2-5.61A24.27,24.27,0,0,0,59.7,81a33.14,33.14,0,0,0,7.21-3c2.21-1.34,3.46-3.94,5.28-5.75s4.37-3.09,5.71-5.3,3-4.5,3.74-7,.25-5,.41-7.63c2.8-1.17,2.91.16,6,.16,1.1,0,2-1.34,2-2.44A2.21,2.21,0,0,0,88,47.8ZM72,52.2c3,0,2.9-.61,5.66.47-.16,2.26.15,3.93-.51,6s-2.7,3.64-3.85,5.52S72.14,69,70.58,70.58a30.26,30.26,0,0,1-5.46,4.22c-1.88,1.15-4.59.76-6.73,1.45s-4.64,1.71-6.9,1.87c-1.08-2.75-.68-3.16-.68-6.12,0-1.1.29-1.73-.81-1.73s-1.09.63-1.09,1.73c0,3,.44,3.27-.64,6a29.91,29.91,0,0,1-6.78-1.4A27.66,27.66,0,0,1,35.4,74c-1.9-1.16-3.17-3-4.74-4.61S26.56,66.9,25.4,65s-.48-4.62-1.17-6.75S22.17,54.09,22,51.83c2.76-1.08,3-.68,6-.68,1.1,0,1.28,0,1.28-1.15S29.1,47.4,28,47.4c-3,0-3.53,2.62-6.29,1.54.16-2.26.11-5.66.78-7.74s2.55-3.83,3.7-5.71a28.47,28.47,0,0,1,4.3-5c1.57-1.56,2.83-3.58,4.73-4.74a28.65,28.65,0,0,1,6.05-3.06c2.08-.67,3.86-.21,6.12-.37,1.08,2.75.07,2.72.07,5.68,0,1.1,1.44,1.53,2.54,1.53s1.12-.43,1.12-1.53c0-3,.91-2.73,2-5.49a18.64,18.64,0,0,1,5.27,1.27,26.92,26.92,0,0,1,5.84,2.89c1.9,1.17,4.43,1.55,6,3.12s2,4.07,3.15,6,1.52,3.93,2.2,6.07,2.09,3.63,2.25,5.88C75.05,48.8,75,47.56,72,47.56c-1.1,0-2,1.34-2,2.44A2.21,2.21,0,0,0,72,52.2Z"/></g><rect class="cls-1" x="5" y="5" width="90" height="90"/></g></svg>