<svg xmlns="http://www.w3.org/2000/svg" viewBox="0 0 100 100"><defs><style>.cls-1{fill:none;}</style></defs><g id="Guides"><g id="Diary"><path d="M78,10.71c-3.5,0-3.5-.18-7-.18s-3.5.34-7,.34-3.5.32-7,.32S53.51,9,50,9s-3.5.11-7,.11-3.5,1.42-7,1.42-3.5-.62-7-.62-3.51,1-7,1c-1.1,0-2.5.06-2.5,1.16,0,3.45.68,3.45.68,6.91s-1.27,3.45-1.27,6.91S20,29.27,20,32.72s-.27,3.45-.27,6.91-.22,3.45-.22,6.9,1.38,3.46,1.38,6.91,0,3.46,0,6.91v6.91c0,3.45-1.62,3.45-1.62,6.91s1.45,3.46,1.45,6.91-1.5,3.46-1.5,6.92c0,1.1,1.72,1.47,2.82,1.47,3.5,0,3.5.93,7,.93s3.5.76,7,.76,3.5-.2,7-.2,3.5-1,7-1,3.5.07,7,.07,3.5-.9,7-.9,3.5,1.41,7,1.41,3.51-.78,7-.78c1.1,0,.84-.66.84-1.76,0-3.45,1.49-3.45,1.49-6.91s-.26-3.45-.26-6.91-.34-3.45-.34-6.9.26-3.45.26-6.91,1.06-3.45,1.06-6.9S79.3,50,79.3,46.56s.58-3.46.58-6.91S79,36.2,79,32.74s1-3.45,1-6.91.53-3.46.53-6.91-.12-3.46-.12-6.92C80.49,10.9,79.1,10.71,78,10.71ZM75.35,85.33c-2.67,2.58-3.06,1.52-6.78,1.52s-3.71-1.14-7.42-1.14-3.71,1.4-7.43,1.4-3.71-.64-7.43-.64-3.71-1.57-7.42-1.57S35.15,86,31.43,86s-4,1.8-6.73-.75c-2.54-2.4-.82-2.75-.82-6.25s-2.13-4.24.55-6.49c3.2-2.68,3.79-1.21,7.84-.18A5.87,5.87,0,0,0,38,76.08,6.3,6.3,0,0,0,44.26,70c0-3.31-2.95-5.22-6.26-5.22-2.61,0-4.87.78-5.68,3.11-4,1-6.05,3.77-9.06.89S25.09,64,25.09,60s-4.37-5.64-1.48-8.41,4.42.47,8.46,1.5c.81,2.33,3.32,3.11,5.93,3.11,3.31,0,6.7-2.89,6.7-6.2s-3.39-5.7-6.7-5.7c-2.61,0-4.56,2.46-5.37,4.79-4.05,1-5.2,1.37-8.22-1.52S23.57,44,23.57,40s-2.45-5.23.43-8,4.33-1.15,8.38-.13c.81,2.33,3,3.57,5.62,3.57,3.31,0,7-2.14,7-5.45s-3.74-5.6-7-5.6c-2.61,0-5,.52-5.84,2.85-4,1-5.43,4-8.63,1.31-2.68-2.25,1.6-4.06,1.6-7.56s-4.05-5-1.51-7.4c2.7-2.55,4.09.2,7.81.2s3.71.91,7.42.91,3.71.38,7.43.38,3.71-1.71,7.43-1.71,3.71.65,7.42.65,3.72.55,7.44.55,5.26-3.68,7.93-1.09-.88,4.11-.88,7.71,0,3.6,0,7.19-.07,3.6-.07,7.2-.53,3.6-.53,7.2,1.3,3.6,1.3,7.2-1.15,3.6-1.15,7.2.17,3.6.17,7.19.82,3.6.82,7.21S74.45,75.4,75.06,79,77.93,82.82,75.35,85.33ZM35.26,70c0-1.1,1.64-3,2.74-3s2.64,1.85,2.64,3S39.1,71.07,38,71.07,35.26,71.1,35.26,70Zm.43-20A2.88,2.88,0,0,1,38,47.41c1.1,0,2.11,1.49,2.11,2.59A2.42,2.42,0,0,1,38,52.34,2.61,2.61,0,0,1,35.69,50Zm.11-20A2.7,2.7,0,0,1,38,27.47c1.1,0,1.69,1.43,1.69,2.53S39.1,33.13,38,33.13,35.8,31.1,35.8,30Z"/></g><rect class="cls-1" x="5" y="5" width="90" height="90"/></g></svg>