<svg xmlns="http://www.w3.org/2000/svg" viewBox="0 0 1 1"><defs><style>.cls-1{fill:none;}</style></defs><g id="Guides"><g id="Document"><path d="M78.79,32.77c-2.72-2.72-3-2.43-5.73-5.15s-2.29-3.15-5-5.87-3-2.45-5.72-5.17-2.82-2.64-5.54-5.36c-.38-.38-.26-1.08-.78-1.08-4,0-4,.61-8,.61S44,10,40,10,36,11,32,11s-4-.28-8-.28c-2.2,0-4.15,1.13-4.15,3.33,0,3.6,0,3.6,0,7.2s.87,3.6.87,7.19-1.27,3.6-1.27,7.2.36,3.6.36,7.2-.42,3.6-.42,7.2-.41,3.6-.41,7.2,1.51,3.6,1.51,7.19-.77,3.6-.77,7.21,1.47,3.6,1.47,7.2S18.81,82.4,18.81,86c0,2.2,3,3.7,5.19,3.7,3.71,0,3.71.6,7.43.6s3.71-1.18,7.42-1.18,3.71.13,7.43.13,3.71-.41,7.43-.41,3.71.58,7.42.58,3.72,1.13,7.44,1.13,3.71.59,7.43.59c2.2,0,3.67-2.94,3.67-5.14,0-3.74-.55-3.74-.55-7.47s.48-3.74.48-7.47S81,67.32,81,63.59s-1.72-3.74-1.72-7.48S81,52.37,81,48.64s-.78-3.74-.78-7.48-.31-3.74-.34-7.48C79.8,33.14,79.21,33.19,78.79,32.77ZM57.74,16.31c3.2-1.61,3.48,2.34,6,4.87s2.1,3,4.63,5.49,7.07,2.48,5.48,5.68c-1.7,3.39-4.49.56-8.28.56s-5,1.87-7.68-.81.33-3.83-.62-7.5C56.14,20.26,54.35,18,57.74,16.31ZM76.4,86.41C73.72,89,72.29,87,68.57,87s-3.71-.59-7.42-.59-3.71.39-7.43.39-3.71.13-7.43.13-3.71-.77-7.42-.77-3.72.61-7.44.61S26.66,88.6,24,86s-.94-3.61-.94-7.21.28-3.6.28-7.19.82-3.6.82-7.2,0-3.6,0-7.2-.87-3.6-.87-7.2,1.27-3.6,1.27-7.2-.36-3.6-.36-7.19.42-3.6.42-7.21.41-3.6.41-7.2-4-5.05-1.37-7.54,4.07.64,7.82.64,3.75-1.47,7.5-1.47,3.75,2.35,7.5,2.35,4.9-3.91,7.7-1.41c2.49,2.21-.5,3.55-.5,6.88s1.18,3.34,1.18,6.67-.13,3.34-.13,6.67c0,1.1.15.84,1.25.84,3.33,0,3.33.58,6.66.58s3.34,1.13,6.67,1.13,3.56-2.21,5.83.23c2.44,2.61,1.17,2.79,1.17,6.36s.55,3.57.55,7.14-.48,3.57-.48,7.14S75,61,75,64.56s1.72,3.57,1.72,7.14-2.54,3.92-1.7,7.39C76,83,79,83.94,76.4,86.41Z"/></g><rect class="cls-1" x="5" y="5" width="90" height="90"/></g></svg>