<svg xmlns="http://www.w3.org/2000/svg" viewBox="0 0 1 1"><defs><style>.cls-1{fill:none;}</style></defs><g id="Guides"><g id="Down Arrow" data-name="Down Arrow"><path d="M68.41,45.46c-2.81,2.82-3.29,2.34-6.11,5.15s-3.21,2.42-6,5.24-1.8,3.84-4.62,6.65c-.39.39-1.55-.56-2.06-.56s-.41-.3-.8-.69c-2.69-2.68-3-2.36-5.69-5S39.94,54,37.26,51.34s-2.47-2.9-5.16-5.58c-.79-.78-1.6-2.85-.82-3.63s2.12.76,2.9,1.54c2.44,2.45,3.9,1,6.35,3.44L45.43,52c2.45,2.45.69,4.79,4.15,4.7,3.64-.09,2-2.28,4.56-4.86S57,49.57,59.62,47s2.2-3,4.78-5.54c.78-.78,3.27-.64,4,.14A3.46,3.46,0,0,1,68.41,45.46ZM87.12,50c0,2.54,1.42,5.17.94,7.57s-2.93,4.32-3.87,6.59a36,36,0,0,1-3.41,6.4c-1.39,2.07-1.74,5-3.5,6.72A39.55,39.55,0,0,1,71.4,82a38.24,38.24,0,0,1-6.85,3.1,37.78,37.78,0,0,1-7.14,2.14c-2.39.47-4.87-.36-7.41-.36a36.68,36.68,0,0,1-7.29-.26c-2.47-.48-4.55-1.63-6.83-2.57s-5.1-.86-7.15-2.24A38.4,38.4,0,0,1,23,77c-1.76-1.76-3.87-3.37-5.26-5.44s-2-4.64-3-7A38.11,38.11,0,0,1,13,57.37a36.45,36.45,0,0,1-.11-14.76c.49-2.47.19-5.26,1.13-7.53s3.54-3.81,4.92-5.87,1.76-5.05,3.51-6.81a41,41,0,0,1,6-4.68,39.89,39.89,0,0,1,6.85-3.26c2.27-1,5-.39,7.47-.88A36.15,36.15,0,0,1,50,12.65c2.54,0,5-.45,7.43,0a37.67,37.67,0,0,1,7.17,2.09A38.65,38.65,0,0,1,71,18.51c2.07,1.39,4.83,2.11,6.59,3.86s1.67,5.05,3.06,7.12,3.4,3.68,4.36,6,2.18,4.55,2.67,7S87.12,47.46,87.12,50Zm-3.83,0c0-2.6.39-5.13-.17-7.56s-.91-5.15-2-7.42-3.67-3.66-5.25-5.64S73.49,24.62,71.51,23a35.55,35.55,0,0,0-6.39-4.43,35.42,35.42,0,0,0-7.46-2.15c-2.44-.55-5.06-.16-7.66-.16a34.34,34.34,0,0,0-7.57.54c-2.51.57-4.42,2.47-6.68,3.56s-5.61.65-7.59,2.23-2.35,4.84-3.93,6.83a32.13,32.13,0,0,0-3.94,6.25,31.83,31.83,0,0,0-2.55,6.94A32.44,32.44,0,0,0,16.87,50a33.51,33.51,0,0,0,.4,7.47c.57,2.51,1.88,4.59,3,6.86A33,33,0,0,0,24,70.71c1.59,2,2.49,4.65,4.48,6.24A35.71,35.71,0,0,0,35,81.19a35.78,35.78,0,0,0,7.35,2.42A35.36,35.36,0,0,0,50,84.79a34.69,34.69,0,0,0,7.63-1.38,35.41,35.41,0,0,0,7.45-2.1c2.3-1.11,4.27-3,6.25-4.56s4.39-3,6-5,1.31-5.16,2.43-7.46,3-4.21,3.55-6.72S83.29,52.6,83.29,50Z"/></g><rect class="cls-1" x="5" y="5" width="90" height="90"/></g></svg>