<svg xmlns="http://www.w3.org/2000/svg" viewBox="0 0 100 100"><defs><style>.cls-1{fill:none;}</style></defs><g id="Guides"><g id="Email"><path d="M88,24c-3.45,0-3.45-1.31-6.91-1.31s-3.45,1.13-6.91,1.13-3.45-1.88-6.9-1.88-3.45,1.35-6.91,1.35h-6.9C50,23.27,50,23,46.56,23S43.1,22,39.65,22s-3.45,2-6.91,2-3.45-.77-6.91-.77S22.37,22,18.92,22s-3.46.23-6.92.23A3.64,3.64,0,0,0,9.23,25c0,3.57.4,3.57.4,7.14s.09,3.57.09,7.14-.42,3.57-.42,7.14,1.38,3.57,1.38,7.14-.81,3.57-.81,7.14-.17,3.58-.17,7.15.86,3.57.86,7.15c0,1.11.34,1.55,1.44,1.55,3.45,0,3.45-.49,6.91-.49S22.36,76,25.82,76s3.45,2.22,6.9,2.22,3.45-1.83,6.91-1.83,3.45,1.39,6.91,1.39,3.45-.92,6.9-.92,3.46-.18,6.91-.18S63.8,78,67.26,78s3.45-.33,6.91-.33,3.46-1.43,6.91-1.43,3.46.36,6.92.36c1.1,0,1.37-.51,1.37-1.62,0-3.57-.48-3.57-.48-7.14s1.19-3.57,1.19-7.14-.16-3.57-.16-7.14.44-3.57.44-7.14.38-3.57.38-7.14-1.25-3.58-1.25-7.15.2-3.57.2-7.15C89.69,23.9,89.1,24,88,24Zm-4,2.53c1.63,2.93-3.45,2.63-5.82,5s-1.57,3.17-3.94,5.54-3.7,1-6.07,3.41-1.41,3.32-3.78,5.69L59.68,50.9c-2.37,2.37-2.6,2.14-5,4.52s-1.35,3.82-4.7,3.83-3.12-.66-5.49-3-1.82-2.92-4.19-5.29-1.42-3.32-3.79-5.69S34,43,31.63,40.67s-2.4-2.34-4.77-4.71-2.65-2.1-5-4.47-6.38-1.41-4.75-4.35c1.78-3.22,3.43.56,7.12.56s3.68-1.38,7.36-1.38,3.69.81,7.37.81,3.69.17,7.37.17,3.69-.85,7.37-.85,3.69.11,7.38.11,3.68-.49,7.37-.49S72,27,75.53,26C79.9,24.84,82.24,23.3,84,26.52ZM13.69,28.9c3.37-1.13,2.6,3.68,5.12,6.2s3.32,1.73,5.84,4.25,1.19,3.86,3.72,6.38,6.07.73,6.08,4.29-2.61,2.72-5.13,5.24-2.75,2.29-5.27,4.82S20.89,62,18.37,64.49s-1.32,7.86-4.71,6.73c-3.19-1.06.05-4.37.05-7.73s1.34-3.37,1.34-6.73-.23-3.36-.23-6.72-.05-3.37-.05-6.73.44-3.58-.41-6.83C13.27,32.35,10.49,30,13.69,28.9ZM16,73.41c-1.5-3.22,3.63-2.7,6.14-5.22s1.72-3.31,4.24-5.83,3.84-1.19,6.36-3.71.75-6.32,4.3-6.07c4.09.29,3.07,3,6,5.88s2.66,3.13,5.56,6c.79.78,2.75,1.42,3.54.64,2.9-2.9,1.46-4.33,4.36-7.23s2.44-5,6.53-5.33c3.55-.25,1.79,3.54,4.31,6.06S70,61,72.48,63.5,75,66,77.55,68.5s6.73,1.11,5.24,4.34-3.34-.12-7-.12-3.68-.42-7.36-.42-3.68,1.38-7.36,1.38-3.68-.81-7.36-.81S50,72.7,46.33,72.7s-3.68.85-7.36.85-3.68-.11-7.37-.11S28,73,24.48,73.9C20.07,75.08,17.53,76.75,16,73.41Zm70.33-2.26c-3.37,1.13-2.6-3.68-5.12-6.2s-3.32-1.73-5.84-4.25-1.19-3.86-3.72-6.38-6.07-.73-6.08-4.29,2.61-2.72,5.13-5.24S73.43,42.5,76,40s3.16-1.88,5.68-4.41S83,27.7,86.34,28.83c3.19,1.06,0,4.37,0,7.73S85,39.93,85,43.29s.23,3.36.23,6.72,0,3.37,0,6.73-.44,3.58.41,6.83C86.73,67.7,89.51,70.08,86.31,71.15Z"/></g><rect class="cls-1" x="5" y="5" width="90" height="90"/></g></svg>