<svg xmlns="http://www.w3.org/2000/svg" viewBox="0 0 100 100"><defs><style>.cls-1{fill:none;}</style></defs><g id="Guides"><g id="Folder"><path d="M88,30.89c-3.52,0-3.52-1.14-7-1.14s-3.53-.84-7-.84-3.48,1.66-6.75.34c-3.06-1.23-3.23-1-5.54-3.34s-2-2.64-4.34-5c-.37-.38-.56-1.3-1.09-1.3-3.42,0-3.42-.11-6.84-.11s-3.41.79-6.83.79-3.42-.21-6.84-.21S32.26,20,28.84,20s-3.42.23-6.84.23c-1.1,0-1.44.63-1.44,1.73,0,4,2.72,5.62-.11,8.45s-4.45.32-8.45.32c-1.1,0-1,.13-1,1.23,0,3.83-.89,3.83-.89,7.66s.91,3.84.91,7.67S8.84,51.16,8.84,55s.56,3.84.56,7.67-.48,3.83-.48,7.67,1.53,3.83,1.53,7.67c0,1.1.45,2.83,1.55,2.83,3.45,0,3.45-2,6.91-2s3.45,1.72,6.91,1.72,3.45,0,6.9,0,3.45.3,6.91.3,3.45-.27,6.9-.27,3.46-1.5,6.91-1.5,3.46.69,6.91.69,3.45.77,6.91.77,3.45-1.55,6.91-1.55,3.46-.21,6.91-.21,3.46.05,6.92.05c1.1,0,1.16.2,1.16-.9,0-3.83.8-3.83.8-7.66s-.12-3.84-.12-7.67,0-3.83,0-7.66-.65-3.84-.65-7.67.15-3.83.15-7.67.38-3.83.38-7.67C89.73,30.9,89.1,30.89,88,30.89ZM23.28,23.07c3.12-2.39,4.64.49,8.56.49s3.91.71,7.83.71,3.92-.61,7.84-.61,3.94-.53,7.53,1c3.86,1.69,6.15.94,5.1,5-.93,3.61-2.61.13-6.34.13s-3.72,0-7.45,0-3.72.05-7.44.05-3.73-.73-7.46-.73-3.84,1.9-7.2.28S20.9,24.89,23.28,23.07ZM86.34,76.35c-2.58,2.51-3.94-.43-7.54-.43s-3.6.69-7.19.69S68,76,64.41,76s-3.6-1.08-7.2-1.08-3.6,2.27-7.2,2.27-3.6-2.33-7.2-2.33-3.6.12-7.19.12-3.6,1.2-7.21,1.2-3.6-.67-7.2-.67-4.28,2.65-6.87.14.07-3.15.07-6.65-.18-3.5-.18-7,.35-3.5.35-7-.64-3.5-.64-7-.86-3.5-.86-7-2.16-5.15.35-7.59,4.17-.1,7.77-.1,3.6-.24,7.19-.24l7.2,0c3.6,0,3.6.88,7.2.88s3.6.54,7.2.54,3.6-.41,7.2-.41,3.6,1,7.19,1,3.6-.75,7.21-.75,3.6-1.56,7.2-1.56,5.39-2.11,8,.4S86.1,37.5,86.1,41s.83,3.5.83,7-.76,3.5-.76,7-1,3.5-1,7-.44,3.7.38,7.1C86.5,72.92,88.85,73.91,86.34,76.35Z"/></g><rect class="cls-1" x="5" y="5" width="90" height="90"/></g></svg>