<svg xmlns="http://www.w3.org/2000/svg" viewBox="0 0 100 100"><defs><style>.cls-1{fill:none;}</style></defs><g id="Guides"><g id="Forward"><path d="M86.58,36.41c-2.8-2.79-2.22-3.36-5-6.16s-4.06-1.54-6.86-4.33-1.62-4-4.42-6.78-3.34-2.26-6.14-5.06-2.27-3.34-5.07-6.14C57.81,6.65,55,8.25,55,10c0,3.41-.75,3.41-.75,6.82s2,3.6,1.27,6.93c-1.44-.19-3.61-1.28-5.26-1.28a39.12,39.12,0,0,0-7.3,1A37,37,0,0,0,36.11,26a37.37,37.37,0,0,0-6.46,3.29c-2,1.32-4.52,2.24-6.25,3.92s-1.64,4.89-3,6.88-4.6,3-5.56,5.18-.86,4.91-1.35,7.31a36.86,36.86,0,0,0-1.06,7.24c0,2.25.81,4.44,1.21,6.58s1.56,4.1,2.37,6.14a34,34,0,0,0,2.85,5.85,34,34,0,0,0,4.09,5.07,35.62,35.62,0,0,0,4.65,4.62,39.44,39.44,0,0,0,5.69,3.28c2,1,3.16-.66,1.77-2.31a24,24,0,0,1-3.87-6.79c-.95-2.37-.26-5-.26-7.63,0-2.49-1.54-5.25-.8-7.49A24.81,24.81,0,0,1,34,60.69c1.43-1.94,4.18-2.63,6.15-4s3.41-4,5.74-4.73a25.17,25.17,0,0,1,7.42-.85c.58,0,1.47.65,2,.69a60.37,60.37,0,0,1,.26,7.12c0,3.54-1.73,3.54-1.73,7.09,0,1.76,3.58,3,4.85,1.68,2.79-2.8,2.14-3.45,4.94-6.25s2.9-2.69,5.69-5.48,2.47-3.13,5.27-5.93,3.79-1.81,6.59-4.61,2.94-2.66,5.74-5.46C87.71,39.16,87.37,37.18,86.58,36.41ZM59.05,60.9c-2.74-.56,1-2.55,1-5.34S58.27,52.77,58.27,50c0-1,.13-2.76-.85-2.9-1.18-.17-2.77.48-4.15.48-2.42,0-5-.41-7.24.18s-4.28,2.41-6.31,3.57S35.25,53.39,33.57,55s-2.16,4.33-3.36,6.37-3.37,3.72-4,6a28.11,28.11,0,0,0-.67,7.22,24.77,24.77,0,0,0,2.09,8.62,32.47,32.47,0,0,1-4.42-4.9c-1.33-1.78-1.68-4-2.6-6S17,68.88,16.49,66.7s1.65-4.6,1.65-6.85c0-2.51-.61-4.91-.05-7.26a30.91,30.91,0,0,1,2.78-6.72c1.1-2.21,1.92-4.55,3.48-6.45s3-4.07,4.95-5.58a34.29,34.29,0,0,1,6.45-3.78,35,35,0,0,1,7-2.51,35.22,35.22,0,0,1,7.45-.44,39.56,39.56,0,0,1,6.46.45c1.24.24,1.67-.31,1.67-1.56,0-2.79.27-2.79.27-5.58s-2.22-4.21.52-4.77c3.2-.66,3,.67,5.29,3s2,2.61,4.33,4.93,1.29,3.34,3.61,5.65,3.49,1.14,5.81,3.46,4.61,2,4.62,5.32-2.75,2.53-5.07,4.84-2.13,2.5-4.45,4.81-3.53,1.09-5.85,3.41a19.89,19.89,0,0,0-4.15,5.24C61.47,59.26,62.26,61.56,59.05,60.9Z"/></g><rect class="cls-1" x="5" y="5" width="90" height="90"/></g></svg>