<svg xmlns="http://www.w3.org/2000/svg" viewBox="0 0 100 100"><defs><style>.cls-1{fill:none;}</style></defs><g id="Guides"><g id="Heart"><path d="M49.26,84.75c-2.74-2.71-3-2.48-5.71-5.19s-3.42-2-6.15-4.76-3-2.44-5.74-5.15-2.19-3.28-4.93-6-2.12-3.34-4.86-6.06-3-2.46-5.73-5.18A20.87,20.87,0,0,1,13,48a20.72,20.72,0,0,1-2.46-6.76C10,38.71,8.68,36.37,9,33.89s.46-5.26,1.58-7.54a24.34,24.34,0,0,1,4.75-6.1,23.72,23.72,0,0,1,7.74-4.77,23.59,23.59,0,0,1,8.85-1.7c2.53,0,4.67,1.07,6.7,1.7,2.42.75,4.75,1.21,6.47,2.4A22.5,22.5,0,0,1,50,22.32c1.06-1.34,2.1-3.58,4.41-5.19a25,25,0,0,1,6.56-3c2-.63,4.59-.2,7.12-.2,3,0,5.58,1.72,8.32,2.85s6,1.37,8.22,3.52C86.46,22.12,87,24.82,88.08,27s3.23,4.32,3.54,6.8a23.88,23.88,0,0,1-.58,7.7,23.91,23.91,0,0,1-2.54,7.31,24.47,24.47,0,0,1-3.7,4.52c-2.74,2.72-2.47,3-5.2,5.71s-3.69,1.76-6.43,4.48S71.45,67.27,68.71,70,64.76,71.48,62,74.2s-2.93,2.52-5.68,5.23S54.49,83,51.75,85.76C51,86.53,50,85.53,49.26,84.75ZM31.91,17.06a20.72,20.72,0,0,0-7.46,1.79c-2.27.93-3.88,3.12-5.67,4.89a17.63,17.63,0,0,0-4,6.91c-.94,2.6-2,5.14-1.77,7.89s.38,5.82,1.84,8.26a21.28,21.28,0,0,0,3.27,3.59c2.62,2.6,2.44,2.77,5.06,5.37s2.49,2.74,5.11,5.34,3.47,1.74,6.08,4.34,3.1,2.12,5.72,4.73,2.42,2.8,5,5.4,1.15,5.36,4.84,5.36,2.46-2.5,5.08-5.1,3.12-2.1,5.74-4.7S63,68,65.57,65.44s2.45-2.77,5.07-5.37S72.8,57,75.42,54.39s2.76-2.47,5.38-5.07c1.12-1.11,2.68-1.71,3.46-3,1.47-2.44,3.53-4.95,3.79-7.64s-1.69-5.48-2.63-8.08S83.94,25,81.92,23c-1.79-1.77-4.63-1.94-6.9-2.87a17.72,17.72,0,0,0-6.93-1.62,17.48,17.48,0,0,0-6.15,1.39,17.56,17.56,0,0,0-5.5,3,17,17,0,0,0-3.73,5c-.77,1.32-3.49.65-4.26-.68-1.09-1.86-3.48-2.51-5.2-3.92s-2.62-3.89-4.73-4.65A20.46,20.46,0,0,0,31.91,17.06Z"/></g><rect class="cls-1" x="5" y="5" width="90" height="90"/></g></svg>