<svg xmlns="http://www.w3.org/2000/svg" viewBox="0 0 1 1"><defs><style>.cls-1{fill:none;}</style></defs><g id="Guides"><g id="Home"><path d="M89.55,49.09c-2.7-2.7-3.62-1.78-6.32-4.48s-1.94-3.46-4.64-6.16-2.12-3.29-4.83-6-3.86-1.54-6.56-4.24S65,25,62.31,22.3,59.53,19.66,56.83,17s-2.07-3.34-4.77-6c-.75-.76-3-.35-3.75.4-2.72,2.71-2.87,2.55-5.59,5.27s-1.9,3.52-4.62,6.23-2.57,2.85-5.29,5.56-3.35,2.08-6.06,4.79-2.84,2.59-5.55,5.3S18.67,41.37,16,44.08s-2,3.48-4.67,6.2c-1.26,1.27-1,3.32.71,3.32,5,0,5.46-2.83,9.59,0,2.81,1.91.48,2.81.48,6.21s-1,3.4-1,6.79,2.08,3.41,2.08,6.81-.16,3.4-.16,6.8S21.36,83.6,21.36,87A3.32,3.32,0,0,0,24,89.69c4.5,0,4.5-1.37,9-1.37s4.5-.14,9-.14c1.1,0,1.1-.08,1.1-1.18,0-4,.36-4,.36-8s-1.42-4.47,1-7.67c1.8-2.4,2.56-1.17,5.55-1.17s4.35-1.67,6.14.73c2.4,3.2.73,4.11.73,8.11s.23,4,.23,8c0,1.1-.2,1.94.9,1.94,4.5,0,4.5-1,9-1s4.5.08,9,.08c1.1,0,.82.07.82-1,0-3.4.83-3.4.83-6.8s.74-3.4.74-6.8S77,70,77,66.6s1-3.4,1-6.8-2.23-4,.58-5.93c4.14-2.81,4.4-.48,9.4-.48,0,0,0-1.53,0-1.53C90.24,51.86,90.84,50.38,89.55,49.09ZM73.63,84.7c-2.3,2.63-3.15,1.15-6.65,1.15s-4.52,1.63-6.83-1C57.52,81.84,61,81,61,77s-1.64-4-1.64-8c0-1.1-.31-2.13-1.41-2.13-4,0-4,.1-8,.1s-4-.91-8-.91c-1.1,0-2.38,1.84-2.38,2.94,0,4-.22,4-.22,8s3.63,5.34,1,8.35c-2.3,2.63-3.9.37-7.4.37s-4.56,1.79-6.86-.84c-2.64-3,.22-3.88.22-7.88s-.27-4-.27-8S25,65,25,61s-1.14-4.56,1.46-7.6c2.23-2.6,3,.31,6.38.31s3.43-.78,6.86-.78,3.42,1,6.85,1S50,51.82,53.4,51.82s3.43.16,6.85.16,3.44,1.65,6.87,1.65,4.1-2.79,6.33-.19c2.6,3,1.2,3.55,1.2,7.55s.15,4,.15,8-.66,3.91,0,7.85S76.27,81.68,73.63,84.7ZM17.23,48.77C15.6,45.84,18.59,46,21,43.65s3.13-1.61,5.5-4,2.95-1.78,5.31-4.15S33,32,35.34,29.62s2.89-1.86,5.26-4.23,2.3-2.44,4.67-4.81,1.36-3.83,4.72-3.83,2.09,1.7,4.46,4.06,2.21,2.53,4.58,4.9,3.17,1.56,5.54,3.93,2.5,2.24,4.87,4.61,1.73,3,4.1,5.37,2.24,2.5,4.62,4.88S84.7,46,83.08,49c-1.78,3.22-3.61,1-7.29,1s-3.69-1.61-7.37-1.61-3.68-.1-7.37-.1-3.68.79-7.36.79-3.69-1-7.37-1S42.63,50.16,39,50.16,35.26,50,31.58,50s-3.94-2.49-7.53-1.63C20.28,49.27,19,52,17.23,48.77Z"/></g><rect class="cls-1" x="5" y="5" width="90" height="90"/></g></svg>