<svg xmlns="http://www.w3.org/2000/svg" viewBox="0 0 1 1"><defs><style>.cls-1{fill:none;}</style></defs><g id="Guides"><g id="Inbox"><path d="M80.1,60.8l.44-.21-.08.09c-.66-3.33.37-3.53-.3-6.86s-1.85-3.09-2.52-6.42-.43-3.38-1.1-6.7.06-3.48-.61-6.81-1.16-3.23-1.83-6.57-.5-3.36-1.16-6.7c-.18-.94-1-.87-1.94-.87-3.41,0-3.41-.18-6.83-.18S60.75,19,57.34,19s-3.42.12-6.83.12-3.42-.82-6.83-.82-3.42,1.42-6.84,1.42S33.42,18.09,30,18.09c-.94,0-1.09,1.71-1.29,2.63-.75,3.33-1.31,3.2-2.06,6.54s-1.46,3.17-2.21,6.5.72,3.66,0,7-1.26,3.22-2,6.56-.36,3.42-1.11,6.76-.93,3.29-1.68,6.63c0,.14.28.15.28.29,0,3-.68,3-.68,6s.51,3,.51,6-1.46,3-1.46,6c0,1.1,1.64,2.37,2.74,2.37,3.62,0,3.62-.37,7.25-.37s3.62-.83,7.24-.83,3.63.24,7.25.24,3.63.43,7.25.43,3.63-.06,7.25-.06,3.63.42,7.25.42,3.63,0,7.26,0,3.62.16,7.25.16c1.1,0,1.81-1.21,1.81-2.31,0-3,.68-3,.68-6s-.12-3-.12-6-.64-3-.64-6C80.73,60.86,80.13,60.92,80.1,60.8Zm-49-38.49c3-2.33,4.31.27,8.09.27s3.77-.09,7.54-.09,3.78,1.06,7.55,1.06S58,22.33,61.8,22.33s4.87-2,7.82.34.15,4,.87,7.59,1.22,3.49,1.94,7.09S73,41,73.7,44.58s1.44,3.46,2.16,7.06S79.59,56.83,77,59.4c-3.14,3.08-4.79-.46-9.18-.46s-4.4.13-8.79.13c-1.1,0-2.75.82-2.75,1.92,0,2.76-3.49,6.73-6.25,6.73s-6.09-4-6.09-6.73c0-1.1-1.81-1.32-2.91-1.32-4.38,0-4.38-.57-8.75-.57s-5.23,2.56-8.32-.55c-2.59-2.62-.49-3.35.33-6.95s1.31-3.48,2.13-7.07.42-3.69,1.23-7.29,1.85-3.34,1.79-7C29.35,26,28.16,24.59,31.07,22.31Zm46.56,55.3c-2.34,2.43-4-.19-7.38-.19s-3.37.09-6.74.09-3.38-1.06-6.75-1.06S53.38,77.67,50,77.67s-3.37-.24-6.75-.24-3.37-.74-6.75-.74-3.38.51-6.75.51S25.33,79.44,23,77s-.74-3.51-.74-7-2.27-5.15.38-7.44c3.07-2.65,4.43.48,8.48.48s4.18-1,8.13-.12A10.85,10.85,0,0,0,43,69.14c2,1.46,4.89,1.15,7,1.15s5.07.44,7.1-1,3.06-4.92,3.52-6.94c3.95-.94,4.22.55,8.27.55s4.63-2.08,7.7.58c2.65,2.28.4,2.92,1.26,6.31C78.85,73.73,80.06,75.09,77.63,77.61Z"/></g><rect class="cls-1" x="5" y="5" width="90" height="90"/></g></svg>