<svg xmlns="http://www.w3.org/2000/svg" viewBox="0 0 100 100"><defs><style>.cls-1{fill:none;}</style></defs><g id="Guides"><g id="Layers"><path d="M84,12.93c-3.43,0-3.43,1.42-6.85,1.42s-3.43.15-6.86.15-3.43-1.4-6.85-1.4S60,14.7,56.58,14.7s-3.43-.63-6.85-.63-3.44-.42-6.87-.42-3.43.06-6.86.06c-1.1,0-1.48,1.19-1.48,2.29,0,3-.6,3-.6,6v6c0,3,1.85,3.53-.27,5.65s-2.65.09-5.65.09-3-.67-6-.67-3,1.34-6,1.34c-1.1,0-3.06.49-3.06,1.59,0,3.43,1,3.43,1,6.85s-.59,3.43-.59,6.86-.26,3.43-.26,6.85.08,3.43.08,6.86.31,3.43.31,6.85.14,3.44.14,6.87-.45,3.43-.45,6.86c0,1.1,1.77,2.34,2.87,2.34,3.43,0,3.43-1.1,6.85-1.1s3.43-.11,6.86-.11,3.43,1.23,6.85,1.23,3.43.24,6.86.24,3.43-1.33,6.85-1.33,3.44,1.15,6.87,1.15,3.43.33,6.86.33c1.1,0,1.26-1.65,1.26-2.75,0-3,1.36-3,1.36-6s-1.16-3-1.16-6-1.14-3.44,1-5.56,2.56.35,5.56.35,3-.41,6-.41,3-.19,6-.19c1.1,0,2.67-1.09,2.67-2.19,0-3.43-.53-3.43-.53-6.85s-.64-3.43-.64-6.86-.12-3.43-.12-6.85,1.17-3.43,1.17-6.86.35-3.43.35-6.85S86,26.29,86,22.86s.07-3.43.07-6.86C86.08,14.9,85.1,12.93,84,12.93ZM62.58,82.53c-2.48,2.7-4.24-.62-7.91-.62s-3.67-.44-7.33-.44-3.67,0-7.33,0H32.67c-3.66,0-3.66-.31-7.33-.31s-5.35,4-7.95,1.4,1.29-4.27,1.29-7.94S17.09,71,17.09,67.34s1.29-3.67,1.29-7.33-.79-3.67-.79-7.34S19,49,19,45.34s-4.36-5.59-1.65-8.07c3-2.71,4.67,1.78,8.67,1.78s5.37-4.16,8.48-1.64c2.52,2.05-.41,3.84-.41,7.08s.09,3.25.09,6.5.7,3.25.7,6.51-.94,3.25-.94,6.5c0,1.1,1,1.38,2.08,1.38,3.25,0,3.25.82,6.49.82s3.25.67,6.5.67,3.25-.5,6.51-.5,4.84-3.21,6.89-.69c2.52,3.11-1.74,4.53-.8,8.42C62.66,78.52,65.28,79.58,62.58,82.53ZM81.65,61.65c-2.59,2.59-3.31-.14-7-.14S71,62.85,67.34,62.85s-3.67-.53-7.33-.53-3.67-.2-7.34-.2-3.66.74-7.33.74-5.35,2.34-8-.25-.19-4.27-.19-7.94,1.2-3.67,1.2-7.33S39,43.67,39,40s-1.79-3.67-1.79-7.34.55-3.66.55-7.33-2.16-4.58.43-7.18,3.5-.52,7.17-.52,3.67,1,7.33,1,3.67-.52,7.33-.52,3.67.85,7.34.85,3.66-1.89,7.33-1.89,5.19-2.12,7.79.47-.22,4.11-.22,7.78-.75,3.67-.75,7.33.23,3.67.23,7.33S83,43.66,83,47.33s-1,3.59-.29,7.19S84.24,59.06,81.65,61.65Z"/></g><rect class="cls-1" x="5" y="5" width="90" height="90"/></g></svg>