<svg xmlns="http://www.w3.org/2000/svg" viewBox="0 0 100 100"><defs><style>.cls-1{fill:none;}</style></defs><g id="Guides"><g id="Left Arrow" data-name="Left Arrow"><path d="M57.51,67.56c-.39.39-.55.31-1.06.31s-.68.09-1.07-.3c-2.82-2.81-2.58-3-5.4-5.86s-3.2-2.44-6-5.25-2.47-3.16-5.29-6c-.78-.78-1.16-1.35-.38-2.13,2.69-2.68,3.2-2.16,5.88-4.84s1.29-4.08,4-6.77,3.51-1.86,6.19-4.54c.78-.79,1.3-.25,2.08.53s2,2,1.22,2.76c-2.45,2.44-3.75,1.15-6.19,3.59S49,41.54,46.56,44,42.88,46.12,43,49.58c.1,3.65,2.36,2.23,4.94,4.81s2.22,2.94,4.8,5.53,2.56,2.59,5.15,5.17C58.64,65.87,58.29,66.78,57.51,67.56ZM89,50c0,2.54-1.81,4.9-2.29,7.3s.31,5.36-.64,7.64a40.54,40.54,0,0,1-3.78,6.63A40.45,40.45,0,0,1,77.2,77.2c-1.76,1.75-4.5,2.29-6.57,3.68a37.06,37.06,0,0,1-6.33,3.63c-2.28.95-4.4,2.33-6.87,2.82a38.69,38.69,0,0,1-7.43.81,37.58,37.58,0,0,1-7.39-1c-2.47-.48-5.29-.09-7.57-1s-3.49-4-5.55-5.41-4.55-2.12-6.31-3.87S19.41,73.44,18,71.37a39.57,39.57,0,0,1-3.85-6.53c-.94-2.27-.37-5.07-.86-7.54s-1.63-4.76-1.63-7.3,1.66-4.8,2.14-7.2-.31-5.25.63-7.52a39.28,39.28,0,0,1,3.24-6.87c1.39-2.07,3.74-3.47,5.5-5.22A37.56,37.56,0,0,1,29,18.53a37.6,37.6,0,0,1,6.63-3.3,37.1,37.1,0,0,1,7.09-2c2.4-.47,4.77-1.54,7.31-1.54s4.91,1,7.31,1.5,5.33-.19,7.61.75a40,40,0,0,1,6.76,3.57c2.07,1.38,3.33,3.92,5.09,5.68s2.85,4,4.23,6.05,3.63,3.65,4.59,6,.83,4.93,1.32,7.4S89,47.46,89,50Zm-4.51,0a34.87,34.87,0,0,0-.73-7.7,34.28,34.28,0,0,0-2.7-7.25,35.27,35.27,0,0,0-3.86-6.74c-1.59-2-3.85-3.5-5.83-5.09a35.27,35.27,0,0,0-6.28-4.53,35.43,35.43,0,0,0-7.46-2.06c-2.44-.56-5-1.57-7.62-1.57s-4.91,2.2-7.34,2.76-5.21.32-7.47,1.42-4.95,1.92-6.93,3.5-2.62,4.58-4.21,6.57-4.47,3.2-5.58,5.5a35.46,35.46,0,0,0-2.59,7.4c-.55,2.44.7,5.19.7,7.79a33.22,33.22,0,0,0,.77,7.45c.58,2.51.93,5,2,7.29a33.47,33.47,0,0,0,4,6.45c1.59,2,2.72,4.65,4.71,6.24A36,36,0,0,0,35,81.2a35.8,35.8,0,0,0,7.21,3c2.44.55,5.22-.54,7.82-.54A33.35,33.35,0,0,0,57.53,83c2.51-.57,4.62-2,6.89-3.06s4.73-1.86,6.71-3.44a34.09,34.09,0,0,0,5.62-5.17,35.35,35.35,0,0,0,6.52-13.74A34.07,34.07,0,0,0,84.48,50Z"/></g><rect class="cls-1" x="5" y="5" width="90" height="90"/></g></svg>