<svg xmlns="http://www.w3.org/2000/svg" viewBox="0 0 1 1"><defs><style>.cls-1{fill:none;}</style></defs><g id="Guides"><g id="Link"><path d="M82.93,45.12c-3,3-3.85,2.2-6.88,5.22s-2.54,3.51-5.56,6.54a2.18,2.18,0,0,1-3-.22c-.78-.78-.17-1.35.61-2.13,3-3,2.06-4,5.08-7s3.17-2.88,6.19-5.9c1.94-2,3.79-4,4.45-6.5a16.06,16.06,0,0,0,.06-8,15.81,15.81,0,0,0-4.11-6.89A15.38,15.38,0,0,0,74.73,17c-1.81-.75-3.81,0-5.83,0s-3.77-.12-5.58.63A14.14,14.14,0,0,0,58.6,20.8c-3,3-3.4,2.65-6.43,5.67s-3.24,2.81-6.26,5.83a15.26,15.26,0,0,0-3.75,7c-.68,2.56-1.7,5.57-1,8.12s2.7,4.88,4.64,6.82c1.45,1.45,3.08,3.19,4.95,3.95,1,.41,1.34.38.92,1.4-.86,2.12-2.45.59-1.83.84a18.06,18.06,0,0,1-6.16-4.06,18.8,18.8,0,0,1-4.48-5.84c-1-2.34-2-4.82-2-7.3S38.53,38.36,39.5,36s2.76-3.72,4.59-5.55c3-3,2.65-3.39,5.68-6.41s2.08-4,5.11-7c1.8-1.8,4.37-2.81,6.66-3.76s4.81-.43,7.36-.43,4.91-.1,7.19.85a18.1,18.1,0,0,1,5.76,4.42c1.83,1.82,4.39,3.12,5.32,5.38a20.73,20.73,0,0,1,1.66,7.56c0,2.49-2,4.71-2.93,7S84.76,43.29,82.93,45.12ZM50.11,39.77c-1-.41-2.32-.75-2.74.27S48,42.17,49,42.58a15.31,15.31,0,0,1,4.86,3.59c2,1.94,2.4,4.48,3.06,7s2,5.14,1.32,7.7a15.82,15.82,0,0,1-4.16,6.83c-3,3-3.47,2.58-6.49,5.6s-3.07,3-6.09,6a15.21,15.21,0,0,1-10.37,4.6c-2,0-4.36.66-6.17-.09A16.72,16.72,0,0,1,20,80a16,16,0,0,1-4-7c-.68-2.55-.16-5.39.52-8a14.89,14.89,0,0,1,4.12-6.56c3-3,2.85-3.19,5.88-6.22s3.76-2.28,6.79-5.3c.78-.78.33-3.17-.45-3.95s-3.12-1.18-3.9-.4c-3,3-2.72,3.33-5.75,6.35s-3,3.08-6,6.1A20.1,20.1,0,0,0,13,61.39a19.85,19.85,0,0,0-1,7.51c0,2.49,1,4.79,1.93,7.12s1.6,4.82,3.43,6.64,3.74,4,6,4.93,5.19,1,7.74,1,4.75-1.75,7-2.7,4.57-1.77,6.38-3.58c3-3,3.74-2.3,6.76-5.33s2.63-3.42,5.65-6.44a20.42,20.42,0,0,0,4.64-6.12c1-2.34.06-5.13.06-7.62a17.79,17.79,0,0,0-1.54-7c-.93-2.26-1.06-5.18-2.89-7S52.48,40.73,50.11,39.77Z"/></g><rect class="cls-1" x="5" y="5" width="90" height="90"/></g></svg>