<svg xmlns="http://www.w3.org/2000/svg" viewBox="0 0 1 1"><defs><style>.cls-1{fill:none;}</style></defs><g id="Guides"><g id="List"><path d="M50,12a37.86,37.86,0,0,0-7.33,1.16c-2.47.49-5.23.07-7.5,1a39.34,39.34,0,0,0-6.66,3.64,39.44,39.44,0,0,0-10.64,10.7c-1.38,2.06-2,4.61-3,6.93s-2.69,4.45-3.18,6.92A40.68,40.68,0,0,0,10.94,50c0,2.54,1.77,4.93,2.24,7.33s.62,5,1.57,7.27a37,37,0,0,0,3.47,6.63,38.67,38.67,0,0,0,4.61,5.94,38.64,38.64,0,0,0,6.07,4.42A37.82,37.82,0,0,0,35.51,85c2.27,1,4.74,1.09,7.21,1.58s4.74,1.35,7.28,1.35a37.81,37.81,0,0,0,7.42-.61A37.37,37.37,0,0,0,64.5,85,37.75,37.75,0,0,0,71,81.36C73,80,74.4,77.91,76.16,76.16s4.56-2.64,6-4.71,1.47-4.83,2.43-7.14,3.31-4.21,3.8-6.68A40.06,40.06,0,0,0,88.76,50c0-2.54-2.1-4.8-2.58-7.2s-.16-5.06-1.1-7.33-1.45-5-2.83-7-4.38-2.81-6.14-4.57-2.54-4.67-4.61-6.06-4.68-1.88-7-2.83a36.94,36.94,0,0,0-7.16-1.88A37.9,37.9,0,0,0,50,12Zm0,71.86a34.54,34.54,0,0,1-7.59-.64,33.12,33.12,0,0,1-7-3c-2.3-1.11-4.85-1.84-6.83-3.42a35.6,35.6,0,0,1-5.79-5.15c-1.59-2-1.41-5.08-2.52-7.39s-3.11-4.17-3.68-6.68A34.77,34.77,0,0,1,15.69,50a35.5,35.5,0,0,1,.36-7.75,35.2,35.2,0,0,1,2.52-7.39c1.11-2.3,3.68-3.75,5.26-5.73A33.52,33.52,0,0,1,29,23.62a33.48,33.48,0,0,1,6.56-3.7c2.26-1.09,4.38-2.59,6.89-3.16s5,.08,7.59.08a32.87,32.87,0,0,1,7.41.67c2.51.58,5.25.4,7.52,1.49s3.85,3.38,5.83,5,4.73,2.46,6.32,4.45,2.35,4.58,3.46,6.88,1.06,4.86,1.63,7.37A31.94,31.94,0,0,1,83.43,50a33.74,33.74,0,0,1-.57,7.5c-.57,2.51-.48,5.3-1.58,7.56s-3.3,4-4.88,6a33.6,33.6,0,0,1-5.6,5A32.77,32.77,0,0,1,64.44,80c-2.27,1.1-4.39,2.46-6.9,3A33.52,33.52,0,0,1,50,83.88ZM69.38,50a2,2,0,0,1-1.88,2.09c-3.74,0-3.74-.5-7.47-.5s-3.74.75-7.48.75-3.74.45-7.48.45c-1.1,0-1-1.69-1-2.79s-.13-2.24,1-2.24c3.74,0,3.74-.07,7.47-.07s3.74-.51,7.48-.51,3.74-.07,7.48-.07C68.6,47.11,69.38,48.9,69.38,50Zm0,12a2,2,0,0,1-1.88,2.09c-3.74,0-3.74-.5-7.47-.5s-3.74.75-7.48.75-3.74.45-7.48.45c-1.1,0-1-1.69-1-2.79s-.13-2.24,1-2.24c3.74,0,3.74-.07,7.47-.07s3.74-.51,7.48-.51,3.74-.07,7.48-.07C68.6,59.11,69.38,60.9,69.38,62ZM38.19,50a2,2,0,0,1-1.88,2.09c-1.91,0-1.91-.5-3.81-.5-1.1,0-2.34-.49-2.34-1.59s1.24-2.79,2.34-2.79c1.9,0,1.9,1.82,3.81,1.82C37.41,49,38.19,48.9,38.19,50Zm0,12a2,2,0,0,1-1.88,2.09c-1.91,0-1.91-.5-3.81-.5-1.1,0-2.34-.49-2.34-1.59s1.24-2.79,2.34-2.79c1.9,0,1.9,1.82,3.81,1.82C37.41,61,38.19,60.9,38.19,62ZM69.38,38a2,2,0,0,1-1.88,2.09c-3.74,0-3.74-.5-7.47-.5s-3.74.75-7.48.75-3.74.45-7.48.45c-1.1,0-1-1.69-1-2.79s-.13-2.24,1-2.24c3.74,0,3.74-.07,7.47-.07s3.74-.51,7.48-.51,3.74-.07,7.48-.07C68.6,35.11,69.38,36.9,69.38,38ZM38.19,38a2,2,0,0,1-1.88,2.09c-1.91,0-1.91-.5-3.81-.5-1.1,0-2.34-.49-2.34-1.59s1.24-2.79,2.34-2.79c1.9,0,1.9,1.82,3.81,1.82C37.41,37,38.19,36.9,38.19,38Z"/></g><rect class="cls-1" x="5" y="5" width="90" height="90"/></g></svg>