<svg xmlns="http://www.w3.org/2000/svg" viewBox="0 0 1 1"><defs><style>.cls-1{fill:none;}</style></defs><g id="Guides"><g id="Location"><path d="M86.35,11.37c-3.37,1.4-3.47,1.14-6.84,2.54S76.44,16,73.07,17.4s-3.66.68-7,2.07-3.24,1.68-6.61,3.08-3.77.42-7.13,1.82S49,25.89,45.62,27.29s-2.78,2.8-6.15,4.2S36,32.61,32.63,34s-3.83.28-7.2,1.68-2.72,3-6.08,4.36-3.59.89-7,2.3c-1.75.74-1.54,1.87.36,2.3,3.41.77,3.44.66,6.84,1.43s2.93,2.93,6.33,3.7,3.83-1.09,7.24-.32,3.17,1.86,6.58,2.63,3.67-.46,6.15,2,2.58,2.43,3.35,5.84-1,3.81-.24,7.21,1.38,3.28,2.15,6.69-.21,3.63.56,7,1.94,3.15,2.71,6.56a2,2,0,0,0,3.73.38c1.39-3.37,1.8-3.2,3.2-6.57s1-3.54,2.37-6.91,1.62-3.26,3-6.63.2-3.86,1.6-7.22,1.51-3.32,2.91-6.68S73,50.56,74.35,47.2s2.18-3,3.57-6.41,1.29-3.41,2.69-6.77.62-3.69,2-7.06,1.64-3.27,3-6.64,2.29-3,3.68-6.37C90,12.33,88,10.7,86.35,11.37ZM19.23,43.2c-.4-3.53,3.53-1.36,6.81-2.72s3-2.06,6.28-3.42,3.58-.64,6.87-2,3.17-1.64,6.45-3,3.69-.39,7-1.75,3.23-1.49,6.51-2.86,2.7-2.77,6-4.13,3.4-1.09,6.69-2.46,4.4-5,6.21-1.89-1.27,3-3.84,5.54-3,2.19-5.55,4.77-2.19,3-4.76,5.53S61.36,37.45,58.79,40s-4.14,1-6.72,3.6-.67,5.7-4.17,6.72-3.7-1.87-7.22-2.66-3.35-1.55-6.88-2.34-3.64.41-7.25.52C22.35,46,19.63,46.79,19.23,43.2ZM56.8,80.76c-3.59-.38-.73-3.76-1.52-7.28S53.74,70.12,53,66.6s0-3.7-.83-7.23-2.9-3.63-1.89-7.1,3.39-1.93,6-4.51,2.48-2.67,5.06-5.25,1.5-3.65,4.07-6.23,2.79-2.36,5.37-4.94,3.44-1.73,6-4.31,2-8.35,5.2-6.52-1.43,4.36-2.8,7.64-.86,3.5-2.22,6.78-1.27,3.32-2.63,6.61S70.85,44,69.49,47.26s.4,4-1,7.3-2.39,2.86-3.76,6.14-2.07,3-3.44,6.28-.18,3.6-.68,7.13C60.06,78.23,60.34,81.15,56.8,80.76Z"/></g><rect class="cls-1" x="5" y="5" width="90" height="90"/></g></svg>