<svg xmlns="http://www.w3.org/2000/svg" viewBox="0 0 1 1"><defs><style>.cls-1{fill:none;}</style></defs><g id="Guides"><g id="Location Marker" data-name="Location Marker"><path d="M50,7.56c-2.49,0-5.22-.43-7.52.17s-4.53,2.4-6.62,3.59-3.43,3.48-5.16,5.17-3.63,3.21-4.87,5.31A27.56,27.56,0,0,0,23,28.48c-.63,2.3-2.19,4.7-2.19,7.19s1.29,4.77,1.55,7.06,0,4.87.51,7.13,1.7,4.52,2.43,6.71,1.21,4.7,2.15,6.8S30.88,67,32,69c1.19,2.15.74,5.22,2,7.09,1.4,2.1,3.33,3.71,4.68,5.42,1.65,2.1,3.88,3.34,5.25,4.83A20.45,20.45,0,0,0,49.5,90.6c.74.64,1.37,1.92,2.11,1.28a29.27,29.27,0,0,1,4-6c1.37-1.49,4.55-1.93,6.19-4,1.35-1.72,2.28-4.06,3.68-6.15C66.76,73.88,66.78,71.14,68,69c1.11-2,3.49-3.43,4.49-5.65s2-4.3,2.74-6.59a68.36,68.36,0,0,0,2-6.86c.51-2.26-.41-4.82-.13-7.22s2-4.59,2-7a29.54,29.54,0,0,0-.88-7.51c-.64-2.37-2.91-4.2-4.13-6.28A28.11,28.11,0,0,0,69.75,16a28.09,28.09,0,0,0-6-4c-2.09-1.19-4-3.2-6.35-3.82A29.58,29.58,0,0,0,50,7.56Zm0,79.27c-1.13-1.09-2-3.25-4.06-5.68-1.41-1.63-3.55-3-5.14-5.16-1.34-1.84-3.58-3.3-4.91-5.5-1.22-2-1.92-4.43-3-6.69A70.41,70.41,0,0,1,30,57.1c-.83-2.23-.38-4.86-1-7.27S26.8,45.41,26.49,43s.22-4.79.22-7.28-.12-5,.65-7.3a22.89,22.89,0,0,1,3.81-6.27c1.49-2,2.26-4.85,4.3-6.31S40.57,15,43,14.25s4.45-1.69,7-1.69,5.14-.46,7.46.29,5.27,1.2,7.29,2.64S67.49,20,69,22s3.92,3.63,4.72,6-.88,5.08-.88,7.65.47,4.84.17,7.21.61,5.14,0,7.45-2.76,4.3-3.6,6.54a71.93,71.93,0,0,1-3,6.57c-1.12,2.26-2.34,4.3-3.55,6.3-1.34,2.19-1.59,5-2.93,6.8-1.59,2.17-4.33,3.11-5.74,4.74C52.12,83.71,51.13,85.74,50,86.83Zm0-67.27c-2.92,0-6.27.15-8.62,1.51s-4.19,4.29-5.6,6.72S34.62,33.08,34.62,36s.2,5.63,1.56,8A16,16,0,0,0,42,49.81c2.35,1.36,5,3.36,8,3.36s5.66-1.93,8-3.29,5.06-3.09,6.47-5.52,1.71-5.44,1.71-8.36a17,17,0,0,0-1.75-8.34C63,25.23,60,24.28,57.58,22.87S52.92,19.56,50,19.56Zm0,28c-2.18,0-3.61-1.21-5.38-2.24S41,43.61,40,41.79,37.38,38.18,37.38,36s1.17-4.26,2.19-6A12.11,12.11,0,0,1,44,25.56c1.77-1,3.85-.39,6-.39s4.22-.57,6,.46,2.73,2.91,3.78,4.73,2,3.46,2,5.64a11,11,0,0,1-2,5.66c-1.05,1.82-1.57,4.41-3.39,5.46S52.18,47.56,50,47.56Z"/></g><rect class="cls-1" x="5" y="5" width="90" height="90"/></g></svg>