<svg xmlns="http://www.w3.org/2000/svg" viewBox="0 0 1 1"><defs><style>.cls-1{fill:none;}</style></defs><g id="Guides"><g id="Map"><path d="M90.59,25.92c-3.33-1.24-3.24-1.5-6.57-2.73s-3-2.09-6.36-3.32-3.78,0-7.12-1.24c0,0,0-.19,0-.19a1.2,1.2,0,0,0-1.07.08s-.21-.4-.22-.4c-3.21,1.18-3.56.23-6.76,1.41s-2.72,2.52-5.92,3.7S53.41,24.9,50,24.9s-3.53,0-6.73-1.17-2.83-2.22-6-3.4-3.62-.06-6.83-1.24l-.19,0c.39.2-.49-2.27-1.35-1.89,0,0,.4.91.39.91-3.34,1.23-3.75.11-7.08,1.34s-2.74,2.86-6.07,4.09-3.88-.23-7.22,1c-.76.31-.68,2-.68,2.85,0,3.76-.56,3.76-.56,7.51s.6,3.76.6,7.52-1.19,3.75-1.19,7.51.26,3.76.26,7.52S8.63,61.2,8.63,65s-.48,3.76-.48,7.52S6.83,76.24,6.83,80c0,3.48,5.22.2,3.54.83,3.21-1.17,3.94.81,7.15-.37s2.91-2,6.12-3.19,2.95-3,6.38-3,3.11,1.93,6.32,3.11,3.28,1,6.48,2.17,3.55.26,6.76,1.43c.93.31,1.62.75,1.16.9,3.2-1.19,3.14-1.35,6.35-2.53s3.34-.83,6.55-2S66.56,74.1,70,74.1s3.44,1.21,6.65,2.39,3,1.8,6.21,3,3.29,1,6.5,2.15c1.31.49,1.81-.17,1.81-1.62,0-3.76,1.91-3.76,1.91-7.52S91.42,68.73,91.42,65s1.26-3.76,1.26-7.52.31-3.76.31-7.51-.45-3.76-.45-7.52-1.62-3.76-1.62-7.52,1.77-3.76,1.77-7.52C92.69,26.56,91.35,26.23,90.59,25.92ZM28.35,71.53c-2.69,3.3-4.29,1.31-8.29,2.75s-3.9,4-7.71,2.07c-3.08-1.54-.87-2.75-.87-6.2s.87-3.45.87-6.9-.77-3.45-.77-6.9.44-3.45.44-6.9,1-3.45,1-6.9-1.43-3.45-1.43-6.9-1.54-4,.65-6.7c2.69-3.3,3.43-2.53,7.44-4s4.43-3.76,8.23-1.85C31,24.66,29,26.4,29,29.85S27,33.3,27,36.74s0,3.45,0,6.9,1,3.45,1,6.9-1.2,3.45-1.2,6.9,1,3.43,1.73,6.8C29.32,68,30.54,68.86,28.35,71.53Zm19.84,5.9c-3.8,1.91-4.24-1.7-8.23-3.15s-4.65-.23-7.34-3.52c-2.18-2.67-1.12-3-1.12-6.4s.87-3.45.87-6.9-.78-3.45-.78-6.9.45-3.45.45-6.9,1-3.45,1-6.9-1.43-3.45-1.43-6.9-2.55-5.07.54-6.62c3.79-1.91,4.16.29,8.15,1.73s4.85.59,7.53,3.89C50,31.53,49,32.19,49,35.64s-2.08,3.45-2.08,6.89,0,3.45,0,6.9,1,3.45,1,6.9-1.19,3.45-1.19,6.9.86,3.44,1.73,6.78C49.49,73.92,51.28,75.88,48.19,77.43Zm20.12-5.9C65.63,74.82,64,72.84,60,74.28s-3.88,4-7.68,2.07c-3.08-1.55-.88-2.75-.88-6.2s.88-3.45.88-6.9-.78-3.45-.78-6.9.45-3.45.45-6.9,1-3.45,1-6.9-1.42-3.45-1.42-6.9-1.54-4,.64-6.7c2.69-3.3,3.43-2.53,7.42-4s4.42-3.76,8.22-1.85C71,24.66,69,26.4,69,29.85s-2.08,3.45-2.08,6.89,0,3.45,0,6.9,1,3.45,1,6.9-1.19,3.45-1.19,6.9,1,3.43,1.73,6.8C69.28,68,70.49,68.85,68.31,71.53Zm19.88,5.9c-3.81,1.91-4.25-1.7-8.25-3.15s-4.66-.22-7.36-3.52c-2.18-2.67-1.13-3-1.13-6.4s.88-3.45.88-6.9-.78-3.45-.78-6.9.45-3.45.45-6.9,1-3.45,1-6.9-1.43-3.45-1.43-6.9-2.54-5.07.54-6.62c3.81-1.91,4.18.29,8.18,1.73s4.86.59,7.55,3.89C90,31.53,89,32.19,89,35.64s-2.08,3.45-2.08,6.89,0,3.45,0,6.9,1,3.45,1,6.9-1.2,3.45-1.2,6.9.86,3.44,1.73,6.78C89.49,73.92,91.28,75.89,88.19,77.43Z"/></g><rect class="cls-1" x="5" y="5" width="90" height="90"/></g></svg>