<svg xmlns="http://www.w3.org/2000/svg" viewBox="0 0 100 100"><defs><style>.cls-1{fill:none;}</style></defs><g id="Guides"><g id="Medal"><path d="M81.14,51.79c-3.21-.43-3-2.27-6.17-2.7s-3.77,2.17-5.6-.51.51-2.42,1.22-5.65-.22-3.44.49-6.68,2-2.94,2.74-6.17.07-3.38.78-6.61.1-3.37.81-6.61.37-3.31,1.07-6.55c.26-1.24-.22-1.26-1.48-1.26-3.57,0-3.57-.71-7.14-.71s-3.57-.73-7.14-.73-3.57.23-7.14.23S50,7,46.44,7,42.87,8.14,39.3,8.14s-3.57-1.2-7.15-1.2S28.58,8.51,25,8.51c-1.26,0-1.86.58-1.6,1.82.7,3.24.07,3.38.79,6.61s1.68,3,2.39,6.25-.41,3.48.3,6.72,0,3.39.71,6.63,1.21,3.12,1.93,6.36,5,4.29,3.16,7-4.25-.18-7.47.25-3.22.49-6.44.92c-1.65.22-2,1.68-.77,2.86,2.51,2.42,2.31,2.63,4.82,5S24.5,62.28,27,64.7s4.35.93,5.41,4.25-1.1,3.25-1.73,6.71-.73,3.44-1.37,6.9.58,3.69-.05,7.15c-.31,1.66.67,2.13,2.15,1.33,3-1.68,3.83-.23,6.86-1.91s2.61-2.45,5.64-4.13,2.61-3.15,6.08-3.15,2.57,2.34,5.6,4,3.68.49,6.71,2.17,2.51,2.63,5.56,4.3c-2.21-1.26,2.63,1.8,2.63-2.63-.39-3.5-.06-3.52-.7-7s-1-3.4-1.59-6.87S66,72.14,67.05,68.79s2.14-3,4.65-5.42,3.36-1.54,5.87-3.95,1.69-3.28,4.2-5.7C83,52.54,82.79,52,81.14,51.79ZM51.32,11.47C53.43,8.78,55.42,13,58.84,13s3.43.14,6.85.14,4.24-3.49,6.22-.71c2.18,3.06,0,3.27-.8,6.94S69,22.76,68.17,26.43s-.17,3.81-1,7.48-.21,3.81-1,7.48,1,4.66-1.35,7.62C63.66,50.49,61.29,50.29,60,49c-2.41-2.44-1-3.7-2.46-6.81s-.8-3.42-2.25-6.53-2.44-2.72-3.09-6.09c-.83-4.31,1.82-4.7.83-9C51.88,15.75,48.63,14.93,51.32,11.47Zm-24.55,0c2-2.79,4.12,1.51,7.54,1.51s3.42.14,6.84.14,4.14-3.38,6.25-.68c2.7,3.46.79,3.92.79,8.3S47.7,25,46.87,29.33c-.65,3.37-.77,3.12-2.22,6.23S43.76,38.93,42.3,42s-.26,4.05-2.66,6.51c-1.3,1.32-3.72,2.26-4.85.79-2.3-3-.32-4.23-1.13-7.9s-.11-3.83-.92-7.5-1-3.62-1.85-7.29.81-4.41-.89-7.77C28,15,24.59,14.57,26.77,11.5ZM64.36,67.36c-.48.46-2.28.7-2.16,1.36.81,4.42.67,4.44,1.48,8.86s5.89,5.33,2.29,8-3.5-1.37-7.36-3.51-3.22-3.32-7.08-5.46c-.3-.16-1.2.26-1.53.26s-.61.69-.91.85c-3.87,2.15-3.69,2.46-7.55,4.61s-5,7.34-8.59,4.7,1.1-5.32,1.91-9.73,1.52-4.29,2.33-8.7a2.58,2.58,0,0,0-.84-2c-3.22-3.09-2.62-3.71-5.84-6.81s-8.6-1.25-7.25-5.5,4.64.51,9-.07,4.18-2.13,8.55-2.71c.67-.09,1-.17,1.3-.78,1.88-4,2.48-3.77,4.37-7.81S45.54,34,50,34s1.46,4.93,3.35,9,1.21,4.36,3.1,8.4c.29.61,1.89,1.23,2.56,1.32,4.37.58,4.63-1.36,9-.78s7.35-1.84,8.69,2.37-3.39,3-6.4,6.34S67.57,64.26,64.36,67.36Z"/></g><rect class="cls-1" x="5" y="5" width="90" height="90"/></g></svg>