<svg xmlns="http://www.w3.org/2000/svg" viewBox="0 0 1 1"><defs><style>.cls-1{fill:none;}</style></defs><g id="Guides"><g id="Menu"><path d="M50,12.05a37.74,37.74,0,0,0-7.32,1.15c-2.47.49-5.19.18-7.46,1.12a39.53,39.53,0,0,0-6.42,3.95,38,38,0,0,0-5.52,5,36.94,36.94,0,0,0-4.48,5.88c-1.37,2.05-2,4.37-3,6.68a36.33,36.33,0,0,0-2.31,6.9c-.47,2.4-1.3,4.72-1.3,7.26s1,4.82,1.52,7.22a36.1,36.1,0,0,0,2.11,6.93c1,2.31,1,5,2.39,7.08a38,38,0,0,0,5,5.52,37.17,37.17,0,0,0,6,4.28c2.06,1.38,3.71,3.54,6,4.5A40.06,40.06,0,0,0,50,88.24a38.11,38.11,0,0,0,7.45-.79,36.73,36.73,0,0,0,7-2.53,38,38,0,0,0,6.59-3.39A38.82,38.82,0,0,0,77,77c1.75-1.76,2.51-4.29,3.89-6.36s4.06-3.45,5-5.76,1.09-4.95,1.58-7.42-.35-4.92-.35-7.46.82-5.06.34-7.46-1.91-4.61-2.86-6.88-.87-5.24-2.24-7.29-3.69-3.54-5.45-5.3a37.89,37.89,0,0,0-5.79-4.7c-2.06-1.38-4-3.26-6.29-4.22a39,39,0,0,0-7.23-2.46C55.22,11.22,52.54,12.05,50,12.05Zm0,71.19c-2.6,0-5.26,1-7.7.48S37.87,81,35.6,79.91s-5.2-1.27-7.18-2.85a35.8,35.8,0,0,1-5.31-5.62c-1.58-2-2.18-4.61-3.29-6.91s-3-4.31-3.6-6.82A35.85,35.85,0,0,1,15,50c0-2.6,2-5,2.55-7.41s.09-5.38,1.19-7.64,3.23-4.06,4.81-6a34.18,34.18,0,0,1,5.25-5.5,34.44,34.44,0,0,1,6.6-3.73c2.27-1.09,4.34-3.05,6.85-3.62s5.15.17,7.75.17,5.34-.84,7.77-.28,4.55,2.66,6.82,3.76,4.84,1.86,6.82,3.44a34.8,34.8,0,0,1,5.22,5.62A34.82,34.82,0,0,1,81.13,35c1.1,2.27,1.39,4.93,2,7.44S84.7,47.4,84.7,50,83,55,82.39,57.39s-.55,5.15-1.65,7.41-1.85,5-3.43,7-4.25,3.06-6.24,4.65a33.35,33.35,0,0,1-6.4,4c-2.27,1.1-4.37,3.1-6.88,3.67S52.6,83.24,50,83.24ZM68.74,50c0,1.1-.14,2.58-1.24,2.58-3.5,0-3.5-1.39-7-1.39s-3.49,1.43-7,1.43-3.5-.22-7-.22-3.5-.9-7-.9-3.5,1.14-7,1.14c-1.1,0-3-1.54-3-2.64s1.9-1.28,3-1.28c3.5,0,3.5-1.42,7-1.42s3.49.86,7,.86,3.5-.18,7-.18,3.5.37,7,.37,3.5-1.16,7-1.16C68.6,47.19,68.74,48.9,68.74,50Zm0,12c0,1.1-.14,2.58-1.24,2.58-3.5,0-3.5-1.39-7-1.39s-3.49,1.43-7,1.43-3.5-.22-7-.22-3.5-.9-7-.9-3.5,1.14-7,1.14c-1.1,0-3-1.54-3-2.64s1.9-1.28,3-1.28c3.5,0,3.5-1.42,7-1.42s3.49.86,7,.86,3.5-.18,7-.18,3.5.37,7,.37,3.5-1.16,7-1.16C68.6,59.19,68.74,60.9,68.74,62Zm0-24c0,1.1-.14,2.58-1.24,2.58-3.5,0-3.5-1.39-7-1.39s-3.49,1.43-7,1.43-3.5-.22-7-.22-3.5-.9-7-.9-3.5,1.14-7,1.14c-1.1,0-3-1.54-3-2.64s1.9-1.28,3-1.28c3.5,0,3.5-1.42,7-1.42s3.49.86,7,.86,3.5-.18,7-.18,3.5.37,7,.37,3.5-1.16,7-1.16C68.6,35.19,68.74,36.9,68.74,38Z"/></g><rect class="cls-1" x="5" y="5" width="90" height="90"/></g></svg>