<svg xmlns="http://www.w3.org/2000/svg" viewBox="0 0 1 1"><defs><style>.cls-1{fill:none;}</style></defs><g id="Guides"><g id="Microphone"><path d="M53,76.16c-1.25,4.88-2.88,5,0,9.19,2,2.87,2.56-.07,6.06-.07s3.5,1.9,7,1.9c1.1,0,1.85-.28,1.85.82S67.1,90.33,66,90.33c-4,0-4-1.45-8-1.45s-4,1.61-8,1.61-4-1-8-1-4-.29-8-.29c-1.1,0-2.58-.08-2.58-1.18S32.9,86,34,86c3.5,0,3.5-.3,7-.3s4.69,2.94,6.69.06c2.87-4.14,2.5-5.22,1.25-10.1a31.7,31.7,0,0,1-8.36-1.81c-2.43-1-4.16-2.76-6.17-4.37s-5-2.35-6.47-4.49a27.5,27.5,0,0,1-3.73-7.07,28.08,28.08,0,0,1-1-7.94c0-1.1,1.7-1.5,2.8-1.5s1.63.4,1.63,1.5a22.92,22.92,0,0,0,1.06,6.92,23.47,23.47,0,0,0,3,6.37,23.75,23.75,0,0,0,5,5,23.14,23.14,0,0,0,6.4,2.93c2.14.7,4.53-.36,6.9-.36s4.79,1.16,6.93.46a23.12,23.12,0,0,0,6.39-3c1.87-1.36,2.55-4,3.9-5.83a20.26,20.26,0,0,0,2.74-6c.69-2.14,2.52-4.11,2.52-6.48,0-1.1.42-2.64,1.52-2.64S76.09,48.9,76.09,50c0,2.66.19,5.44-.56,7.86A27,27,0,0,1,72,65c-1.46,2.14-4.29,3-6.31,4.65s-3.35,4.53-5.78,5.49S55.59,76,53,76.16ZM64,25c0,4.16.63,4.16.63,8.33S64,37.5,64,41.66s1.7,4.17,1.7,8.34a16.69,16.69,0,0,1-1.86,8,17,17,0,0,1-5.93,5.69c-2.21,1.28-5.17.83-7.9.83a14.13,14.13,0,0,1-7.32-1.84,14.28,14.28,0,0,1-5.32-5.37A14,14,0,0,1,35.61,50c0-4.16,0-4.16,0-8.33s-.3-4.17-.3-8.33S33.89,29.17,33.89,25c0-2.73,2.22-5.07,3.5-7.28a14.09,14.09,0,0,1,5.45-5.13C45.05,11.31,47.27,9.3,50,9.3a16.69,16.69,0,0,1,8,1.84c2.28,1.32,3.26,4.32,4.58,6.6S64,22.27,64,25Zm-4,0A9,9,0,0,0,57,18c-2-2-3.93-3.32-7-3.32s-6.61-.3-8.6,1.69S38.85,22,38.85,25c0,4.16.48,4.16.48,8.33s-1.44,4.17-1.44,8.33,1.6,4.17,1.6,8.34c0,3,.37,6.16,2.36,8.15A12.28,12.28,0,0,0,50,61.82c3,0,5.38-2.46,7.37-4.45S61,53,61,50c0-4.16-.3-4.16-.3-8.33a69.81,69.81,0,0,0-.1-8.31C60.29,29.17,60,29.17,60,25Z"/></g><rect class="cls-1" x="5" y="5" width="90" height="90"/></g></svg>