<svg xmlns="http://www.w3.org/2000/svg" viewBox="0 0 100 100"><defs><style>.cls-1{fill:none;}</style></defs><g id="Guides"><g id="Minus"><path d="M71.17,50c0,1.1-.07,2.53-1.17,2.53-3.33,0-3.33.41-6.66.41S60,51.39,56.67,51.39s-3.33,1-6.66,1S46.68,51,43.34,51,40,52.36,36.67,52.36s-3.33.58-6.67.58c-1.1,0-1.62-1.84-1.62-2.94s.52-3.07,1.62-3.07c3.33,0,3.33,1.39,6.66,1.39h6.67c3.33,0,3.33.55,6.66.55s3.33-1.41,6.67-1.41,3.33.47,6.67.47S66.66,47,70,47C71.1,47,71.17,48.9,71.17,50Zm16.24,0a37.83,37.83,0,0,1-.23,7.4,36.69,36.69,0,0,1-2.33,7,38.75,38.75,0,0,1-3.06,6.81c-1.39,2.07-3.46,3.58-5.22,5.33s-3.28,3.79-5.36,5.18-4.64,1.7-7,2.66S60,87.55,57.57,88s-5,0-7.57,0a39.3,39.3,0,0,1-7.48-.41c-2.47-.49-4.53-2.16-6.8-3.1A37.16,37.16,0,0,1,29,81.41c-2.07-1.39-3.33-3.57-5.09-5.33s-4.08-2.93-5.47-5-3.4-3.89-4.36-6.2.05-5.18-.43-7.65-2-4.69-2-7.23a38.4,38.4,0,0,1,2.63-14.81c1-2.31,3-4.07,4.41-6.12A38.78,38.78,0,0,1,23,23a38.8,38.8,0,0,1,6-4.38,37.32,37.32,0,0,1,6.56-3.39,36.41,36.41,0,0,1,7.08-2c2.4-.48,4.78-1.83,7.32-1.83a40.71,40.71,0,0,1,7.61.33c2.48.49,4.62,2.32,6.89,3.26s4.85,1.61,6.91,3,4.45,2.67,6.21,4.42a41,41,0,0,1,4.48,6.17c1.37,2.06,1.9,4.66,2.86,7a37.74,37.74,0,0,1,2.35,7.06C87.79,45,87.41,47.46,87.41,50Zm-2.59,0c0-2.6-1.62-5-2.18-7.45a32.54,32.54,0,0,0-2.84-6.9c-1.11-2.3-1.18-5.23-2.76-7.21s-4.12-3.1-6.11-4.69-3.46-4.13-5.77-5.24S60,17.77,57.49,17.2s-4.89-.28-7.49-.28-5.22-1-7.65-.44S38,19.22,35.71,20.32s-5.12,1.28-7.1,2.86a35.29,35.29,0,0,0-5.42,5.44c-1.58,2-3.47,4-4.58,6.26S18,40,17.38,42.55A33,33,0,0,0,16.08,50c0,2.6,1.19,4.91,1.75,7.34a31.2,31.2,0,0,0,2.53,6.93c1.11,2.3.73,5.54,2.31,7.52a36.1,36.1,0,0,0,5.63,5.42A35.58,35.58,0,0,0,35,81.07c2.27,1.1,5,1.1,7.49,1.67s4.87,2,7.47,2,5-1.56,7.45-2.12,5.51.08,7.78-1,3.38-4.23,5.36-5.81a33.43,33.43,0,0,0,5.61-4.93c1.58-2,4-3.53,5.07-5.83s.47-5.18,1-7.69S84.82,52.6,84.82,50Z"/></g><rect class="cls-1" x="5" y="5" width="90" height="90"/></g></svg>