<svg xmlns="http://www.w3.org/2000/svg" viewBox="0 0 1 1"><defs><style>.cls-1{fill:none;}</style></defs><g id="Guides"><g id="More Details 3" data-name="More Details 3"><path d="M50,12.47a37,37,0,0,0-7.25,1.09c-2.47.49-5,.3-7.33,1.25a38.2,38.2,0,0,0-6.62,3.46,39,39,0,0,0-5.94,4.59,39.46,39.46,0,0,0-4.94,5.71c-1.37,2.05-1.84,4.67-2.8,7S12.69,40,12.2,42.48,13,47.46,13,50a35.8,35.8,0,0,0,.75,7.22c.49,2.47.08,5.11,1,7.38s1.69,4.86,3.06,6.91,3.94,3.24,5.69,5,3.11,4,5.19,5.4,4.77,1.51,7.08,2.46,4.32,2.59,6.79,3.08a38.11,38.11,0,0,0,7.45.82,38.58,38.58,0,0,0,7.41-1c2.47-.49,4.59-1.82,6.87-2.76A36.58,36.58,0,0,0,70.7,81c2.07-1.38,5-1.8,6.71-3.56s2.39-4.5,3.78-6.57A37.32,37.32,0,0,0,85,64.48c.94-2.28,2.76-4.41,3.25-6.88s-.75-5.06-.75-7.6a37.49,37.49,0,0,0-.34-7.38c-.49-2.47-1.93-4.53-2.87-6.8A36.15,36.15,0,0,0,81,29.29a36.41,36.41,0,0,0-4.37-5.91,36.89,36.89,0,0,0-5.56-4.89,38.27,38.27,0,0,0-6.41-3.86c-2.27-.94-5-.48-7.42-1A36.88,36.88,0,0,0,50,12.47Zm0,70.44a32.5,32.5,0,0,1-7.42-.38,31.56,31.56,0,0,1-6.84-2.91c-2.3-1.11-5.13-1.24-7.11-2.82a34.66,34.66,0,0,1-5.32-5.51c-1.59-2-3.52-3.91-4.63-6.21s-1.35-5-1.92-7.49A34,34,0,0,1,16.23,50,34.09,34.09,0,0,1,17,42.46a33.74,33.74,0,0,1,2.5-7.16c1.11-2.3,1.59-5.13,3.18-7.11s4.53-2.72,6.52-4.31,3.32-4.32,5.62-5.43a35.41,35.41,0,0,1,7.45-2.39A35.42,35.42,0,0,1,50,15.54c2.6,0,4.94,1.6,7.37,2.16A31.88,31.88,0,0,1,64.46,20c2.31,1.11,4.79,1.84,6.76,3.42a34.54,34.54,0,0,1,5.46,5.35,33.87,33.87,0,0,1,3.83,6.58c1.1,2.27,3.11,4.38,3.68,6.89s-1.28,5.2-1.28,7.8.72,5.11.17,7.55-1,5.13-2,7.4a35.42,35.42,0,0,1-3.86,6.72c-1.59,2-4.38,2.84-6.37,4.43s-3.62,3.71-5.92,4.82-5.06.57-7.57,1.15A32.15,32.15,0,0,1,50,82.91Zm0-39.76c-1.93,0-3.14,1.18-4.41,2.44S43.1,48.07,43.1,50a7.16,7.16,0,0,0,1.79,5.11,7.34,7.34,0,0,0,5.11,2A7.2,7.2,0,0,0,55,55c1.27-1.26,1-3.1,1-5s.62-4.09-.65-5.36S51.93,43.15,50,43.15Zm0,8.76c-1.65,0-2.37-.26-2.37-1.91s.72-1.88,2.37-1.88,3.29.23,3.29,1.88S51.65,51.91,50,51.91Zm20-8.76c-1.93,0-3.14,1.18-4.41,2.44S63.1,48.07,63.1,50a7.16,7.16,0,0,0,1.79,5.11,7.34,7.34,0,0,0,5.11,2A7.2,7.2,0,0,0,75,55c1.27-1.26,1-3.1,1-5s.62-4.09-.65-5.36S71.93,43.15,70,43.15Zm0,8.76c-1.65,0-2.37-.26-2.37-1.91s.72-1.88,2.37-1.88,3.29.23,3.29,1.88S71.65,51.91,70,51.91ZM30,43.15c-1.93,0-3.14,1.18-4.41,2.44S23.1,48.07,23.1,50a7.16,7.16,0,0,0,1.79,5.11,7.34,7.34,0,0,0,5.11,2A7.2,7.2,0,0,0,35,55c1.27-1.26,1-3.1,1-5s.62-4.09-.65-5.36S31.93,43.15,30,43.15Zm0,8.76c-1.65,0-2.37-.26-2.37-1.91s.72-1.88,2.37-1.88,3.29.23,3.29,1.88S31.65,51.91,30,51.91Z"/></g><rect class="cls-1" x="5" y="5" width="90" height="90"/></g></svg>