<svg xmlns="http://www.w3.org/2000/svg" viewBox="0 0 1 1"><defs><style>.cls-1{fill:none;}</style></defs><g id="Guides"><g id="More Details 4" data-name="More Details 4"><path d="M50,11.16c-2.54,0-4.9,1.69-7.3,2.16a35.86,35.86,0,0,0-7,2.23,36.42,36.42,0,0,0-6.37,3.56C27.29,20.5,24.77,21.26,23,23a38.14,38.14,0,0,0-4.63,5.86,39.08,39.08,0,0,0-3.85,6.43,38.75,38.75,0,0,0-2.16,7.21A38.33,38.33,0,0,0,11.6,50c0,2.54,1,5,1.46,7.35a37.21,37.21,0,0,0,2.35,7A36.77,36.77,0,0,0,19,70.74a36.22,36.22,0,0,0,4.86,5.43c1.76,1.76,3,4.07,5,5.45s4.55,1.87,6.86,2.83,4.37,2.41,6.84,2.9a38.7,38.7,0,0,0,7.43.59c2.54,0,4.83-1.13,7.23-1.6s5.27.27,7.54-.67a38.5,38.5,0,0,0,6.44-3.93A39.35,39.35,0,0,0,77,77a39.24,39.24,0,0,0,4.56-5.91c1.37-2.06,1.89-4.51,2.85-6.83s3.4-4.16,3.88-6.63-1-5.07-1-7.61a36.29,36.29,0,0,0-.77-7.27,36.67,36.67,0,0,0-2-7,37.1,37.1,0,0,0-3.29-6.58c-1.39-2.07-2.25-4.61-4-6.36s-4.34-2.55-6.41-3.94-3.67-3.71-6-4.67-5-.54-7.51-1S52.54,11.16,50,11.16Zm0,72c-2.6,0-5.27,1.14-7.7.59a34.63,34.63,0,0,1-7.36-2.47,35.41,35.41,0,0,1-6.66-4c-2-1.59-3.14-4.16-4.73-6.15a33.87,33.87,0,0,1-4.17-6.34,33.39,33.39,0,0,1-2.17-7.27,32.41,32.41,0,0,1,0-15c.57-2.51.72-5.15,1.82-7.42A35.11,35.11,0,0,1,23,28.45a35.57,35.57,0,0,1,5.41-5.56,35.4,35.4,0,0,1,6.43-4.41c2.27-1.1,5.11-1,7.62-1.6s5-1.6,7.56-1.6,5.12,1.09,7.55,1.64a33.27,33.27,0,0,1,7.22,2.4c2.31,1.11,5,1.78,7,3.36s2.73,4.51,4.32,6.5a33.41,33.41,0,0,1,4.37,6.14A33.73,33.73,0,0,1,83,42.47,34,34,0,0,1,84.08,50c0,2.6.4,5.31-.16,7.74s-3.11,4.3-4.2,6.57-1,5.34-2.6,7.32a35.76,35.76,0,0,1-5.46,5.54,35.48,35.48,0,0,1-6.64,4,34.56,34.56,0,0,1-7.36,2.36C55.22,84.11,52.6,83.16,50,83.16Zm-11-30c-1.93,0-3.25,2.06-4.52,3.32A5.81,5.81,0,0,0,32.72,61a5.53,5.53,0,0,0,1.94,4.34c1.26,1.27,2.41,2.82,4.34,2.82A7.1,7.1,0,0,0,44,66a7.32,7.32,0,0,0,2.42-5,7.73,7.73,0,0,0-2.17-5.2C42.93,54.54,40.93,53.16,39,53.16Zm0,10c-1.65,0-3.61-.51-3.61-2.16A4.28,4.28,0,0,1,39,57.28c1.65,0,3.85,2.07,3.85,3.72S40.65,63.16,39,63.16Zm.08-31.92c-1.93,0-3.25,2.06-4.51,3.33a5.75,5.75,0,0,0-1.77,4.51,5.56,5.56,0,0,0,1.94,4.35c1.27,1.26,2.41,2.81,4.34,2.81A7.18,7.18,0,0,0,44,44a7.4,7.4,0,0,0,2.41-5,7.64,7.64,0,0,0-2.17-5.19C43,32.62,41,31.24,39.08,31.24Zm0,10c-1.65,0-3.61-.51-3.61-2.16a4.28,4.28,0,0,1,3.61-3.72c1.65,0,3.86,2.07,3.86,3.72S40.73,41.24,39.08,41.24ZM60.94,53.1c-1.93,0-3.25,2-4.52,3.32a5.78,5.78,0,0,0-1.76,4.52,5.56,5.56,0,0,0,1.93,4.34c1.27,1.27,2.42,2.82,4.35,2.82a7.12,7.12,0,0,0,5-2.21,7.34,7.34,0,0,0,2.42-5,7.7,7.7,0,0,0-2.18-5.2C64.87,54.47,62.87,53.1,60.94,53.1Zm0,10c-1.65,0-3.61-.51-3.61-2.16a4.28,4.28,0,0,1,3.61-3.72c1.65,0,3.85,2.07,3.85,3.72S62.59,63.1,60.94,63.1ZM61,31.16c-1.93,0-3.25,2.06-4.52,3.32A5.81,5.81,0,0,0,54.72,39a5.53,5.53,0,0,0,1.94,4.34c1.26,1.27,2.41,2.82,4.34,2.82A7.1,7.1,0,0,0,66,44a7.32,7.32,0,0,0,2.42-5,7.73,7.73,0,0,0-2.17-5.2C64.93,32.54,62.93,31.16,61,31.16Zm0,10c-1.65,0-3.61-.51-3.61-2.16A4.28,4.28,0,0,1,61,35.28c1.65,0,3.85,2.07,3.85,3.72S62.65,41.16,61,41.16Z"/></g><rect class="cls-1" x="5" y="5" width="90" height="90"/></g></svg>