<svg xmlns="http://www.w3.org/2000/svg" viewBox="0 0 100 100"><defs><style>.cls-1{fill:none;}</style></defs><g id="Guides"><g id="Music"><path d="M87.65,12.21c-.47-.38-.64-2.18-1.23-2.06-3.42.71-3.23,1.66-6.65,2.37s-3.3,1.36-6.72,2.07-3.76-.88-7.19-.17-3,2.61-6.46,3.33-3.76-.89-7.19-.17-3.25,1.59-6.68,2.3-3.51.33-6.94,1.05c-.94.19-.46,1.12-.46,2.07,0,3.4-.93,3.4-.93,6.8s-.8,3.41-.8,6.81S36,40,36,43.41s1.74,3.4,1.74,6.81.13,3.4.13,6.81-.68,3.33-1.54,6.62a11.54,11.54,0,0,0-4.47-2.95C30,59.89,28.14,59,26,59c-2.73,0-5.72,0-7.93,1.32S14.29,64.21,13,66.48,10.37,71.27,10.37,74s2.15,4.83,3.43,7,2,5.43,4.24,6.74A16.82,16.82,0,0,0,26,90c2.73,0,5.16-1.94,7.37-3.22a14.37,14.37,0,0,0,5.07-5.58C39.72,79,41,76.73,41,74c0-3.53.87-3.53.87-7.07s-.42-3.53-.42-7.06.57-3.54.57-7.08-2.09-3.53-2.09-7.07-2-5.08.29-7.78,4.33-.8,8-1.56,3.91.42,7.58-.35l7.32-1.56c3.67-.77,3.64-.91,7.31-1.67S74,31.73,77.66,31s3.81-3.2,6.6-.69c3,2.72-.27,3.24-.27,7.3s.62,4.07.62,8.13.47,4-.37,8a11.57,11.57,0,0,0-4.32-3.22c-1.84-.82-3.78-1.9-5.92-1.9-2.73,0-5.22,1.29-7.43,2.57s-4.78,2.79-6.1,5.06A16.58,16.58,0,0,0,57.92,64c0,2.73,1.69,5.36,3,7.57s3.76,3.37,6,4.69A13.42,13.42,0,0,0,74,78.37c2.73,0,5.65.53,7.86-.75a16.73,16.73,0,0,0,5.9-5.68,16.56,16.56,0,0,0,2-7.94c0-3.64-1.07-3.64-1.07-7.28s1.23-3.64,1.23-7.28.24-3.65.24-7.29-1.81-3.64-1.81-7.29.18-3.64.18-7.28-.1-3.65-.1-7.29.77-3.64.77-7.29C89.2,12.4,88.11,12.59,87.65,12.21ZM26,86c-3,0-5.14-2.87-7.13-4.86S14.94,77,14.94,74s.79-6.29,2.78-8.28S23,63.92,26,63.92s6.5-.41,8.49,1.59S36.38,71,36.38,74,36,80,34,82,29,86,26,86ZM74,76c-3,0-5.14-2.87-7.13-4.86S62.94,67,62.94,64s.79-6.29,2.78-8.28S71,53.92,74,53.92s6.5-.41,8.49,1.59S84.38,61,84.38,64,84,70,82,72,77,76,74,76Zm11.83-50.1c-2,3.16-4.68-.66-8.35.11S74,27.71,70.35,28.48s-3.53,1.41-7.2,2.18-4-.84-7.67-.07S52.21,33.25,48.54,34s-4.61,2.95-7.07.13c-3.27-3.73-3.38-5.48-.7-9.66,2-3.15,3.92-.5,7.58-1.27s3.41-2,7.08-2.75,3.86.14,7.52-.62,3.83,0,7.5-.75,3.76-.33,7.43-1.1,4-4.69,7.4-3.19C90.3,17,88.5,21.71,85.83,25.89Z"/></g><rect class="cls-1" x="5" y="5" width="90" height="90"/></g></svg>