<svg xmlns="http://www.w3.org/2000/svg" viewBox="0 0 1 1"><defs><style>.cls-1{fill:none;}</style></defs><g id="Guides"><g id="No Volume" data-name="No Volume"><path d="M87.45,57.55c.78.78,0,1.3-.82,2.08-.39.4-.12,1.61-.63,1.61s-.88-.58-1.27-1c-3.79-3.79-2.37-7.75-7.73-7.75s-4.31,3.58-8.11,7.37c-.39.39-.38,1.8-.89,1.8s-.35-1.56-.74-1.95c-.78-.78-.72-.63.07-1.41,3.79-3.8,6.58-3,6.58-8.33s-3.79-3.53-7.58-7.33c-.78-.78-1.11-2.88-.32-3.66s2.49-.07,3.27.71c3.79,3.8,2.36,8.54,7.72,8.54s4.14-4.53,7.94-8.32c.78-.78,1.2-.64,2,.15s2,2.29,1.24,3.07c-3.79,3.8-7.4,1.5-9.09,6.59S83.66,53.76,87.45,57.55ZM61.05,16c0,3.78-1.15,3.78-1.15,7.55s-.09,3.78-.09,7.56.63,3.77.63,7.55S59,42.43,59,46.21s1,3.78,1,7.56,0,3.78,0,7.55-.46,3.78-.46,7.56,1,3.78,1,7.56S59,80.22,59,84c0,.81.13.65-.61,1-.25.1-.14,1.21-.4,1.21-.52,0-.29-1.11-.67-1.5-2.3-2.3-2.8-1.8-5.1-4.1S49,79.23,46.67,76.93s-1-3.6-3.31-5.9-1.91-3.53-5-4.64C34.61,65,34.14,68,30.12,68s-4-.77-8.06-.77-4,.79-8.06.79c-1.1,0-3-2-3-3.06,0-3.75,1.88-3.75,1.88-7.5S11.7,53.75,11.7,50V42.5c0-3.75,1.3-3.75,1.3-7.5,0-1.1-.1-2.24,1-2.24,4,0,4,.9,8.05.9s4-.38,8.06-.38,4.61,2,8.39.64c3.06-1.11,1.92-3.26,4.22-5.56s2.64-2,4.94-4.27,1.43-3.18,3.73-5.48,3.19-1.42,5.49-3.73c.57-.58,1.43-1.73,2.18-1.42A4.06,4.06,0,0,1,61.05,16ZM37,37c-2.57-2.39-3.52.56-7,.56s-3.5-.86-7-.86-3.88-1.47-6.44.91c-2.39,2.21-.74,2.65-.74,5.9S17,46.74,17,50s-1,3.26-1,6.51-1.86,3.71.52,5.92c2.56,2.38,3,1.17,6.46,1.17s3.5.18,7,.18,4,1.18,6.6-1.2c2.38-2.21-.4-2.82-.4-6.06s1.91-3.25,1.91-6.5-1.49-3.26-.79-6.43C38.08,40.16,39.4,39.2,37,37ZM56,20.88c-3.21-1.48-3.25,1.68-5.75,4.18S48.67,28.5,46.17,31s-4,1.49-5.35,4.76-.12,3.61-.12,7.15-.43,3.54-.43,7.08,1.41,3.55,1.41,7.09-2.9,4.17-1.55,7.45,2.64,2.87,5.14,5.37,3.41,1.58,5.91,4.08,1.46,6.34,4.67,4.86-.66-3.31-.66-7,1-3.64,1-7.29.89-3.64.89-7.29-.59-3.64-.59-7.29.21-3.65.21-7.29S55,39.07,55,35.43s.92-3.57,1.81-7.11C57.75,24.39,59.29,22.4,56,20.88Z"/></g><rect class="cls-1" x="5" y="5" width="90" height="90"/></g></svg>