<svg xmlns="http://www.w3.org/2000/svg" viewBox="0 0 100 100"><defs><style>.cls-1{fill:none;}</style></defs><g id="Guides"><g id="Notification"><path d="M69.33,20.66c-.49-1.45,1.21-1.51,1.74-2.94a2.45,2.45,0,0,0-1.32-2.89c-1-.37-2.94.2-3.31,1.23-.53,1.42.67,1.92-.63,2.7-2.54-.7-4.86,0-7.39,0s-5.47-1-7.89-.19a28.14,28.14,0,0,0-6.94,3.86,27.6,27.6,0,0,0-5.82,5.35,27,27,0,0,0-3.91,6.92c-1.09,3,.4,3.51-.69,6.47s-2.53,2.43-3.62,5.38,1.44,4.53-.72,6.83-3.64.81-6.65,2.19-2.93,1.56-5.93,2.95c-1.6.74-1.87,3.52-.19,4.12,3.62,1.3,3.61,1.32,7.23,2.62s4.18-.23,7.8,1.07,3.36,1.78,6.43,4.11A9.64,9.64,0,0,0,39,77.28c1.25,2.1,3.83,3,6.32,3.85a10.15,10.15,0,0,0,7.13.38c2.37-.84,4.48-1.4,5.81-3.63,3.85.17,3.31,1.46,6.93,2.76s4.14-.14,7.76,1.16,3.75,1,7.37,2.26c0,0-.52,1.47-.51,1.47,1,.37,2-.93,2.43-2,.22-.59-.42-.64-.73-1.14-1.4-2.91,0-3.56-1.43-6.48s-4-2.37-4.12-5.59,2.49-2.84,3.57-5.8,1.59-2.78,2.68-5.73.22-3.28,1.31-6.24c.91-2.47,2.27-5,2.4-7.47s-.69-5.3-1.33-7.75-1.17-5.3-2.52-7.48S77.83,26.72,75.88,25A27.26,27.26,0,0,0,69.33,20.66Zm-23,57.85a7,7,0,0,1-4.38-7.09c3.31-.37,3,1.17,6.15,2.3s3.56,0,5.88,2.45A6.53,6.53,0,0,1,46.29,78.51ZM80.14,51.39c-1.14,3.08-1.82,2.83-3,5.91S76,60.37,74.85,63.45s-1.5,3-2.64,6a3.27,3.27,0,0,0,.31,1.93c2,4.16,6.54,4,4.87,8.34-1.22,3.11-3.34-2.28-6.49-3.41s-3.26-.83-6.41-2S61.39,73.1,58.24,72c-4.21-1.52-4.19-1.6-8.4-3.11s-4.75,0-9-1.53c-3.15-1.14-2.63-2.58-5.78-3.71s-3.74.51-6.89-.62-7.12,0-6-3.11c1.51-4.38,4.15-2.14,8.35-4.08.47-.22,1.64-.15,1.83-.64,1.13-3.09,1.15-3.08,2.29-6.16s-.4-3.65.74-6.74,2.76-2.49,3.9-5.57a20.38,20.38,0,0,1,2.9-6c1.44-1.81,2.42-4.19,4.32-5.44A23.52,23.52,0,0,1,53,22.71c2.19-.61,4.52.18,6.84.27a20.42,20.42,0,0,1,6.39,1.44c2.21.8,4.86.54,6.62,1.89a23.5,23.5,0,0,1,5.09,4.85c1.29,1.89.9,4.65,1.54,6.83s2,4.27,1.9,6.57A22.38,22.38,0,0,1,80.14,51.39Z"/></g><rect class="cls-1" x="5" y="5" width="90" height="90"/></g></svg>