<svg xmlns="http://www.w3.org/2000/svg" viewBox="0 0 100 100"><defs><style>.cls-1{fill:none;}</style></defs><g id="Guides"><g id="Padlock"><path d="M83,39.19c-4.5,0-4.6.78-8.92-.46,0-2.59.11-5-.65-7.34s-3.05-4.12-4.52-6.13a22.65,22.65,0,0,0-5.35-4.93c-2-1.47-3.83-3-6.25-3.84S52.59,14.2,50,14.2s-5,1.39-7.36,2.15S37.51,17.56,35.49,19a25.37,25.37,0,0,0-5.15,5.68,24.25,24.25,0,0,0-3.27,6.84,26.22,26.22,0,0,0-1,7.77C21.77,40.57,21.5,40,17,40c-1.1,0-1.5-.08-1.5,1,0,3.5.13,3.5.13,7s.38,3.5.38,7-.11,3.5-.11,7-.09,3.5-.09,7-1.15,3.5-1.15,7-.51,3.51-.51,7c0,1.1,1.75,1,2.85,1,3.66,0,3.66.73,7.33.73s3.66,0,7.33,0,3.66-.19,7.33-.19S42.66,84,46.32,84s3.67.59,7.33.59,3.67.17,7.34.17,3.67.74,7.33.74,3.67-.69,7.34-.69,3.67.74,7.34.74A3.18,3.18,0,0,0,85.67,83c0-3.5.25-3.5.25-7s-1.84-3.5-1.84-7,.41-3.5.41-7,.05-3.5.05-7,1.17-3.5,1.17-7S84,44.5,84,41C84,39.9,84.1,39.19,83,39.19ZM50,18.13c2.71,0,5.32,1.36,7.67,2.34a20.1,20.1,0,0,1,6.54,4.32c1.84,1.84,2.52,4.42,3.54,6.86s2.35,4.88,2.35,7.59c-3.09,1.25-3.43.08-6.76.08S60,38,56.67,38,53.34,38,50,38s-3.33.57-6.67.57-3.33-.12-6.67-.12-3.74,2.15-6.83.89c0-2.7,1.57-5.31,2.55-7.67a18.67,18.67,0,0,1,4-6.37,18.66,18.66,0,0,1,6.36-4C45.06,20.4,47.29,18.13,50,18.13ZM81.46,81.42c-2.31,2.55-3.9-1.06-7.34-1.06s-3.45.83-6.89.83-3.44-.42-6.89-.42-3.44,1.17-6.88,1.17-3.45-.28-6.89-.28-3.45-.46-6.89-.46-3.44.23-6.89.23S29.34,80.1,25.9,80.1s-4.43,3.32-6.75.77c-2.55-2.82-.93-3.67-.93-7.47s.76-3.8.76-7.6-.05-3.8-.05-7.59-.53-3.81-.53-7.61-1.24-4.13,1.32-7c2.31-2.55,2.72.2,6.16.2s3.45-.9,6.89-.9,3.44,1,6.89,1S43.1,43,46.54,43,50,43,53.43,43s3.45-.19,6.89-.19,3.44.9,6.89.9,3.45-.51,6.89-.51,4.16-2.39,6.47.17c2.56,2.81-.36,3.41-.36,7.21S82,54.4,82,58.2s-.37,3.8-.37,7.59-1.17,3.84-.3,7.54C82.28,77.48,84,78.6,81.46,81.42ZM50,53.94a5.56,5.56,0,0,0-4.48,1.58C44.25,56.78,43.2,58.07,43.2,60a6.94,6.94,0,0,0,5.18,6.5c1,1.87-1.28,2.35-1.28,4.5,0,1.1,1.8,2.2,2.9,2.2s1.22-1.1,1.22-2.2c0-2.15-.28-2.43.77-4.3A7,7,0,0,0,56.93,60c0-1.93-1.14-3.26-2.41-4.52S51.93,53.94,50,53.94Zm0,9.68c-1.65,0-2.36-2-2.36-3.62s.71-3.19,2.36-3.19A3,3,0,0,1,52.77,60C52.77,61.65,51.65,63.62,50,63.62Z"/></g><rect class="cls-1" x="5" y="5" width="90" height="90"/></g></svg>