<svg xmlns="http://www.w3.org/2000/svg" viewBox="0 0 100 100"><defs><style>.cls-1{fill:none;}</style></defs><g id="Guides"><g id="Phone"><path d="M66,10.76c-4,0-4-.28-8-.28S54,11,50,11s-4,.21-8,.21-4-.6-8-.6c-3.3,0-6.86,3.14-6.86,6.44,0,3.66,1,3.66,1,7.33S28,28,28,31.66s.62,3.66.62,7.33-.84,3.67-.84,7.33S28,50,28,53.65s-.35,3.67-.35,7.34.73,3.67.73,7.33-.8,3.67-.8,7.34.33,3.67.33,7.34c0,3.3,2.83,6.64,6.13,6.64,4,0,4-1.1,8-1.1s4,1.58,8,1.58,4-1.26,8-1.26S62,88,66,88c3.3,0,6.74-1.7,6.74-5V75.67c0-3.66-.57-3.66-.57-7.33s-1-3.66-1-7.33-.26-3.67-.26-7.33,1.95-3.67,1.95-7.33-.16-3.67-.16-7.34-1.07-3.67-1.07-7.33S72.7,28,72.7,24.34s-.9-3.67-.9-7.34A6.06,6.06,0,0,0,66,10.76ZM67.26,83c0,1.08-.18,2.81-1.26,2.81-4,0-4-.39-8-.39s-4,0-8,0-4,.47-8,.47-4-1.76-8-1.76c-1.08,0-1,0-1-1.08,0-2-2.69-2.89-.94-3.86,3.14-1.75,3.52-.22,7.12-.22s3.59-1,7.19-1,3.6.36,7.2.36,3.6,1.29,7.21,1.29,3.45-.64,6.89.42C69.65,80.6,67.26,81,67.26,83Zm.46-8.28c-2.55,2.54-3.32-.26-6.92-.26s-3.59,0-7.19,0-3.6-.3-7.2-.3-3.6,1.58-7.21,1.58-4,1.18-6.54-1.35.41-2.91.41-6.48S32,64.29,32,60.72s-.26-3.57-.26-7.14.9-3.57.9-7.14-.55-3.57-.55-7.14-.16-3.58-.16-7.15-3.25-5.41-.72-7.93,4.38-.24,8-.24,3.59.25,7.19.25,3.6,1.1,7.2,1.1S57.19,24,60.8,24s4.25-1.18,6.81,1.36-.3,3.17-.3,6.74,0,3.57,0,7.14,1.17,3.57,1.17,7.14-1,3.57-1,7.14,1.15,3.57,1.15,7.14-1,3.55-.26,7.06S70.26,72.2,67.72,74.72Zm.59-53.16c-3.15,1.75-3.91.25-7.51.25s-3.59-1.62-7.19-1.62S50,20,46.41,20s-3.6,1.51-7.21,1.51S35,23,31.89,21.21c-1.75-1,.31-2.21.31-4.21,0-1.08.72-3,1.8-3,4,0,4,.72,8,.72s4,.85,8,.85S54,16,58,16s4-2,8-2c1.08,0,2.47,1.7,2.47,2.78C69.48,19.08,70.06,20.59,68.31,21.56Z"/></g><rect class="cls-1" x="5" y="5" width="90" height="90"/></g></svg>