<svg xmlns="http://www.w3.org/2000/svg" viewBox="0 0 1 1"><defs><style>.cls-1{fill:none;}</style></defs><g id="Guides"><g id="Photo"><path d="M88.5,73.81a58.31,58.31,0,0,0,.15-6.87c0-3.41-1.52-3.41-1.52-6.82s1.6-3.41,1.6-6.82.29-3.41.29-6.82-1.65-3.41-1.65-6.82-.48-3.42-.48-6.83,1.44-3.42,1.44-6.83c0-1.1-1.26-2.93-2.36-2.93-3.6,0-3.6,2-7.2,2s-3.59-1.71-7.19-1.71-3.6,1.71-7.19,1.71-3.6-.49-7.2-.49-3.6.08-7.19.08-3.6-1.4-7.2-1.4-3.6,1.67-7.19,1.67-3.6-.54-7.2-.54-3.6-.91-7.21-.91-3.6.13-7.2.13c-1.1,0-1.2,1.29-1.2,2.39,0,3.42-1.5,3.42-1.5,6.85s1,3.42,1,6.85-1.18,3.42-1.18,6.85S12.59,50,12.59,53.4s-1.35,3.42-1.35,6.85.33,3.43.33,6.86S11,70.54,11,74c0,2.48,4.37,1.29,3,1.29,3.6,0,3.6.19,7.2.19s3.59,0,7.19,0,3.59,0,7.19,0,3.6,1.49,7.2,1.49,3.59-.06,7.19-.06,3.6-.53,7.2-.53,3.59.34,7.19.34S68,76,71.56,76s3.6-.86,7.2-.86,3.61.1,7.21.1c0,0,0,1.69,0,1.69C89,76.9,88.16,71.41,88.5,73.81Zm-70-2.09c-1.65-3.21,2.25-2.21,4.45-5.07s1-3.8,3.17-6.66,3.47-1.9,5.66-4.77,2.43-2.69,4.62-5.56,0-7.09,3.58-7c3.77.11,3.13,2.94,5.43,6s1.15,3.88,3.45,6.89,1.85,3.35,4.15,6.36,3.89,1.79,6.19,4.8c0,0-1.35,1-1.35,1.06,1.77,2.31,6.72,2.65,4.88,4.9-2.31,2.84-4.49-.1-8.14-.1s-3.66.09-7.31.09S43.65,71.22,40,71.22s-3.65,1.68-7.31,1.68-3.67-1.41-7.22-.55C21.73,73.24,20.19,75,18.53,71.72Zm48.67-.24c-3.3-1.61-3.77-1.74-4-5.41-.21-3.08.53-2.92,2.4-5.38S66.87,56.92,70,57c3.29.13,1.19,2.49,3.17,5.1s3.31,1.62,5.3,4.23,6.23,3.47,4.4,6.2c-2.08,3.11-4.7-1.35-8.42-1S70.56,73.13,67.2,71.48Zm16.61-4c-3.26,1-1.36-2.61-3.42-5.32s-3.28-1.79-5.34-4.5-.8-3.68-2.86-6.39c-.8-1.05-3.82-1.23-4.62-.18-2.11,2.77-.79,3.77-2.9,6.53s-1.28,6.44-4.75,6.25c-3.78-.2-2-4.3-4.25-7.31s-1.85-3.35-4.15-6.35-3.88-1.8-6.19-4.81-.95-4-3.25-7c-.8-1-2,0-2.83,1C37,42.36,36.62,42.06,34.38,45S32.21,48,30,50.89s-3.36,2.07-5.6,5-.9,4-3.15,6.88-1.66,6.33-5.29,5.67c-3.28-.59.58-3.72.58-7.06s-.13-3.33-.13-6.67S15.19,51.37,15.19,48s1.51-3.34,1.51-6.68-1-3.34-1-6.68-1.6-3.82.9-6c2.82-2.5,3.2-1.23,7-1.23s3.78,1.35,7.55,1.35,3.78-.34,7.55-.34,3.78.61,7.55.61,3.78-1.74,7.56-1.74,3.77.19,7.55.19,3.78,0,7.55,0h7.56c3.78,0,4.08-1.26,6.91,1.24,2.5,2.2-.27,2.6-.27,5.94s.53,3.33.53,6.67-.34,3.33-.34,6.67.72,3.33.72,6.67a17.13,17.13,0,0,0,.84,6.47C85.67,64.58,87,66.55,83.81,67.52ZM61,33.45a8.21,8.21,0,0,0-5.43,2.11c-1.27,1.27-.73,3.5-.73,5.43s-.59,4.21.68,5.48A8.78,8.78,0,0,0,61,49c1.93,0,3.25-2.27,4.52-3.53s1.39-2.59,1.39-4.52.56-3.94-.71-5.2A7.85,7.85,0,0,0,61,33.45Zm0,10c-1.65,0-2.32-.81-2.32-2.46s.67-3.84,2.32-3.84,2.24,2.19,2.24,3.84S62.63,43.45,61,43.45Z"/></g><rect class="cls-1" x="5" y="5" width="90" height="90"/></g></svg>