<svg xmlns="http://www.w3.org/2000/svg" viewBox="0 0 1 1"><defs><style>.cls-1{fill:none;}</style></defs><g id="Guides"><g id="Pie Chart" data-name="Pie Chart"><path d="M50,11.64a39.1,39.1,0,0,0-7.47.79,38.85,38.85,0,0,0-7.25,2c-2.31,1-4,3.13-6,4.51S24.52,21,22.77,22.77a39.33,39.33,0,0,0-4.65,5.93c-1.38,2.06-3.27,4-4.24,6.34a40.12,40.12,0,0,0-2,7.38c-.47,2.4.89,5,.89,7.58s-.71,5-.23,7.45,2.43,4.39,3.37,6.66,1.07,5,2.45,7a39.59,39.59,0,0,0,4.52,6c1.76,1.76,3.44,3.83,5.51,5.22A40.69,40.69,0,0,0,35,86.14c2.27,1,5.09.64,7.56,1.13S47.46,87,50,87s5,.64,7.39.16a37.22,37.22,0,0,0,7.06-2.25c2.31-1,5.1-1.16,7.16-2.54s3.35-3.87,5.11-5.63a37.86,37.86,0,0,0,4.35-5.95,36.85,36.85,0,0,0,3.54-6.43,36.1,36.1,0,0,0,2.13-7c.48-2.4,1.77-4.77,1.77-7.31s.34-5.23-.14-7.63-2.61-4.51-3.56-6.79A36.54,36.54,0,0,0,81,29.32a36.73,36.73,0,0,0-4.82-5.46c-1.76-1.76-2.78-4.34-4.85-5.73s-4.05-3.2-6.37-4.16-5-1.16-7.43-1.65A38.44,38.44,0,0,0,50,11.64Zm2.34,4.52a30.14,30.14,0,0,1,6.53,1.32,33.12,33.12,0,0,1,6.43,2.7c2.1,1.08,4.7,1.44,6.52,2.92s2.68,4,4.16,5.82a32.78,32.78,0,0,1,4,5.73C81,36.72,81.12,39,81.75,41.34s1.8,3.46,1.94,5.85C79.87,48.35,80,48.78,76,48.78s-4-1-8-1-4,1.3-8,1.3S54.86,50.78,52,48s.32-4,.32-7.94.53-4,.53-8,.5-4.07.23-8.06S51.18,20,52.34,16.16ZM50,83.64a33.09,33.09,0,0,1-7.5-.78,32.62,32.62,0,0,1-7-2.66c-2.3-1.11-5.08-1.54-7.06-3.12s-3-4.23-4.56-6.22a33.18,33.18,0,0,1-4.15-6.26c-1.1-2.27-1.21-4.77-1.78-7.28A32.17,32.17,0,0,1,16.85,50c0-2.5-1.34-5.11-.82-7.45s2.24-4.51,3.26-6.71,1.25-5.09,2.72-7,4.1-3,6-4.61a33.8,33.8,0,0,1,6.18-3.87c2.14-1.14,4.48-1.53,6.86-2.2S44.46,16.6,47,16.45c1.19,3.18,1,3,1,6.4s1,3.39,1,6.78-.89,3.39-.89,6.79.1,3.39.1,6.79S47.09,46.6,47.09,50c0,.53,1.26.9,1.64,1.27,2.4,2.39,2.69,2.1,5.09,4.5s2.34,2.45,4.73,4.85l4.8,4.79c2.4,2.41,1.66,3.15,4.06,5.55s2.82,1.74,4.13,4.87c-2.05,1.82-3.13,3.24-5.57,4.53a34.84,34.84,0,0,1-7.64,3.38C55.72,84.39,52.81,83.64,50,83.64ZM75.55,72.25c-3.27-1.57-2.51-2.46-5.08-5s-2.44-2.7-5-5.27-3.37-1.77-5.95-4.34-5.58-2-4.19-5.41,3.15.15,6.79.15,3.63.74,7.27.74,3.64-.24,7.28-.24S80.78,50,84.2,51.27a40.69,40.69,0,0,1-1.71,8.12c-.71,2.45-.54,5.37-1.75,7.56S77.23,70.37,75.55,72.25Z"/></g><rect class="cls-1" x="5" y="5" width="90" height="90"/></g></svg>