<svg xmlns="http://www.w3.org/2000/svg" viewBox="0 0 100 100"><defs><style>.cls-1{fill:none;}</style></defs><g id="Guides"><g id="Pin"><path d="M85.37,45.06c-2.54-2.54-1.88-3.2-4.41-5.74S78.22,37,75.68,34.45s-2.78-2.29-5.32-4.82-3.27-1.8-5.81-4.34-2.17-2.91-4.71-5.45-2.09-3-4.6-5.55c-2.76-2.94-2.74-.85-2.74.55,0,3.5-2,3.5-2,7s1.72,3.48.14,6.6-2.38,2.09-5.22,4.19S42.79,35,40,37.08s-3.3,1.51-6.14,3.62-1.55,4.51-4.91,5.64-3.64-.67-7.06-.67S18.42,45.4,15,45.4c-3.91,0-.68,4.41-1.38,3.72,2.86,2.85,2,3.68,4.9,6.54s3.77,2,6.63,4.8,5.34,1.84,5.69,5.87c.31,3.38-3.09,1.85-5.48,4.27s-2.11,2.69-4.5,5.11S18.39,78.05,16,80.47c-.8.79-.27,2.28.53,3.08s2.2,1.24,3,.45c2.4-2.4,2.17-2.64,4.58-5s2.36-2.44,4.77-4.85S30.31,68.72,33.7,69c4,.35,2.54,3.43,5.39,6.29s2.7,3,5.56,5.89,2.94,2.78,5.79,5.64c-.46-.46,3.85,1.84,3.85-1.74s1.07-3.46,1.07-6.91-2.25-3.71-1.16-7S57,68.8,59.09,66s1.85-3,3.94-5.86,2.32-2.68,4.42-5.52,1.14-3.39,4.25-5.07c2.81-1.51,2.68-.61,5.87-.61s3.18-.34,6.37-.34C86,48.56,88.79,48.48,85.37,45.06ZM19.83,49.54c2.65-3.57,4.44-.72,8.59.86,3.59,1.36,2.6,2.3,5.31,5s3,2.47,5.68,5.19,3.45,2,6.17,4.69,3.75,2.3,5.12,5.9c1.57,4.15,3.08,6-.49,8.63-2.89,2.15-3.05-1.46-5.6-4s-1.15-3.94-3.7-6.49-2.59-2.51-5.14-5.06S33,62,30.43,59.4s-2.25-3.08-5.36-4.92C21.47,52.35,17.69,52.44,19.83,49.54ZM52.44,67.35c-3.44.58-1.83-3.13-4.29-5.6S45.47,59.49,43,57s-2.72-2.22-5.19-4.69-6.52-1.45-5.89-4.89c.74-4.08,4-2.49,7.33-4.92s3.75-1.88,7.11-4.31S48.7,32,52.85,32c3.41,0,1.75,4.12,4.15,6.55s2.44,2.39,4.83,4.82,4.94.83,4.9,4.24c0,4.11-2.12,3.17-4.59,6.46s-3.9,2.58-5.63,6.31C54.66,64.32,56.5,66.67,52.44,67.35ZM70.2,44.64c-3.29-1.17-1.82-3.13-4.29-5.6s-2.67-2.26-5.14-4.73-4-1.31-5.12-4.59c-1.49-4.19-4.1-6.45-.76-9.38,2.51-2.21,3,2.77,5.42,5.14s1.89,2.84,4.26,5.21S68,32,70.36,34.38s1,3.76,3.35,6.14,4.51.75,4.52,4.1C78.26,49.14,74.38,46.14,70.2,44.64Z"/></g><rect class="cls-1" x="5" y="5" width="90" height="90"/></g></svg>