<svg xmlns="http://www.w3.org/2000/svg" viewBox="0 0 1 1"><defs><style>.cls-1{fill:none;}</style></defs><g id="Guides"><g id="Plus"><path d="M73.11,50c0,1.1-2,1-3.11,1-3,0-3,.16-6,.16s-3,.33-6,.33-3.58-1.33-5.7.79S51.23,55,51.23,58s1.3,3,1.3,6-1.64,3-1.64,6c0,1.1.21,3-.89,3s-2.48-1.88-2.48-3c0-3,1.2-3,1.2-6s-1.59-3-1.59-6,3.41-4.3,1.29-6.42S45,51.9,42,51.9s-3-.2-6-.2-3,.52-6,.52c-1.1,0-1.58-1.12-1.58-2.22s.48-2.18,1.58-2.18c3,0,3,1,6,1s3-1.55,6-1.55,3.88,2.9,6,.78-.32-3-.32-6,1-3,1-6-.46-3-.46-6c0-1.1.67-.87,1.77-.87s1.94-.23,1.94.87c0,3,.93,3,.93,6S51,39,51,42s-.9,3.62,1.22,5.74S55,47.47,58,47.47s3-.15,6-.15,3,1,6,1C71.1,48.33,73.11,48.9,73.11,50Zm15.26,0a38.4,38.4,0,0,1-2.63,14.81c-1,2.31-3,4.07-4.41,6.12A38.78,38.78,0,0,1,77,77a38.8,38.8,0,0,1-6,4.38,37.32,37.32,0,0,1-6.56,3.39,36.41,36.41,0,0,1-7.08,2c-2.4.48-4.78,1.83-7.32,1.83a40.71,40.71,0,0,1-7.61-.33C39.91,87.79,37.77,86,35.5,85s-4.85-1.61-6.91-3-4.45-2.67-6.21-4.42a41,41,0,0,1-4.48-6.17c-1.37-2.06-1.9-4.66-2.86-7a37.74,37.74,0,0,1-2.35-7.06,37.92,37.92,0,0,1-1-7.42c0-2.54,1.7-4.8,2.17-7.2s-.19-5.2.76-7.48,2.8-4.15,4.17-6.21,2.26-4.6,4-6.36a40,40,0,0,1,5.63-5.1c2.06-1.38,5-1.16,7.34-2.12a36.75,36.75,0,0,1,7.05-1.87c2.4-.48,4.69-1.78,7.23-1.78a38.21,38.21,0,0,1,7.46.63c2.47.49,4.54,2.09,6.81,3s5.19.89,7.24,2.26a39.55,39.55,0,0,1,6.15,4.54c1.76,1.75,2.4,4.57,3.79,6.65s3.35,3.89,4.3,6.2.76,5,1.25,7.45S88.37,47.46,88.37,50ZM82.9,50c0-2.6,1.75-5.35,1.19-7.78a35.49,35.49,0,0,0-2.72-7.32A35.66,35.66,0,0,0,77,28.51c-1.59-2-4-3.17-6-4.76s-3.55-3.95-5.85-5.07-5.12-.75-7.63-1.32S52.6,14.9,50,14.9s-4.92,2.34-7.35,2.89a32.41,32.41,0,0,0-7.19,2c-2.3,1.11-5.11,1.49-7.09,3.07s-2.68,4.49-4.27,6.48S20,32.69,18.84,35a34.52,34.52,0,0,0-2.08,7.42A34,34,0,0,0,15.71,50a34.26,34.26,0,0,0,1.35,7.52c.58,2.51.83,5.15,1.93,7.41s3,4.17,4.58,6.15,2.77,4.5,4.76,6.09,5,1.65,7.26,2.76,4.33,2.65,6.84,3.22a33.79,33.79,0,0,0,7.57.53c2.6,0,5.28.69,7.72.14a34.89,34.89,0,0,0,7.13-3c2.3-1.11,5.06-1.81,7-3.39s3.14-4.23,4.73-6.22,2.13-4.55,3.24-6.85,3.65-4.09,4.22-6.6S82.9,52.6,82.9,50Z"/></g><rect class="cls-1" x="5" y="5" width="90" height="90"/></g></svg>