<svg xmlns="http://www.w3.org/2000/svg" viewBox="0 0 100 100"><defs><style>.cls-1{fill:none;}</style></defs><g id="Guides"><g id="Printer"><path d="M85.52,63c0-4,.92-4,.92-8s-.13-4-.13-8-.72-4-.72-8m.61,24c0-4,.41-4,.41-8s-.7-4-.7-8,0-4,0-8M8.9,63c0-4,.22-4,.22-8s1.75-4,1.75-8-.27-4-.27-8M89.19,63c0-4,1.32-4,1.32-8s-.43-4-.43-8,1.13-4,1.13-8M63,62.81c-3.25,0-3.25-1.32-6.49-1.32s-3.25.43-6.5.43-3.25-1.13-6.51-1.13S40.25,63.1,37,63.1c-1.1,0-1.12-.2-1.12.9s0,2.87,1.12,2.87c3.25,0,3.25-.27,6.49-.27s3.25-.4,6.5-.4,3.25.4,6.51.4,3.25-.69,6.5-.69A1.82,1.82,0,0,0,64.87,64C64.87,62.9,64.1,62.81,63,62.81Zm0,10c-3.25,0-3.25-1.32-6.49-1.32s-3.25.43-6.5.43-3.25-1.13-6.51-1.13S40.25,73.1,37,73.1c-1.1,0-1.12-.2-1.12.9s0,2.87,1.12,2.87c3.25,0,3.25-.27,6.49-.27s3.25-.4,6.5-.4,3.25.4,6.51.4,3.25-.69,6.5-.69A1.82,1.82,0,0,0,64.87,74C64.87,72.9,64.1,72.81,63,72.81Zm0-10c-3.25,0-3.25-1.32-6.49-1.32s-3.25.43-6.5.43-3.25-1.13-6.51-1.13S40.25,63.1,37,63.1c-1.1,0-1.12-.2-1.12.9s0,2.87,1.12,2.87c3.25,0,3.25-.27,6.49-.27s3.25-.4,6.5-.4,3.25.4,6.51.4,3.25-.69,6.5-.69A1.82,1.82,0,0,0,64.87,64C64.87,62.9,64.1,62.81,63,62.81Zm0,10c-3.25,0-3.25-1.32-6.49-1.32s-3.25.43-6.5.43-3.25-1.13-6.51-1.13S40.25,73.1,37,73.1c-1.1,0-1.12-.2-1.12.9s0,2.87,1.12,2.87c3.25,0,3.25-.27,6.49-.27s3.25-.4,6.5-.4,3.25.4,6.51.4,3.25-.69,6.5-.69A1.82,1.82,0,0,0,64.87,74C64.87,72.9,64.1,72.81,63,72.81Zm0,0c-3.25,0-3.25-1.32-6.49-1.32s-3.25.43-6.5.43-3.25-1.13-6.51-1.13S40.25,73.1,37,73.1c-1.1,0-1.12-.2-1.12.9s0,2.87,1.12,2.87c3.25,0,3.25-.27,6.49-.27s3.25-.4,6.5-.4,3.25.4,6.51.4,3.25-.69,6.5-.69A1.82,1.82,0,0,0,64.87,74C64.87,72.9,64.1,72.81,63,72.81Zm0-10c-3.25,0-3.25-1.32-6.49-1.32s-3.25.43-6.5.43-3.25-1.13-6.51-1.13S40.25,63.1,37,63.1c-1.1,0-1.12-.2-1.12.9s0,2.87,1.12,2.87c3.25,0,3.25-.27,6.49-.27s3.25-.4,6.5-.4,3.25.4,6.51.4,3.25-.69,6.5-.69A1.82,1.82,0,0,0,64.87,64C64.87,62.9,64.1,62.81,63,62.81ZM37,65.19c3.25,0,3.25,1.32,6.49,1.32s3.25-.43,6.5-.43,3.25,1.13,6.51,1.13S59.75,64.9,63,64.9c1.1,0,1.12.2,1.12-.9s0-2.87-1.12-2.87c-3.25,0-3.25.27-6.49.27s-3.25.4-6.5.4-3.25-.4-6.51-.4-3.25.69-6.5.69A1.82,1.82,0,0,0,35.13,64C35.13,65.1,35.9,65.19,37,65.19Zm26,7.62c-3.25,0-3.25-1.32-6.49-1.32s-3.25.43-6.5.43-3.25-1.13-6.51-1.13S40.25,73.1,37,73.1c-1.1,0-1.12-.2-1.12.9s0,2.87,1.12,2.87c3.25,0,3.25-.27,6.49-.27s3.25-.4,6.5-.4,3.25.4,6.51.4,3.25-.69,6.5-.69A1.82,1.82,0,0,0,64.87,74C64.87,72.9,64.1,72.81,63,72.81ZM82,31.52c-3.5,0-5.21,2.64-7.68.16s.16-4.18.16-7.68.08-3.5.08-7c0-1.1-.46-2.31-1.56-2.31-3.83,0-3.83,0-7.66,0s-3.84.09-7.67.09S53.84,15.93,50,15.93s-3.84-.53-7.67-.53-3.83-.91-7.67-.91-3.83.23-7.67.23c-1.1,0-2.91,1.18-2.91,2.28,0,3.5-.2,3.5-.2,7s4,4.92,1.51,7.4-3.9-.84-7.4-.84c-2.2,0-3.85,1.69-5.3,3.14S9.61,36.79,9.61,39c0,4-.31,4-.31,8s1.36,4,1.36,8-1.21,4-1.21,8a8.72,8.72,0,0,0,2.75,5.8C13.65,70.25,15.8,70,18,70c3.5,0,4.57-1.5,7.23.78,2.28,2,.7,3.27.7,6.27s-1.28,3-1.28,6A2.86,2.86,0,0,0,27,85.54c3.83,0,3.83-1.32,7.66-1.32S38.5,86,42.33,86s3.83-2.19,7.66-2.19,3.84,2,7.67,2,3.83.12,7.67.12,3.83-1.57,7.67-1.57c1.1,0,1.65-.28,1.65-1.38,0-3,1.49-3,1.49-6S72.69,72.92,75,71c2.66-2.28,3.53-.43,7-.43a7.32,7.32,0,0,0,5.46-2.08C88.91,67,90.89,65.2,90.89,63c0-4-1.92-4-1.92-8s.2-4,.2-8,.7-4,.7-8a7.64,7.64,0,0,0-2.36-5.51A7.35,7.35,0,0,0,82,31.52ZM29.14,19.17c2.66-2.28,3.36-.29,6.86-.29s3.5.3,7,.3,3.5.39,7,.39S53.49,18,57,18s3.5.35,7,.35,4.44-1.78,7.1.5c2.28,1.95-.58,3.11-.58,6.11s2.34,3.54.06,5.5c-2.66,2.27-3.07.2-6.57.2s-3.5.94-7,.94-3.5-1.57-7-1.57-3.5,1.53-7,1.53-3.5.22-7,.22-4.36,1.47-7-.81c-2.27-2,.87-3.13.24-6.06S26.87,21.12,29.14,19.17ZM71.35,81.3C69,83.94,67.5,80.69,64,80.69s-3.5,1.47-7,1.47-3.5-2.35-7-2.35-3.5,1.49-7,1.49-3.5-.6-7-.6-5.37,3.52-7.67.88c-2.64-3-.09-4.58-.09-8.58s-.41-4-.41-8-1.91-5.37.72-8.38c2.31-2.64,3.94.93,7.44.93s3.5.59,7,.59,3.5-1.47,7-1.47,3.5-.55,7-.55,3.5.48,7,.48,3.95-1.58,6.26,1.06c2.64,3,1.47,3.34,1.47,7.34s-2.58,4.31-1.7,8.22C71,77.52,74,78.29,71.35,81.3ZM86.8,63c0,2.21-2.59,3.5-4.8,3.5-3.5,0-4.29,2.72-7,.44C72.77,65,76.19,64,76.19,61s-2.27-3-2.27-6c0-1.1.18-1.14-.92-1.14-3.83,0-3.83-1.71-7.66-1.71s-3.84.26-7.67.26-3.83.4-7.66.4-3.84-.4-7.67-.4-3.83.68-7.67.68-3.83,0-7.67,0c-1.1,0-1.53.78-1.53,1.88,0,3-.9,3-.9,6s2.51,3.82.24,5.77c-2.66,2.28-3.31.63-6.81.63A4.88,4.88,0,0,1,13.43,63c0-4-.41-4-.41-8s.59-4,.59-8-.39-4-.39-8c0-2.21,2.57-4.91,4.78-4.91,3.55,0,3.55.77,7.11.77s3.55-.61,7.1-.61,3.56.74,7.11.74,3.56-.94,7.11-.94,3.56.28,7.11.28,3.56.82,7.11.82,3.56,0,7.11,0,3.56-.87,7.12-.87,3.56,1.27,7.12,1.27c2.21,0,3.78,1.21,3.78,3.42,0,4-.42,4-.42,8s-.68,4.08-.41,8.07S86.8,59,86.8,63ZM37,65.2c3.25,0,3.25,1.3,6.49,1.3s3.25-.42,6.5-.42,3.25,1.11,6.51,1.11,3.25-2.27,6.5-2.27c1.1,0,1.14.18,1.14-.92s0-2.85-1.14-2.85c-3.25,0-3.25.26-6.49.26s-3.25.4-6.5.4-3.25-.4-6.51-.4-3.25.68-6.5.68A1.83,1.83,0,0,0,35.12,64C35.12,65.1,35.9,65.2,37,65.2Zm0,10c3.25,0,3.25,1.3,6.49,1.3s3.25-.42,6.5-.42,3.25,1.11,6.51,1.11,3.25-2.27,6.5-2.27c1.1,0,1.14.18,1.14-.92s0-2.85-1.14-2.85c-3.25,0-3.25.26-6.49.26s-3.25.4-6.5.4-3.25-.4-6.51-.4-3.25.68-6.5.68A1.83,1.83,0,0,0,35.12,74C35.12,75.1,35.9,75.2,37,75.2Zm26-2.4c-3.25,0-3.25-1.3-6.49-1.3s-3.25.42-6.5.42-3.25-1.11-6.51-1.11-3.25,2.27-6.5,2.27c-1.1,0-1.14-.18-1.14.92s0,2.85,1.14,2.85c3.25,0,3.25-.26,6.49-.26s3.25-.4,6.5-.4,3.25.4,6.51.4,3.25-.68,6.5-.68A1.83,1.83,0,0,0,64.88,74C64.88,72.9,64.1,72.8,63,72.8Zm0-10c-3.25,0-3.25-1.3-6.49-1.3s-3.25.42-6.5.42-3.25-1.11-6.51-1.11-3.25,2.27-6.5,2.27c-1.1,0-1.14-.18-1.14.92s0,2.85,1.14,2.85c3.25,0,3.25-.26,6.49-.26s3.25-.4,6.5-.4,3.25.4,6.51.4,3.25-.68,6.5-.68A1.83,1.83,0,0,0,64.88,64C64.88,62.9,64.1,62.8,63,62.8Zm0,0c-3.25,0-3.25-1.3-6.49-1.3s-3.25.42-6.5.42-3.25-1.11-6.51-1.11-3.25,2.27-6.5,2.27c-1.1,0-1.14-.18-1.14.92s0,2.85,1.14,2.85c3.25,0,3.25-.26,6.49-.26s3.25-.4,6.5-.4,3.25.4,6.51.4,3.25-.68,6.5-.68A1.83,1.83,0,0,0,64.88,64C64.88,62.9,64.1,62.8,63,62.8Zm0,10c-3.25,0-3.25-1.3-6.49-1.3s-3.25.42-6.5.42-3.25-1.11-6.51-1.11-3.25,2.27-6.5,2.27c-1.1,0-1.14-.18-1.14.92s0,2.85,1.14,2.85c3.25,0,3.25-.26,6.49-.26s3.25-.4,6.5-.4,3.25.4,6.51.4,3.25-.68,6.5-.68A1.83,1.83,0,0,0,64.88,74C64.88,72.9,64.1,72.8,63,72.8Z"/></g><rect class="cls-1" x="5" y="5" width="90" height="90"/></g></svg>