<svg xmlns="http://www.w3.org/2000/svg" viewBox="0 0 100 100"><defs><style>.cls-1{fill:none;}</style></defs><g id="Guides"><g id="Profile"><path d="M43.84,50A1.88,1.88,0,0,1,42,52c-4.5,0-4.5,0-9,0s-4.5.45-9,.45c-1.1,0-2.68-1.33-2.68-2.43A3.4,3.4,0,0,1,24,47.29c4.5,0,4.5.35,9,.35s4.5-.22,9-.22C43.1,47.42,43.84,48.9,43.84,50ZM38,61.83c-3.5,0-3.5.16-7,.16s-3.5,0-7,0c-1.1,0-1.57.92-1.57,2s.47,1.33,1.57,1.33c3.5,0,3.5,0,7,0s3.5.34,7,.34c1.1,0,1.42-.54,1.42-1.64S39.1,61.83,38,61.83Zm4-28c-4.5,0-4.5.16-9,.16s-4.5,0-9,0c-1.1,0-1.57.92-1.57,2s.47,1.33,1.57,1.33c4.5,0,4.5,0,9,0s4.5.34,9,.34c1.1,0,1.42-.54,1.42-1.64S43.1,33.83,42,33.83ZM87.84,26c0,3.43.16,3.43.16,6.85s0,3.43,0,6.86.44,3.43.44,6.85.25,3.43.25,6.86,0,3.43,0,6.85-.35,3.44-.35,6.87.22,3.43.22,6.86c0,1.1-1.47,1.91-2.57,1.91-3.6,0-3.6,1-7.2,1s-3.6-1.82-7.19-1.82-3.6,1.43-7.2,1.43-3.6-.49-7.2-.49-3.6.31-7.2.31-3.6-1.24-7.2-1.24-3.6.07-7.19.07-3.6,1-7.21,1-3.6.24-7.2.24S17.6,76,14,76c-1.1,0-1.38-.86-1.38-2,0-3.43-.63-3.43-.63-6.85s.75-3.43.75-6.86-.65-3.43-.65-6.85.32-3.43.32-6.86.73-3.43.73-6.85-1.06-3.44-1.06-6.87-.54-3.43-.54-6.86c0-1.1,1.36-1.86,2.46-1.86,3.6,0,3.6.64,7.2.64s3.6-.89,7.19-.89,3.6,0,7.2,0,3.6.68,7.2.68H50c3.6,0,3.6-.57,7.2-.57s3.6.8,7.19.8,3.6-1.4,7.21-1.4,3.6.3,7.2.3,3.61-.06,7.21-.06C87.1,23.68,87.84,24.9,87.84,26Zm-3.73,1.88c-2.7-2.63-3.88.12-7.66.12s-3.78,0-7.55,0-3.78.44-7.56.44-3.77.25-7.55.25-3.78,0-7.55,0-3.78-.35-7.56-.35-3.78.22-7.56.22-3.78-.66-7.56-.66-4.2-1.88-6.92.75-1.54,3-1.54,6.67,1.43,3.67,1.43,7.33S16,46.33,16,50s.31,3.67.31,7.34S15.11,61,15.11,64.66s-2.31,5.37.32,7.93,4.35-.78,8.12-.78,3.78-.24,7.55-.24,3.78.47,7.56.47,3.77.58,7.55.58S50,72,53.77,72s3.77.75,7.55.75,3.78-.65,7.56-.65,3.78.32,7.56.32,5.64,3,8.35.41-.71-4.48-.71-8.15-.54-3.67-.54-7.33.6-3.67.6-7.33.64-3.67.64-7.34-1.69-3.78-.89-7.36C84.76,31.42,86.74,30.44,84.11,27.88ZM77.78,64a1.88,1.88,0,0,1-1.84,2c-3.49,0-3.49,0-7,0s-3.49.44-7,.44-3.49.25-7,.25-3.49,0-7,0c-1.1,0-2.35-1.6-2.35-2.7a17,17,0,0,1,1-6.26c.79-1.94,2.53-3.41,4-4.88s2.17-2.72,4.09-3.55c-1.93-1.86-1.36-4.49-1.36-7.31,0-2.62-.22-5.45,1.48-7.27A9.84,9.84,0,0,1,61.94,32a9.66,9.66,0,0,1,7,2.89c1.7,1.83,1.63,4.53,1.63,7.15a10.18,10.18,0,0,1-3.11,7.31c1.92.83,4.59,1.89,6,3.36a16.89,16.89,0,0,1,3.67,5.11C77.92,59.65,77.78,61.86,77.78,64ZM56.28,42c0,2.77,2.56,6,5.66,6s5.52-3.23,5.52-6a5.72,5.72,0,0,0-5.52-5.58A5.85,5.85,0,0,0,56.28,42ZM73.83,62.15a12.5,12.5,0,0,0-4.15-7.32A11.94,11.94,0,0,0,61.94,52a11.47,11.47,0,0,0-7.45,3.18c-2.1,1.79-3.61,3.36-4.09,6.22,3.67,1.41,3.7-.08,7.63-.08a41,41,0,0,1,7.91.35C70,62.17,70.15,63.57,73.83,62.15Z"/></g><rect class="cls-1" x="5" y="5" width="90" height="90"/></g></svg>