<svg xmlns="http://www.w3.org/2000/svg" viewBox="0 0 1 1"><defs><style>.cls-1{fill:none;}</style></defs><g id="Guides"><g id="Rearrange"><path d="M35,66c-3.33,0-3.33.56-6.66.56s-3.34-.85-6.67-.85-3.34,1.1-6.67,1.1c-1.1,0-2.18.11-2.18,1.21,0,3,1.15,3,1.15,6s-1,3-1,6c0,1.1.88,1.23,2,1.23,3.33,0,3.33,1.35,6.66,1.35s3.34.17,6.67.17,3.34-1.32,6.67-1.32c1.1,0,1.23-.33,1.23-1.43,0-3,1.85-3,1.85-6s-.76-3-.76-6A2.32,2.32,0,0,0,35,66ZM33,78c-2.82,2.83-4,.56-8,.56s-4.95,2.07-7.78-.76-3.61-5.51-.78-8.34,4.56.74,8.56.74,4.81-2.78,8.42-1.05C37.27,71,35.81,75.16,33,78Zm2-36c-3.33,0-3.33.56-6.66.56s-3.34-.85-6.67-.85-3.34,1.1-6.67,1.1c-1.1,0-2.18.11-2.18,1.21,0,3,1.15,3,1.15,6s-1,3-1,6c0,1.1.88,1.23,2,1.23,3.33,0,3.33,1.35,6.66,1.35s3.34.17,6.67.17,3.34-1.32,6.67-1.32c1.1,0,1.23-.33,1.23-1.43,0-3,1.85-3,1.85-6s-.76-3-.76-6A2.32,2.32,0,0,0,35,42ZM33,54c-2.82,2.83-4,.56-8,.56s-4.95,2.07-7.78-.76-3.61-5.51-.78-8.34,4.56.74,8.56.74,4.81-2.78,8.42-1C37.27,47,35.81,51.16,33,54Zm2-36c-3.33,0-3.33.55-6.66.55s-3.34-.84-6.67-.84-3.34,1.1-6.67,1.1c-1.1,0-2.18.11-2.18,1.21,0,3,1.15,3,1.15,6s-1,3-1,6c0,1.1.88,1.23,2,1.23,3.33,0,3.33,1.34,6.66,1.34s3.34.18,6.67.18,3.34-1.32,6.67-1.32c1.1,0,1.23-.33,1.23-1.43,0-3,1.85-3,1.85-6s-.76-3-.76-6A2.32,2.32,0,0,0,35,18ZM33,30c-2.82,2.83-4,.55-8,.55s-4.95,2.08-7.78-.75-3.61-5.51-.78-8.34,4.56.74,8.56.74,4.81-2.77,8.42-1.05C37.26,23,35.81,27.16,33,30Zm43.47.76c-.78-.75-2-1.8-2.89-2.46,3.34-4,4.35-3,8.09-6.62,1.32-1.25.18-2.86-1.59-2.86-3.3,0-3.3-1-6.6-1S70.16,19,66.86,19s-3.3-.95-6.6-.95-3.31.75-6.61.75-3.3-1.35-6.61-1.35A3.33,3.33,0,0,0,44.29,20c0,4,1.32,4,1.32,7.92s.21,3.95.21,7.91S44,39.79,44,43.75s.76,4,.76,7.92c0,1.76,1.72,1.93,3,.72,2-1.93,2.77-1.13,4.77-3s1.95-2,4.06-3.78c.24.2.66,0,.9.2,1.77,1.7,1.94,4.38,2.88,6.53s2.32,4.13,2.32,6.56a17.1,17.1,0,0,1-1.39,6.88,17.57,17.57,0,0,1-4.35,5.44c-1.56,1.5-2.51,3.5-4.19,4.38s-3.83,0-6,.19-2.76,5.13-.6,5.76c3.06.93,5.26.34,8.47.34,2,0,4.27,1,6.25.6s3.91-1.63,5.78-2.38,3-2.8,4.7-3.88,4.34-.92,5.81-2.32a41.9,41.9,0,0,0,5.23-6.33c1.55-2.24,1.37-5.34,2.28-7.84s2.13-4.86,2.13-7.57-1.24-5.07-2.17-7.64a29.39,29.39,0,0,0-3.6-7C79.42,35.25,78.41,32.62,76.45,30.74ZM73.76,70.38C72.08,72,70.49,73.85,68.49,75s-4.5,1.21-6.74,1.8-5.11,1.58-7.46,1.62a29.36,29.36,0,0,0,5.82-3.88c2.15-2.06,2.81-5,3.94-7.59s2.62-5.12,2.62-8.07-1.3-5.56-2.46-8.23-1.73-5.78-3.9-7.86a22.63,22.63,0,0,0-2.41-2.22c-.55-.4-1.73.38-2.58,1.2-3,2.84-2.91,7.64-6.67,6s1.4-4.87,1.4-9-.76-4.17-.76-8.33-3.69-5.69-1.12-9c2-2.57,4.06.73,7.32.73s3.27.08,6.53.08,3.27-.61,6.53-.61,5-2.63,5.56.59c.64,3.86-1.87,2.52-4.68,5.23a2.06,2.06,0,0,0-.58,1.66c.06.6.15,1.52.66,1.85,1.4.91,3.33,1.2,4.54,2.36,1.69,1.63,2.12,4.36,3.48,6.29a26.05,26.05,0,0,1,3.27,6c.84,2.23,2.36,4.22,2.36,6.59s-1.59,4.29-2.42,6.49S79.47,63,78.1,64.92A36,36,0,0,1,73.76,70.38Z"/></g><rect class="cls-1" x="5" y="5" width="90" height="90"/></g></svg>