<svg xmlns="http://www.w3.org/2000/svg" viewBox="0 0 100 100"><defs><style>.cls-1{fill:none;}</style></defs><g id="Guides"><g id="Refresh"><path d="M64.05,25c-2.51-2.5-3.1-1.91-5.61-4.42s-1.74-3.29-4.25-5.79-4.1-.92-6.62-3.43-1.26-3.77-3.78-6.27c-1.43-1.44-3.91.33-3.91,1.94a59.15,59.15,0,0,1-.26,8.83c-.89-.09-1.55-.83-2.44-.83-2.43,0-4.72,1.27-7,1.87s-4.09,2.14-6.12,3.31a26.24,26.24,0,0,0-5.62,4c-1.67,1.66-3.87,2.9-5.07,4.95A29.2,29.2,0,0,0,9.54,42.83c0,2.51,1.37,4.8,2,7.14s2.22,4.12,3.5,6.22a24.72,24.72,0,0,0,4.39,5.45c1.78,1.65,3.09,3.71,5.32,4.87,2,1.12,3.5-1.1,2.19-2.68a15.76,15.76,0,0,1-2.45-4.92,15.66,15.66,0,0,1-1.17-5.35,15.88,15.88,0,0,1,2-8.08c1.43-2.4,4.12-3.47,6.56-4.86s4.63-2.77,7.53-2.77c.17,0,1.52-.2,1.69-.19.08,4.72-.69,4.74-.69,9.46,0,1.94,2.44,3.26,3.54,2.16,2.52-2.51,1.22-3.81,3.73-6.31s3-2,5.49-4.55,1.83-3.2,4.35-5.71,2.78-2.24,5.3-4.75C63.66,27.18,64.84,25.81,64.05,25ZM44.1,41.44c-3.12-.85-.16-2.36-.16-5.59,0-2.37-3.13-3.37-4.6-3.37-2.7,0-4.88,2.7-7.23,3.67s-5.56,1-7.4,2.81-2.92,4.5-3.93,6.93A20,20,0,0,0,19,53.56c0,1.57.82,2.44,1.19,4-1.89-2.09-3.84-3.74-4.85-6.37S13,45.7,13,42.83a24.41,24.41,0,0,1,1.43-7.36c.77-2.32,2.79-4.1,4.21-6a22.87,22.87,0,0,1,5.09-5,22.61,22.61,0,0,1,6.41-3.08c2.25-.72,4.51-2.14,7-2.14,1.45,0,3.15-.58,4.55-.31,1.22.23.86.58.86-.67,0-3.18-1.9-5.91,1.19-6.69,3.48-.88,2.72,2.77,5.27,5.31s2.3,2.79,4.85,5.32,5.26,1.33,5.26,4.93-2.41,2.67-5,5.21-4.11,1.39-6,4.43S47.57,42.38,44.1,41.44Zm31.7-9c-2-1-4.31,2.26-2.93,3.92,1.2,1.42,1.07,3.39,1.7,5.12s3.13,3.15,3.13,5c0,2.91-2.49,5.26-3.9,7.61s-2.91,4.68-5.36,6.07a15.94,15.94,0,0,1-8,1.84c-.17,0,.39.36.22.35-.09-4.72-1-4.71-1-9.43,0-2-1.31-1.74-2.32-.74-2.52,2.5-2.7,2.32-5.22,4.82S49,58.85,46.46,61.35s-2.53,2.49-5.05,5-2.63,2.4-5.14,4.9c-.79.79-.05,2,.73,2.75,2.52,2.5,3,2,5.55,4.48s2.48,2.54,5,5,1.86,3.16,4.38,5.67,2.37,2.66,4.89,5.16A2,2,0,0,0,60.23,93c0-4.43-.66-4.45-.21-8.86.89.09,1.91-.07,2.8-.07,2.43,0,5,.8,7.26.2s4.36-2.29,6.39-3.46,3-3.61,4.72-5.27,3.55-3,4.74-5,3.52-3.71,4.15-6-.89-4.86-.89-7.29.31-4.91-.34-7.25-2.48-4.1-3.76-6.2a24.91,24.91,0,0,0-4.21-5.73C79.1,36.42,78,33.62,75.8,32.47Zm-13,46.92c-1.45,0-2.88.7-4.28.43-1.23-.23-3.59.8-3.59,2.05,0,3.18,4.53,6.6,1.45,7.37-3.49.88-2.29-4.07-4.84-6.61S48.57,80.54,46,78s-4.81-1.4-4.81-5,2.7-2,5.25-4.55,1.87-3.22,4.42-5.76,2-6.79,5.51-5.85c3.12.85.45,4.16.45,7.39,0,1,0,2.12,1,2.26a19,19,0,0,0,2.85.22,20.86,20.86,0,0,0,7.81-1.38c2.44-1,4-3.32,5.89-5.15s2.52-4.11,3.54-6.54a17.29,17.29,0,0,0,1.48-7.12c0-1.57,1.2-3.45.83-5A24.38,24.38,0,0,1,84.6,49a23.11,23.11,0,0,1,1.18,8.29,22.73,22.73,0,0,1-.92,7.14,23.2,23.2,0,0,1-3.15,6.55c-1.43,2-3.89,2.78-5.85,4.2s-3.62,3.11-6,3.87S65.31,79.39,62.82,79.39Z"/></g><rect class="cls-1" x="5" y="5" width="90" height="90"/></g></svg>