<svg xmlns="http://www.w3.org/2000/svg" viewBox="0 0 1 1"><defs><style>.cls-1{fill:none;}</style></defs><g id="Guides"><g id="Reply"><path d="M13,40c2.81,2.79,3,2.61,5.79,5.4s3.42,2.17,6.22,5,3,2.55,5.84,5.35,1.6,4,4.4,6.81,2.87,2.72,5.67,5.53c1.27,1.29,3.43-.32,3.43-2.08,0-3.55,0-3.55,0-7.09s.75-3.53,1-7.07c.57,0,.79-1,1.37-1,2.49,0,4.68,1.89,6.93,2.61s4,2.17,6,3.57,4.31,2.22,5.75,4.16A23.25,23.25,0,0,1,69,67.46c.74,2.24,0,4.71,0,7.2,0,2.64.47,5.15-.48,7.52a23.38,23.38,0,0,1-3.81,6.71c-1.4,1.64.63,4.71,2.6,3.69a42.7,42.7,0,0,0,5.88-3.39c1.8-1.34,2.08-4.37,3.58-6S81,81,82.22,79.1s.38-4.71,1.2-6.77,2.67-3.69,3.08-5.87-.1-4.36-.1-6.61c0-2.46,1.27-5.06.8-7.38S84.88,48,83.94,45.83a36.44,36.44,0,0,0-3.69-6.15c-1.37-2-2.46-4.2-4.19-5.89S72.78,30,70.74,28.71s-4.7-1.49-7-2.41-4.62-.85-7-1.31a36,36,0,0,0-7-.75c-1.65,0-2.67-.91-4.11-.72a21,21,0,0,1-.7-6.69c0-3.41-.08-3.41-.08-6.82a2,2,0,0,0-3.35-1.49c-2.8,2.8-2.29,3.31-5.09,6.1s-3.65,2-6.44,4.75-2.05,3.55-4.85,6.35-2.58,3-5.38,5.82-3,2.59-5.83,5.38C13.14,37.69,12.22,39.23,13,40Zm5.66-2c0-3.27,1.89-1.91,4.2-4.23s1.69-2.94,4-5.26,2.08-2.56,4.39-4.87,3.53-1.11,5.85-3.43.5-5.1,3.71-4.44c2.74.56.84,1.86.84,4.65s0,2.79,0,5.58c0,1.25.53,2.56,1.77,2.33,1.61-.3,4-1.9,6.31-1.9,2.52,0,4.83,1.79,7.18,2.31a31.24,31.24,0,0,1,6.63,2.79c2.24,1,4.79,1.36,6.72,2.85a33.68,33.68,0,0,1,5.54,4.9c1.56,1.9,1.92,4.52,3,6.73s2.79,4.09,3.36,6.51a32.47,32.47,0,0,1,1.12,7.33c0,2.26-1.46,4.27-1.91,6.4a28.54,28.54,0,0,1-2.22,6c-.92,2-.25,4.95-1.59,6.74s-2.86,2.44-4.54,3.93c1-2.75-.38-5.28-.38-8.27,0-2.43,1-4.8.4-7s-2.18-4.16-3.36-6.18-1.48-4.89-3.16-6.54-4.33-2.25-6.39-3.43a26.61,26.61,0,0,0-6.55-2.41c-2.24-.59-4.47-1.5-6.89-1.5-3.08,0-6.54.13-6.54,2.4,0,2.8,1.09,2.8,1.09,5.59s2.66,6-.07,6.57c-3.21.66-3.18-2.65-5.49-5s-1.2-3.43-3.52-5.74-2.82-1.81-5.14-4.12-2-2.67-4.67-4.57S18.66,41.28,18.66,38Z"/></g><rect class="cls-1" x="5" y="5" width="90" height="90"/></g></svg>