<svg xmlns="http://www.w3.org/2000/svg" viewBox="0 0 100 100"><defs><style>.cls-1{fill:none;}</style></defs><g id="Guides"><g id="Right Arrow" data-name="Right Arrow"><path d="M61.9,52.3C59.22,55,59,54.77,56.32,57.45s-2.27,3.09-5,5.78-2.8,2.56-5.48,5.24c-.78.78-3.23.87-4,.07s.22-2.31,1-3.09c2.44-2.45,1.54-3.34,4-5.79S50.55,58.47,53,56s4-2.15,3.88-5.61c-.09-3.65-2.46-2.42-5-5s-2-3.22-4.53-5.8-3.46-1.7-6-4.28c-.78-.78-1.08-3.17-.3-3.95s3.46-.78,4.24,0c2.81,2.81,2.09,3.53,4.91,6.35s2.29,3.34,5.1,6.16,3.33,2.3,6.15,5.12C62.15,49.8,62.68,51.52,61.9,52.3ZM88.69,50a39.4,39.4,0,0,1-1,7.49c-.49,2.47-.72,5.15-1.66,7.42a39.37,39.37,0,0,1-3.75,6.64,40.13,40.13,0,0,1-4.75,6c-1.76,1.75-4.59,2.29-6.67,3.68s-3.68,3.67-6,4.63-5.14,0-7.61.47-4.68,2-7.22,2a39,39,0,0,1-7.46-.77c-2.47-.49-4.56-2.05-6.84-3s-5.08-1.05-7.14-2.43a39,39,0,0,1-6.13-4.51,40.46,40.46,0,0,1-4.85-5.91c-1.37-2.06-1.71-4.81-2.67-7.12s-.95-4.8-1.43-7.27S12.05,52.54,12.05,50s-.5-5.16,0-7.55,1.88-4.73,2.83-7,2.6-4.2,4-6.26,1.89-4.94,3.65-6.69,4.61-2.28,6.68-3.67a36.49,36.49,0,0,1,6.61-3.15,36.87,36.87,0,0,1,6.88-2.55c2.4-.47,4.8-1.41,7.34-1.41a38.57,38.57,0,0,1,7.41,1c2.47.49,5.3.15,7.57,1.09s3.5,4,5.56,5.43,5.3,1.39,7,3.15a39.3,39.3,0,0,1,4.86,5.9A40,40,0,0,1,86,35.1a38.5,38.5,0,0,1,2.17,7.31A39.57,39.57,0,0,1,88.69,50Zm-5.38,0a33,33,0,0,0-.54-7.48c-.57-2.51-1.9-4.59-3-6.85A32.17,32.17,0,0,0,76,29.3a32.6,32.6,0,0,0-5.32-5.18c-2-1.58-3.37-4.09-5.67-5.21s-5.06-.76-7.57-1.33S52.6,15,50,15s-5.07,1.57-7.5,2.13a33,33,0,0,0-7.15,2.46c-2.3,1.11-5,1.76-7,3.34s-2.93,4.27-4.52,6.25a32.77,32.77,0,0,0-3.62,6.51,31.5,31.5,0,0,0-2.45,7C17.25,45.09,16,47.4,16,50s-.42,5.3.13,7.74,2.13,4.77,3.22,7,3.08,4,4.66,6,2.86,4.21,4.85,5.8S32.72,80,35,81.11s5.11.58,7.62,1.15S47.4,84.51,50,84.51A36.14,36.14,0,0,0,57.76,84a35.83,35.83,0,0,0,7.17-3c2.3-1.12,4.1-3.07,6.08-4.65a34.11,34.11,0,0,0,5.58-5.15c1.58-2,1.9-4.64,3-7s4-3.94,4.55-6.45S83.31,52.6,83.31,50Z"/></g><rect class="cls-1" x="5" y="5" width="90" height="90"/></g></svg>