<svg xmlns="http://www.w3.org/2000/svg" viewBox="0 0 1 1"><defs><style>.cls-1{fill:none;}</style></defs><g id="Guides"><g id="Save"><path d="M82.51,24.25c-2.46-2.44-2.17-2.74-4.63-5.18s-3.21-1.69-5.67-4.13c-.38-.37-.52-1.25-1-1.25-3.72,0-3.72,1.24-7.45,1.24s-3.72-.87-7.45-.87-3.72-.31-7.45-.31-3.72-.34-7.45-.34-3.72.42-7.45.42-3.73,1-7.45,1-3.73.08-7.46.08c-1.1,0-2.31,0-2.31,1.11,0,3.77.27,3.77.27,7.55s0,3.78,0,7.55-.25,3.78-.25,7.56-.61,3.77-.61,7.55.43,3.78.43,7.56-.09,3.77-.09,7.55,1.49,3.78,1.49,7.56,0,3.78,0,7.56S16.65,80.22,16.65,84c0,1.1,1.25,1.06,2.35,1.06,3.44,0,3.44.5,6.88.5s3.45,1.19,6.89,1.19,3.44,0,6.89,0,3.44-.52,6.88-.52,3.45-.39,6.89-.39,3.45.81,6.89.81,3.44.3,6.89.3,3.45-.26,6.89-.26,3.45-.17,6.9-.17c1.1,0,1.89-1.39,1.89-2.49,0-3.64-.06-3.64-.06-7.28s-.56-3.63-.56-7.27,0-3.64,0-7.28.92-3.64.92-7.28S82,51.25,82,47.61s1.66-3.63,1.66-7.27-1-3.65-1-7.29-.23-3.64-.23-7.28C82.43,25.23,82.89,24.62,82.51,24.25Zm-51.26-6c2.61-2.75,3.55-1.08,7.35-1.08s3.8,1.51,7.6,1.51S50,17,53.79,17s3.81.75,7.61.75,5.41-2.88,8-.12-.5,4.4-.5,8.4.44,4,.44,8,.36,4,.36,8,1.39,4.5-1.36,7.4S65.2,49,61.4,49s-3.8,2-7.6,2S50,50,46.21,50s-3.81-.64-7.61-.64-5.17,3.62-7.79.87.51-4.18.51-8.18.24-4,.24-8,1-4.23.27-8.16S28.49,21.13,31.25,18.23Zm47.88,63.9c-2.62,2.51-3.75-.93-7.38-.93s-3.62-.15-7.24-.15-3.63.14-7.25.14H50c-3.63,0-3.63.23-7.25.23s-3.63.21-7.25.21-3.63-.56-7.26-.56-5.31,4.14-7.9,1.6.37-4.21.37-7.77.73-3.55.73-7.1.28-3.56.28-7.11-.7-3.56-.7-7.11.22-3.56.22-7.11.5-3.56.5-7.11,0-3.56,0-7.11-1.39-3.56-1.39-7.12-1.11-3.93,1.19-6.65c1.93-2.29,3.57-2.82,5.55-.57,2.25,2.55-1,3.5-1,6.9s1.74,3.39,1.74,6.79-.51,3.4-.51,6.8.33,3.4.33,6.81-1.24,3.4-1.24,6.8A3.34,3.34,0,0,0,29,54.75c3.5,0,3.5-1.16,7-1.16h7c3.5,0,3.5-.61,7-.61s3.5,1.83,7,1.83,3.5-1.53,7-1.53,3.51.43,7,.43c1.1,0,1.38-.61,1.38-1.71,0-3.92.77-3.92.77-7.84s-.67-3.91-.67-7.83,1.06-3.92,1.06-7.84-4.48-7.31-.75-8.49c4-1.27,4.6,2.69,6.38,6.52,1.47,3.14-1.06,3.54-1.06,7s1.68,3.46,1.68,6.92-1.71,3.47-1.71,6.93.27,3.46.27,6.92.21,3.46.21,6.92.31,3.46.31,6.93a20.24,20.24,0,0,0,.75,6.79C80.45,78.62,81.63,79.74,79.13,82.13ZM65,24.5c0,3.17-1,3.17-1,6.33s-.15,3.17-.15,6.34S64,40.33,64,43.5c0,1.1-.08,1.18-1.19,1.18s-1.41-.08-1.41-1.18c0-3.17-.21-3.17-.21-6.33s.56-3.17.56-6.34S59.9,27.67,59.9,24.5c0-1.1,1.83-2.28,2.93-2.28A2.42,2.42,0,0,1,65,24.5Z"/></g><rect class="cls-1" x="5" y="5" width="90" height="90"/></g></svg>