<svg xmlns="http://www.w3.org/2000/svg" viewBox="0 0 1 1"><defs><style>.cls-1{fill:none;}</style></defs><g id="Guides"><g id="Search"><path d="M88.05,77.09c-2.36-2.35-2.89-1.82-5.25-4.18s-1.73-3-4.09-5.36-3.83-.88-6.2-3.25-3.62-2-5-5c1.57-2.5,4.73-5.31,5.52-8.07s-.89-6-.89-8.88c0-2.33.32-4.49-.18-6.66a29.52,29.52,0,0,0-2.12-6.36A28.58,28.58,0,0,0,66,23.86c-1.42-1.77-1.8-4.66-3.58-6.07s-4.66-1.14-6.73-2.13-3.86-2.37-6.11-2.87a30.93,30.93,0,0,0-6.76-1.15c-2.37,0-4.62.83-6.81,1.3s-4.93.16-7,1.12-3.71,3-5.5,4.42S19.39,21,18,22.82s-2,4.32-3,6.4-2.36,4.09-2.87,6.36a31.64,31.64,0,0,0-.7,7c0,2.34,1.32,4.51,1.84,6.71S15,53.39,16,55.44a29.57,29.57,0,0,0,3.41,5.74C20.82,63,21.23,65.85,23,67.29a32.54,32.54,0,0,0,6,3.76c2,1,4.67.7,6.95,1.22a30.92,30.92,0,0,0,6.79,1c2.88,0,5.89.23,8.58-.54s5.06-2.6,7.48-4.11c3,1.37,2.28,2.39,4.63,4.74s2.61,2.1,5,4.46,2.65,2.06,5,4.41,2.2,2.51,4.56,4.87c.78.78,1.29.63,2.07-.14,3.46-3.46,3.89-3,7.35-6.47C88.2,79.75,88.83,77.86,88.05,77.09ZM42.77,68.35c-2.41,0-4.69.44-6.89-.14s-4-2.27-6-3.43-5.15-1-6.8-2.61a29.16,29.16,0,0,1-4.44-5.74c-1.16-2-.14-5-.76-7.25s-3-4.25-3-6.64.88-4.85,1.46-7.07a27.69,27.69,0,0,1,2.8-6.54A28.1,28.1,0,0,1,23.2,23c1.65-1.63,4.58-1.62,6.64-2.78s3.5-3.61,5.82-4.2,4.71-.15,7.14-.15a26.78,26.78,0,0,1,6.75,1.25c2.27.58,4.61.92,6.59,2s3.06,3.42,4.69,5,3.64,2.82,4.79,4.84,1.19,4.31,1.79,6.57,1.76,4.24,1.77,6.61S68.3,46.84,67.75,49a25.22,25.22,0,0,1-2.46,6.37C64.15,57.48,63.58,60,62,61.63a28,28,0,0,1-5.34,4.82,28.38,28.38,0,0,1-6.73,2.64C47.68,69.69,45.15,68.35,42.77,68.35Zm36.48,14c-4-.63-2.87-2-5.71-4.88s-2.2-3.47-5-6.3S63.83,70,61.29,66.9c.61-.52,4.82-4.77,5.54-5.65,3.22,2.4,1.46,4.43,4.29,7.27s4.35,1.33,7.19,4.17,3.6,2.6,5.37,6.21C84.91,81.42,82.12,82.8,79.25,82.35Z"/></g><rect class="cls-1" x="5" y="5" width="90" height="90"/></g></svg>