<svg xmlns="http://www.w3.org/2000/svg" viewBox="0 0 1 1"><defs><style>.cls-1{fill:none;}</style></defs><g id="Guides"><g id="Settings"><path d="M88.15,59.53c-2.35-2.35-2.1-6.2-2.1-9.53s-.36-7.29,2-9.64c.36-.37,2.19.86,2.74.45s-.44-1.87-.67-2.67c-.85-2.89-.13-6.49-1.55-9.1-.39-.73-2.26-.52-3.09-.41-.67.1-1.24-.29-1.75-.29-2.27,0-4.64.2-6.47-.86A14,14,0,0,1,72.15,23c-1.06-1.83.28-4.41.28-6.68,0-.51-2.12-1.21-2-1.88.11-.82.89-1.85.16-2.24A43.59,43.59,0,0,0,62.33,8.3c-.8-.23-2,.74-2.51,1.4s-.19,1.53-.56,1.89A13.4,13.4,0,0,1,50,15.14c-3.33,0-6.26-1.86-8.61-4.21-.37-.36-1.86.12-2.27-.43s-.22-1-1-.74c-2.89.86-6.12.89-8.72,2.31-.73.39-.31,1.57-.2,2.39.1.67.42,1.31.42,1.82,0,2.27-2.45,3.83-3.51,5.66s-2,3.57-3.85,4.67a11.26,11.26,0,0,1-6,1.44c-.51,0-1.18,1.44-1.85,1.34-.83-.11-1.17-.31-1.56.42-1.42,2.6-3.43,5.05-4.29,7.94-.23.8.89,1.36,1.55,1.86s1.48.37,1.84.74c1.6,1.6,1.68,4.42,2.22,6.47s-.22,4-.79,6.15-.52,4.39-2.12,6c-.36.37-1.3.1-1.85.51S9.05,61.24,9.28,62c.86,2.89,1.12,6.11,2.54,8.71a3.41,3.41,0,0,0,2.79,1.18c.67-.1,1.16-1.7,1.67-1.7a14.23,14.23,0,0,1,6.64,2c1.89,1.09,3.26,3.27,4.35,5.16a12.84,12.84,0,0,1,1.66,6.35,10,10,0,0,1,.09,1.8c-.11.82-.41,2.1.32,2.49a43.77,43.77,0,0,0,8.52,3c.8.24.86-.82,1.36-1.48s1.62-.32,2-.68c2.35-2.35,5.46-4.6,8.79-4.6a14.29,14.29,0,0,1,9.52,3.86c.37.36-.21,1.67.2,2.22s1.2-.34,1.81-.34c.19,0,.23.43.42.38,2.89-.86,6.25-.74,8.85-2.16.73-.39-.07-1.86-.18-2.68a11.19,11.19,0,0,1,0-1.85c0-2.27,2-3.93,3.11-5.76A10.66,10.66,0,0,1,78,73.77c1.83-1.06,3.47-3,5.74-3,.51,0,1,.74,1.71.84.83.11,2.57,0,3-.74,1.42-2.6,1.67-5.87,2.53-8.76.23-.8.32-2.15-.34-2.65S88.51,59.9,88.15,59.53Zm-2.63,8.4c-.3,0-1.52-.77-1.8-.77a16.81,16.81,0,0,0-6.37,1.17c-2,.84-3.4,2.58-4.92,4.1S68.34,75,67.51,77s-.29,4.49-.29,6.72c0,.28.06.57.07.87a36.69,36.69,0,0,1-5.15,1.61c-.2-.23-.73.47-.93.27-1.55-1.56-2.53-4.17-4.5-5A18.72,18.72,0,0,0,50,80.18c-2.2,0-4.26,1.64-6.23,2.46s-4.65,1-6.2,2.61c-.2.2.47.84.27,1.07-1.74-.58-4.14,0-5.76-.83,0-.3,1.53-1.49,1.53-1.77a18.06,18.06,0,0,0-1.48-6.57c-.84-2-3.5-2.75-5-4.27s-2.64-3.26-4.65-4.1-3.95-.37-6.18-.37c-.28,0-1.44-.53-1.74-.52-.82-1.62.3-4.09-.28-5.83.23-.2-.74-.47-.54-.67a15.7,15.7,0,0,0,3.49-5.22c.83-2,2.62-4,2.62-6.17s-1.73-4.19-2.56-6.2S16,39.44,14.45,37.87c-.2-.2-.62.15-.85,0,.58-1.74,1.86-2.89,2.68-4.51.3,0-.28-.65,0-.65a17,17,0,0,0,6.46-.78c2-.83,3-3.1,4.53-4.61s3.78-2.52,4.62-4.53,0-4.23,0-6.46c0-.28.29-1.3.28-1.6,1.62-.82,3.95-.1,5.69-.68.2.23-.11.14.09.34,1.56,1.55,4,1.88,5.92,2.7s3.9,2.71,6.1,2.71,4.43-1.16,6.4-2,4.54-1.41,6.1-3c.2-.2-.68-.11-.48-.34a31.08,31.08,0,0,1,4.64,1.83c0,.3.37-.31.37,0,0,2.23,1.33,4.09,2.13,6s1.21,4.29,2.73,5.8,3.89,1.65,5.9,2.49S81.49,33,83.72,33c.28,0,.35-.08.65-.09a36.86,36.86,0,0,1,2.37,4.9c-.23.2-1.21-.31-1.41-.11a18.39,18.39,0,0,0-3.53,5.77C81,45.39,82,47.8,82,50s-.74,4.48.08,6.45a17,17,0,0,0,4,5.15c.2.2-.45.28-.22.48C85.28,63.82,86.34,66.31,85.52,67.93ZM50,25.53c-2.56,0-4.68,2.17-7,2.93S38.2,29.55,36.2,31s-3,3.68-4.5,5.69A21.46,21.46,0,0,0,28.39,43c-.75,2.31-3.13,4.46-3.13,7S27,54.93,27.7,57.24A22.79,22.79,0,0,0,31,63.77c1.46,2,2.35,4.85,4.36,6.32s4.94,1.49,7.34,2.27,4.7,2.11,7.26,2.11a24.76,24.76,0,0,0,7.44-1.58c2.39-.78,5.15-1.36,7.15-2.82s3.11-4.13,4.58-6.15A24.23,24.23,0,0,0,73,57.48c.75-2.32-.16-4.92-.16-7.48s.92-5.17.16-7.49-3-4-4.46-6a22.22,22.22,0,0,0-5.13-5c-2-1.45-3.48-4-5.88-4.77A25.18,25.18,0,0,0,50,25.53Zm0,45.36c-2.68,0-5.19-1.76-7.52-2.73a19.41,19.41,0,0,1-6.31-4.33c-1.82-1.82-3.87-3.67-4.88-6.08s0-5.07,0-7.75-.52-5.22.45-7.55A19.78,19.78,0,0,1,36,36a19.59,19.59,0,0,1,6.6-3.83c2.34-1,4.7-2.55,7.38-2.55s4.82,2.11,7.15,3.08a17.83,17.83,0,0,1,6.09,4c1.82,1.82,4.19,3.19,5.19,5.6s.21,5,.21,7.64.25,5.09-.72,7.42-1.35,5.51-3.17,7.33-5.11,1.7-7.52,2.7S52.68,70.89,50,70.89Z"/></g><rect class="cls-1" x="5" y="5" width="90" height="90"/></g></svg>