<svg xmlns="http://www.w3.org/2000/svg" viewBox="0 0 100 100"><defs><style>.cls-1{fill:none;}</style></defs><g id="Guides"><g id="Share"><path d="M75,64.9c-2.37,0-4.74-.62-6.73.36S64.43,68.58,63,70.37c-3.42-.79-3.09-2-6.13-3.75s-3.41-1.1-6.45-2.86-2.11-3.37-5.15-5.13-3.95-.42-6.43-2.91c.76-1.85-.19-3.78-.19-5.72s.72-4.11,0-6c2.46-2.49,3.07-1.85,6.11-3.61s3.18-1.5,6.22-3.27,3.46-1,6.5-2.8,2.56-2.15,6-2.95c1.4,1.8,3.45.91,5.51,1.93s3.67,2.78,6,2.78A15,15,0,0,0,82.49,34,15,15,0,0,0,88,28.51c1.28-2.21.9-4.78.9-7.51s.53-5.39-.75-7.6-3.6-3.7-5.87-5S77.73,5.59,75,5.59s-4.93,1.76-7.14,3-4.36,2.7-5.68,5A14.27,14.27,0,0,0,60.62,21a15.55,15.55,0,0,0,.66,5.87c-2.49,2.47-3,1.9-6.05,3.66s-3.79.46-6.82,2.22-1.95,3.66-5,5.42-3.27,1.41-6.69,2.2c-1.4-1.79-3.53-1.93-5.59-2.94S27.37,35.28,25,35.28c-2.73,0-5.88-.57-8.09.71s-4.15,3.91-5.47,6.18A16.31,16.31,0,0,0,9.38,50c0,2.73.23,5.94,1.51,8.15s4.73,2.85,7,4.17,4.38,2.91,7.11,2.91c2.37,0,4.22-1.57,6.21-2.55s4.13-1.25,5.52-3c3.42.79,2.51,2.39,5.55,4.15s4.16-.18,7.19,1.58,3.06,1.74,6.1,3.5,2.84,2.16,5.34,4.64c-.73,1.77.32,3.46.32,5.49,0,2.73-.18,5.1,1.1,7.31A14.71,14.71,0,0,0,67.53,92,15.19,15.19,0,0,0,75,94.42c2.73,0,5.81-.26,8-1.54A17.06,17.06,0,0,0,88.81,87c1.28-2.2.74-5.24.74-8s-1.12-4.8-2.4-7-2.23-4.92-4.5-6.23S77.73,64.9,75,64.9ZM75,9.1c3,0,5.57,2.35,7.56,4.34s4,4.53,4,7.56A11.89,11.89,0,0,1,83,29c-2,2-5,4.09-8,4.09s-5.27-2.87-7.26-4.87S64,24,64,21s.28-6.72,2.27-8.71S72,9.1,75,9.1ZM25,61.9c-3,0-5.57-2.35-7.56-4.34s-4-4.52-4-7.56A11.89,11.89,0,0,1,17,42c2-2,5-4.09,8-4.09s5.27,2.88,7.26,4.87S36,47,36,50s-.28,6.72-2.27,8.71S28,61.9,25,61.9Zm50,29c-3,0-5.57-2.35-7.56-4.34s-4-4.52-4-7.56A11.87,11.87,0,0,1,67,71c2-2,5-4.09,8-4.09s5.27,2.88,7.26,4.87S86,76,86,79s-.28,6.72-2.27,8.71S78,90.9,75,90.9Z"/></g><rect class="cls-1" x="5" y="5" width="90" height="90"/></g></svg>