<svg xmlns="http://www.w3.org/2000/svg" viewBox="0 0 1 1"><defs><style>.cls-1{fill:none;}</style></defs><g id="Guides"><g id="Shopping"><path d="M86,32.86c-3,0-3-1.07-6-1.07s-3,.74-6,.74S71,32.12,68.2,31.11C68,28.88,66.38,28,65.39,26.06a16.45,16.45,0,0,0-4.07-4.73c-1.62-1.45-2.43-4.4-4.5-5.19s-4.56.42-6.82.42-4.47-.24-6.46.52-3.28,2.77-4.9,4.22S35.37,24,34.36,25.93s-2.23,3.17-2.48,5.4c-2.84,1-2.78-.44-5.8-.44s-3,2.18-6,2.18-3-.69-6-.69c-1.1,0-.89.52-.89,1.62,0,3.43,0,3.43,0,6.85S13,44.28,13,47.71s-1.39,3.43-1.39,6.85S12,58,12,61.42s-.38,3.43-.38,6.85.46,3.44.46,6.87.22,3.43.22,6.86c0,1.1.62,2.3,1.72,2.3,3.6,0,3.6-1.15,7.2-1.15s3.6,1.55,7.19,1.55,3.6-.3,7.2-.3,3.6.72,7.2.72,3.6-1.76,7.2-1.76,3.6,1.49,7.2,1.49,3.6.13,7.19.13,3.6-1.27,7.21-1.27,3.6.8,7.2.8,3.61-.06,7.21-.06c1.1,0,1-1.35,1-2.45,0-3.43.87-3.43.87-6.85s-.4-3.43-.4-6.86,1-3.43,1-6.85-.19-3.43-.19-6.86-.51-3.43-.51-6.85-.88-3.44-.88-6.87,2-3.43,2-6.86C88.89,32.9,87.1,32.86,86,32.86ZM66,45.14c1.1,0,1.79,1.76,1.79,2.86S67.1,50.53,66,50.53,65,49.1,65,48,64.9,45.14,66,45.14Zm-16-26c2.31,0,4.39,1.61,6.31,2.6s4.22,2,5.5,3.83,1.4,3.28,1.72,5.53c-3.27,1.12-3.15,1.58-6.6,1.58S53.47,33,50,33s-3.46-2.12-6.93-2.12-3.83,2.77-7.1,1.65A16.22,16.22,0,0,1,38.71,26c1.29-1.81,2.46-4.21,4.45-5.24A15.8,15.8,0,0,1,50,19.14Zm-16,26c1.1,0,1.79,1.76,1.79,2.86S35.1,50.53,34,50.53,33,49.1,33,48,32.9,45.14,34,45.14ZM84.6,80.62c-2.71,2.63-4.37-.83-8.15-.83s-3.78.74-7.55.74-3.78-1.48-7.56-1.48-3.77,1.63-7.55,1.63S50,81,46.23,81s-3.77-2.12-7.55-2.12-3.78,1.68-7.56,1.68-3.78-.67-7.56-.67-5.51,3.42-8.22.79.27-4.34.27-8,1.1-3.67,1.1-7.33.4-3.67.4-7.33-2.18-3.67-2.18-7.34.69-3.66.69-7.33-3.08-5.68-.37-8.16c2.95-2.7,4.75-.25,8.75-.25s5.5-2.21,8.63.27c2.49,2,0,4-1,7A5.87,5.87,0,0,0,28,48c0,3.31,2.71,6.4,6,6.4s5.94-3.09,5.94-6.4a6.08,6.08,0,0,0-4.21-5.56c-1-3-1.88-4.09.47-6.22,2.59-2.35,3.3-1.07,6.79-1.07s3.5,1.55,7,1.55,3.5-.3,7-.3,3.66-1.92,6.25.43c2.35,2.13,2.34,2.7,1.36,5.72-2.33.83-5.46,2.84-5.46,5.45,0,3.31,3.54,7,6.85,7s5.71-3.67,5.71-7c0-2.61-.89-5-3.22-5.81-1-3-2.7-3.86-.21-5.84C71.41,33.87,72,35,76,35s5.15-1.79,8.1.91c2.7,2.48.45,3.77.45,7.44s-1,3.67-1,7.33.19,3.67.19,7.33.51,3.67.51,7.34a18.58,18.58,0,0,0,.85,7.06C86.13,76.53,87.23,78.06,84.6,80.62Z"/></g><rect class="cls-1" x="5" y="5" width="90" height="90"/></g></svg>