<svg xmlns="http://www.w3.org/2000/svg" viewBox="0 0 100 100"><defs><style>.cls-1{fill:none;}</style></defs><g id="Guides"><g id="Signal"><path d="M58,37.53c-4,0-4-.59-8-.59s-4,.46-8,.46c-1.1,0-1.37,1.5-1.37,2.6,0,3.33-.3,3.33-.3,6.66S41,50,41,53.33,39.54,56.66,39.54,60s.07,3.33.07,6.67-.49,3.33-.49,6.67,1.16,3.33,1.16,6.67A1.85,1.85,0,0,0,42,82.07c4,0,4,.25,8,.25s4-1.19,8-1.19c1.1,0,1.67,0,1.67-1.13,0-3.33.32-3.33.32-6.66s.64-3.34.64-6.67.21-3.33.21-6.66.1-3.33.1-6.67S59.28,50,59.28,46.67s1.43-3.33,1.43-6.67C60.71,38.9,59.1,37.53,58,37.53ZM56.45,78.38C54.53,80.68,53,78.1,50,78.1s-4.14,2.25-6.06,0c-2.3-2.77.32-3.65.32-7.25s.18-3.59.18-7.19S44,60,44,56.41s1-3.6,1-7.21-2.83-4-.52-6.76c1.91-2.31,2.47.5,5.47.5s4.39-3.5,6.31-1.2c2.31,2.76-1.17,3.86-1.17,7.46s.5,3.59.5,7.19,0,3.6,0,7.2.57,3.46,1.37,7C57.92,74.48,58.76,75.61,56.45,78.38ZM32,57.06c-4,0-4,1.34-8,1.34s-4-1.25-8-1.25c-1.1,0-2.35,1.75-2.35,2.85,0,3.33,0,3.33,0,6.66S15,70,15,73.33,13.53,76.67,13.53,80c0,1.1,1.37,3,2.47,3,4,0,4-.45,8-.45s4-1.22,8-1.22c1.1,0,1.67-.28,1.67-1.38,0-3.33-.66-3.33-.66-6.66s1.44-3.34,1.44-6.67-.06-3.34-.06-6.67C34.39,58.9,33.1,57.06,32,57.06ZM30.47,78.35c-1.8,2.4-3.47-.25-6.47-.25s-4.26,2.34-6.06-.06c-2.4-3.2.32-4,.32-8s-2.31-4.54.09-7.74C20.15,59.86,21,62,24,62s3.36-1.8,5.16.6c2.4,3.2-.68,3.61.18,7.51C30.27,74.44,32.87,75.15,30.47,78.35ZM84,17.55c-4,0-4,.06-8,.06s-4-.47-8-.47c-1.1,0-1.73,1.76-1.73,2.86,0,3.75-.34,3.75-.34,7.5s-.25,3.75-.25,7.49,1.18,3.75,1.18,7.5-.53,3.75-.53,7.5S66,53.74,66,57.49s-.63,3.75-.63,7.5-.2,3.75-.2,7.51-.1,3.75-.1,7.5c0,1.1,1.82,1.29,2.92,1.29,4,0,4,1.4,8,1.4s4,.2,8,.2A3.8,3.8,0,0,0,86.83,80c0-3.75.22-3.75.22-7.5S85.12,68.75,85.12,65s1.5-3.75,1.5-7.5,0-3.75,0-7.5-1-3.75-1-7.5S87,38.76,87,35s-.75-3.75-.75-7.51-.83-3.75-.83-7.5C85.37,18.9,85.1,17.55,84,17.55ZM82.44,78.37c-2,2.28-3.44-.28-6.44-.28s-4.1,2.23-6,0c-2.28-2.66.31-3.55.31-7s.17-3.5.17-7-.4-3.5-.4-7,1-3.5,1-7-.36-3.5-.36-7,.25-3.5.25-7-1.32-3.5-1.32-7-1.24-3.8,1-6.46c2-2.28,2.36-.2,5.36-.2s3.79-2.41,5.74-.13C84,24.88,83,25.5,83,29s-1.49,3.5-1.49,7S81,39.49,81,43s.45,3.5.45,7,1.2,3.5,1.2,7-.29,3.5-.29,7-.16,3.37.63,6.78C83.83,74.59,84.72,75.71,82.44,78.37Z"/></g><rect class="cls-1" x="5" y="5" width="90" height="90"/></g></svg>