<svg xmlns="http://www.w3.org/2000/svg" viewBox="0 0 1 1"><defs><style>.cls-1{fill:none;}</style></defs><g id="Guides"><g id="Star"><path d="M92.15,39.4c-3.52-.46-3.36-1.7-6.88-2.16s-3.52-.51-7-1-3.54-.4-7.07-.86-4.4,1.82-7.28-.27-.79-3.72-2.32-6.94-2.94-2.55-4.47-5.77.25-4.07-1.28-7.29-1.45-3.26-3-6.48c-.73-1.52-3.68-.93-4.4.59-1.53,3.21-2.52,2.74-4.05,6s-1.49,3.24-3,6.46-1.63,3.17-3.16,6.4,1.39,5.74-1.49,7.84-4.14.43-7.66.89-3.63-.36-7.16.1-3.67-.64-7.2-.18-3.46,1-7,1.48C6,38.41,6.22,40,7.44,41.11,10,43.55,8.61,45,11.19,47.49s2.58,2.47,5.16,4.92,3.22,1.8,5.8,4.25,5,1.24,6.09,4.63-.58,4-1.23,7.5S24.89,72,24.24,75.53s.16,3.66-.5,7.17-2.1,3.24-2.76,6.75c-.3,1.63,2.43,2.89,3.92,2.09,3.12-1.7,3.66-.71,6.78-2.42S35,87.71,38.09,86s2-3.82,5.1-5.53,3.25-1.2,6.81-1.2,3.66-.45,6.78,1.25,2.9,2.11,6,3.82,3.28,1.41,6.41,3.12S71.87,90,75,91.74c1.5.84,3.74-.59,3.44-2.18-.65-3.5-.34-3.56-1-7.07s-1.08-3.42-1.73-6.93.15-3.66-.51-7.17-4.59-3.73-3.5-7.12,3.8-1.9,6.39-4.35,2.06-3,4.64-5.46,3.45-1.55,6-4,2.44-2.6,5-5.05C95,41.27,93.82,39.62,92.15,39.4ZM69.71,60.07c-.49.46-1.7.61-1.57,1.27.59,3.12.54,3.13,1.12,6.25s.64,3.12,1.23,6.24,1.27,3,1.86,6.13,3.07,3.92.51,5.8-2.86-.19-5.64-1.71-1.84-3.24-4.62-4.76-2.75-1.59-5.53-3.11-3.44-.31-6.22-1.83c-.3-.17-.52-1.32-.85-1.32a4.13,4.13,0,0,0-1.36.38c-2.77,1.52-2.83,1.42-5.61,2.94s-1.74,3.42-4.52,4.94-2.91,1.28-5.7,2.8-3.57,4.17-6.13,2.3,1.61-3.07,2.2-6.19,0-3.23.61-6.36-1-3.42-.39-6.54,2.59-2.76,3.18-5.88a3.88,3.88,0,0,0-.83-2.58c-2.3-2.18-2.93-1.52-5.23-3.71s-3-1.49-5.28-3.68-2.33-2.16-4.64-4.35-4.44-2-3.47-5,2.66-.91,5.8-1.32,3.34,1.05,6.49.64,3-1.74,6.12-2.15,3.3.7,6.45.29a4.61,4.61,0,0,0,2.55-1.48c1.36-2.86-.82-3.9.53-6.76s3.49-1.86,4.85-4.72-.71-3.85.65-6.72S46.82,14,50,14s2.25,3.09,3.61,6,.46,3.29,1.82,6.15.9,3.09,2.26,6,1.07,3,2.44,5.87c.29.6,1.57,1.06,2.25,1.15,3.14.41,3,1.22,6.18,1.63s3.44-1.83,6.59-1.42,3,1.76,6.12,2.17,5.79-2.64,6.77.38-3.29,1.74-5.59,3.93S80.27,48.09,78,50.28s-2.85,1.77-5,4.15S72,57.89,69.71,60.07Z"/></g><rect class="cls-1" x="5" y="5" width="90" height="90"/></g></svg>