<svg xmlns="http://www.w3.org/2000/svg" viewBox="0 0 1 1"><defs><style>.cls-1{fill:none;}</style></defs><g id="Guides"><g id="Tablet"><path d="M72,10.69c-3.66,0-3.66.4-7.33.4S61,10,57.34,10,53.67,11.09,50,11.09s-3.67-.2-7.34-.2-3.66-.54-7.33-.54S31.67,11.51,28,11.51c-3.3,0-6.77,2.19-6.77,5.49,0,3.66,1.3,3.66,1.3,7.33s-.38,3.66-.38,7.33-.69,3.66-.69,7.33.07,3.67.07,7.33-.12,3.67-.12,7.33,1.73,3.67,1.73,7.34-.73,3.67-.73,7.33S21.29,72,21.29,75.66s1.4,3.67,1.4,7.34c0,3.3,2,7.1,5.31,7.1,3.66,0,3.66-.84,7.33-.84s3.67.63,7.33.63,3.67-.43,7.33-.43,3.67-.84,7.34-.84,3.66,1.13,7.33,1.13,3.67-1.5,7.34-1.5c3.3,0,6.06-2,6.06-5.25,0-3.66-.55-3.66-.55-7.33s.16-3.66.16-7.33,1.09-3.66,1.09-7.33-1.25-3.67-1.25-7.33S79,50,79,46.35,77,42.68,77,39s0-3.67,0-7.33,1.54-3.67,1.54-7.34S76.93,20.67,76.93,17C76.93,13.7,75.3,10.69,72,10.69ZM73.77,83c0,1.08-.69,2.73-1.77,2.73-3.66,0-3.66-.33-7.33-.33s-3.67-.12-7.33-.12-3.67.78-7.33.78-3.67-2-7.34-2-3.66.91-7.33.91H28c-1.08,0-1-.87-1-2,0-2-2.53-2.65-.81-3.65,3-1.73,3.23-.33,6.65-.33s3.43.84,6.86.84,3.43-1.63,6.85-1.63,3.43-.37,6.86-.37,3.43.21,6.85.21,3.44.58,6.87.58,3.47-.28,6.75.71C75.81,79.94,73.77,81,73.77,83Zm.59-7.65c-2.37,2.47-3.79.74-7.21.74s-3.43-.63-6.86-.63-3.43-.93-6.85-.93-3.43.81-6.86.81-3.43.64-6.85.64-3.44-1.19-6.87-1.19-4.76,2.95-7.14.48-.57-3.84-.57-7.41S27,64.29,27,60.72,25,57.15,25,53.58s2-3.57,2-7.14-.74-3.57-.74-7.14.27-3.58.27-7.15-3.75-5.35-1.28-7.93,4.25,0,7.67,0,3.43.41,6.86.41,3.43.11,6.85.11,3.43-.26,6.86-.26,3.43.44,6.85.44,3.44-.2,6.87-.2,5-2.65,7.35-.18S73,28.57,73,32.14s1.42,3.57,1.42,7.14.05,3.57.05,7.14-1,3.57-1,7.14.67,3.57.67,7.14-.78,3.63,0,7.11C75.1,71.7,76.84,72.77,74.36,75.35ZM73.65,20.4c-3,1.73-3.08.19-6.5.19s-3.43.33-6.86.33-3.43,1-6.85,1S50,20.76,46.58,20.76s-3.43,1.37-6.85,1.37-3.44-.65-6.87-.65-4.07,1.55-7-.18c-1.73-1,.89-2.3.89-4.3,0-1.08.2-2.76,1.28-2.76,3.66,0,3.66.25,7.33.25s3.67.21,7.33.21H50c3.67,0,3.67-.39,7.34-.39s3.66,1.24,7.33,1.24,3.67-1.27,7.34-1.27c1.08,0,1.52,1.82,1.52,2.9C74.22,19,75.38,19.39,73.65,20.4Z"/></g><rect class="cls-1" x="5" y="5" width="90" height="90"/></g></svg>