<svg xmlns="http://www.w3.org/2000/svg" viewBox="0 0 100 100"><defs><style>.cls-1{fill:none;}</style></defs><g id="Guides"><g id="Tag"><path d="M84,13.11c-3.43,0-3.43.06-6.86.06S73.71,13,70.28,13s-3.43,1.93-6.86,1.93-3.44-1.5-6.87-1.5a3.37,3.37,0,0,0-1.85.78c-2.53,2.54-1.8,3.27-4.33,5.8s-3.51,1.56-6,4.09-2,3.07-4.53,5.6-1.95,3.12-4.49,5.65-3.46,1.59-6,4.13-1.61,3.45-4.15,6-3,2.08-5.52,4.62-2.4,2.68-4.94,5.21a1.82,1.82,0,0,0-.08,2.69c2.75,2.74,2.23,3.26,5,6S23,66,25.73,68.76s1.87,3.63,4.62,6.37,3.32,2.17,6.07,4.92S39.3,82.66,42,85.41a2.13,2.13,0,0,0,2.94.11c2.53-2.53,2.08-3,4.62-5.51s2.72-2.35,5.26-4.88,3.3-1.75,5.84-4.29,1.57-3.49,4.11-6,2.26-2.8,4.79-5.33,3.76-1.31,6.3-3.84,1.38-3.7,3.92-6.23,3.44-1.63,6-4.16c.38-.38.33-1.28.33-1.81,0-3.43.86-3.43.86-6.86s-.59-3.43-.59-6.86-1.19-3.43-1.19-6.86.86-3.44.86-6.87C86.07,14.9,85.1,13.11,84,13.11Zm-2.84,29.2C80,45.5,79,44.44,76.6,46.85s-2.56,2.26-5,4.66-1,3.77-3.46,6.18S64.7,59,62.3,61.45s-2.4,2.42-4.81,4.82-1.68,3.15-4.09,5.56S50,73.26,47.6,75.67,46.86,81,43.45,81s-2.9-1.82-5.37-4.28-1.52-3.39-4-5.85-3.38-1.55-5.84-4-2-2.92-4.47-5.38-5.07-1.41-5.11-4.9,2.53-2.44,4.94-4.85,2.93-1.89,5.34-4.29,1.74-3.07,4.15-5.48S36.4,40.4,38.81,38s1.83-3,4.24-5.39,2.27-2.54,4.68-5,2.52-2.31,4.94-4.72,1.35-4.2,4.54-5.38c3.85-1.42,4.27.24,8.37.24s4.11,1.1,8.21,1.1,5.63-4.12,8.54-1.22.51,4.43.51,8.53-1.93,4.15-1.73,8.25S82.59,38.46,81.16,42.31ZM68,23a9.72,9.72,0,0,0-6.25,2.65A9.9,9.9,0,0,0,59,31.94c0,2.21,2.57,3.59,4,5s2.83,3.58,5,3.58A9.2,9.2,0,0,0,74.09,38c1.44-1.44,1.48-3.87,1.48-6.08s.21-4.89-1.24-6.34A9.87,9.87,0,0,0,68,23Zm2.2,11.1c-1.51,1.51-2.93,1.55-4.44,0s-1.41-2.75.15-4.33,4-2.92,5.54-1.36S71.76,32.56,70.2,34.14Z"/></g><rect class="cls-1" x="5" y="5" width="90" height="90"/></g></svg>