<svg xmlns="http://www.w3.org/2000/svg" viewBox="0 0 100 100"><defs><style>.cls-1{fill:none;}</style></defs><g id="Guides"><g id="Tick"><path d="M50,12.18a39.3,39.3,0,0,0-7.47.28,37.93,37.93,0,0,0-7.22,2.08A38.49,38.49,0,0,0,28.61,18c-2.08,1.39-3.29,3.82-5.05,5.58a36.59,36.59,0,0,0-4.31,5.9c-1.38,2.05-3.51,3.64-4.47,5.95s-1,4.8-1.54,7.28-.19,4.77-.19,7.31a36.78,36.78,0,0,0,.26,7.3c.49,2.47.47,5,1.41,7.31a37.36,37.36,0,0,0,3.71,6.48,38.21,38.21,0,0,0,4.95,5.53c1.76,1.75,2.82,4.51,4.89,5.9s5,1.32,7.32,2.28S40,87.19,42.5,87.68s5-.21,7.5-.21a36.88,36.88,0,0,0,7.24-1.08c2.47-.49,5.3.32,7.57-.63a39.07,39.07,0,0,0,6.83-3.37c2.08-1.38,3.39-3.85,5.15-5.6A38.76,38.76,0,0,0,81.42,71c1.38-2,3.4-3.86,4.36-6.17s.31-5.07.79-7.54A36.54,36.54,0,0,0,86.88,50c0-2.54,1.05-5,.57-7.45s-2-4.56-3-6.83-1.27-4.93-2.65-7a38.25,38.25,0,0,0-4.56-6c-1.75-1.76-4.56-2.23-6.64-3.61a35.59,35.59,0,0,0-6.44-3.39c-2.27-.94-4.2-3-6.67-3.52S52.54,12.18,50,12.18Zm0,72a34.11,34.11,0,0,1-7.51-1.29,33.3,33.3,0,0,1-7.08-2.59,33.75,33.75,0,0,1-6.29-4.12c-2-1.59-4.58-2.62-6.17-4.61a35.49,35.49,0,0,1-4.5-6.38c-1.1-2.26-.92-5.14-1.5-7.65S15.47,52.6,15.47,50s-.2-5.37.35-7.8a35.66,35.66,0,0,1,3-7.21c1.11-2.3,3.15-4.09,4.73-6.07a34.19,34.19,0,0,1,5.23-5.52A35,35,0,0,1,35.09,19c2.27-1.09,5.08-.54,7.59-1.11S47.4,15.66,50,15.66s5,1,7.47,1.59,5.24.55,7.51,1.64a35.78,35.78,0,0,1,6.78,3.83c2,1.59,2.68,4.54,4.27,6.53a32.26,32.26,0,0,1,3.74,6.42c1.1,2.26,2.92,4.23,3.5,6.74a34.51,34.51,0,0,1,1,7.59c0,2.6-1.21,5-1.76,7.41s-.09,5.38-1.18,7.65a36.75,36.75,0,0,1-3.83,6.83c-1.59,2-4.39,3-6.37,4.54s-3.73,3.71-6,4.82-5,1.06-7.55,1.63A33.93,33.93,0,0,1,50,84.18Zm22.78-47a2.09,2.09,0,0,0-2.89-.31c-2.55,2.56-2.62,2.48-5.17,5s-2.65,2.46-5.19,5-1.77,3.34-4.32,5.9S53,55.71,50.4,58.27s-2.21,4.37-5.83,4.29c-3.77-.08-3-2.19-5.7-4.86s-3-2.3-5.7-5c-.78-.78-.88-1.1-1.66-.32s-1.33,1.75-.55,2.53c3,3,3.17,2.88,6.19,5.9s3.25,2.8,6.27,5.83c.37.38.62,2,1.15,2s.8-1.56,1.18-1.94C48.44,64,49,64.5,51.67,61.8s2-3.36,4.71-6.06,2.43-3,5.12-5.66,3.83-1.57,6.53-4.27,2.87-2.53,5.56-5.23C74.37,39.8,73.56,38,72.78,37.21Z"/></g><rect class="cls-1" x="5" y="5" width="90" height="90"/></g></svg>