<svg xmlns="http://www.w3.org/2000/svg" viewBox="0 0 100 100"><defs><style>.cls-1{fill:none;}</style></defs><g id="Guides"><g id="Toggle"><path d="M62.73,23c-3.25,0-3.25,1.2-6.49,1.2s-3.25-2.34-6.5-2.34-3.25.55-6.51.55-3.25.38-6.5.38a26.57,26.57,0,0,0-6.91,1.3,27.12,27.12,0,0,0-6.67,2.3,27.75,27.75,0,0,0-5.73,4.23,28.11,28.11,0,0,0-4.08,5.83c-1.15,2-1,4.53-1.62,6.83S10.18,47.6,10.18,50s-.83,5-.25,7.21a30,30,0,0,0,7.26,12.42c1.64,1.67,4.7,1.51,6.73,2.7s3.43,3.64,5.72,4.26,4.69-.32,7.09-.32c3.25,0,3.25.23,6.49.23s3.25-.3,6.5-.3,3.25.61,6.51.61,3.25-.77,6.5-.77c2.43,0,5,1.45,7.24.86s4.36-2.24,6.39-3.4A27.44,27.44,0,0,0,82,69.21c1.68-1.66,3.61-3.3,4.81-5.35S88.37,59.32,89,57s2-4.57,2-7-.9-4.9-1.51-7.14-2.5-4.1-3.7-6.12S84,32.21,82.27,30.55,78,28.48,75.9,27.3,72,24.64,69.72,24A26.91,26.91,0,0,0,62.73,23Zm0,50.8c-3.25,0-3.25-1.36-6.49-1.36s-3.25-.6-6.5-.6-3.25,1.24-6.51,1.24-3.25-.69-6.5-.69c-2.46,0-4.93.51-7.15-.23a23.81,23.81,0,0,1-6.74-2.93,24.63,24.63,0,0,1-4.78-5.57A23.8,23.8,0,0,1,14.7,57.2c-.71-2.23.46-4.73.46-7.2s-1.07-4.94-.36-7.17,2.95-3.77,4.33-5.7A20.82,20.82,0,0,1,24,32.4C26,31,27.15,28.24,29.45,27.48a23.61,23.61,0,0,1,7.28-.85c3.25,0,3.25-.46,6.49-.46s3.25,1.69,6.5,1.69,3.25-2,6.51-2,3.25.17,6.5.17a24.63,24.63,0,0,1,7.45,1.13c2.31.76,3.77,3.39,5.72,4.79s4.86,2,6.3,4,1.58,4.74,2.36,7S87,47.53,87,50s-1.67,4.79-2.44,7a23,23,0,0,1-3.08,6.51,24.55,24.55,0,0,1-5,5.35c-2,1.41-4.5,1.78-6.81,2.54S65.2,73.78,62.73,73.78Zm.08-44c-2.56,0-4.73,2.36-7,3.29a18.12,18.12,0,0,0-6.11,3.77,18.15,18.15,0,0,0-3.55,6.22c-.92,2.23-3,4.36-3,6.92s2.4,4.58,3.31,6.81A16.6,16.6,0,0,0,56,66.6c2.23.94,4.27,3.06,6.83,3.06s4.69-2.06,7-3,5-1.29,6.76-3,2.08-4.43,3.06-6.75,2.67-4.32,2.67-6.9a18.83,18.83,0,0,0-6.2-13.16C74.28,35.09,72.63,33,70.29,32S65.4,29.8,62.81,29.8Zm0,36c-2.71,0-5-2-7.14-3.32s-3.38-3.3-4.68-5.58S47.94,52.71,47.94,50s1.32-5,2.57-7.15,2.47-4.74,4.71-6.07,4.88-2.58,7.59-2.58,5.44,1.28,7.68,2.57a16.38,16.38,0,0,1,5.76,5.52c1.33,2.22.59,5,.59,7.71s.66,5.44-.68,7.66-4,3.1-6.34,4.42S65.52,65.78,62.81,65.78Z"/></g><rect class="cls-1" x="5" y="5" width="90" height="90"/></g></svg>