<svg xmlns="http://www.w3.org/2000/svg" viewBox="0 0 1 1"><defs><style>.cls-1{fill:none;}</style></defs><g id="Guides"><g id="Trash"><path d="M81,24c-3.33,0-3.33-1.4-6.66-1.4S71,23,67.67,23s-4.16,2.71-6.54.38-.37-3.13-.37-6.39c0-1.1-.66-2.33-1.76-2.33-3,0-3,.89-6,.89S50,16,47,16s-3-1.33-6-1.33c-1.1,0-1.45,1.25-1.45,2.35,0,3.26,1.54,4-.79,6.28s-3.09.16-6.42.16-3.34.08-6.67.08-3.34.81-6.67.81c-1.1,0-2,.08-2,1.19s.87,1.16,2,1.16c3.29,0,4.3-1.53,6.56.86s.25,3.45.25,6.91,0,3.47,0,6.93S25,44.85,25,48.32s0,3.46,0,6.93,1,3.47,1,6.93.32,3.47.32,6.94-1.73,3.47-1.73,6.94,0,3.47,0,6.94c0,1.1,1.89,2.53,3,2.53,3.73,0,3.73-.88,7.47-.88s3.74-.4,7.47-.4S46.26,86,50,86s3.74-1.9,7.48-1.9,3.73.28,7.47.28,3.74.89,7.48.89A2.31,2.31,0,0,0,74.48,83c0-3.47-.38-3.47-.38-6.93S74,72.6,74,69.14s-.6-3.47-.6-6.94,1-3.46,1-6.93,0-3.47,0-6.93.28-3.47.28-6.94,0-3.47,0-6.94-2.79-4.59-.4-7.11,3.47-.87,6.76-.87c1.1,0,1.5.14,1.5-1S82.1,24,81,24ZM43.08,19.14c3-1.74,3.42-.29,6.92-.29s4.43-2.4,7.46-.66c1.74,1,1.11,3.53-.63,4.52-3,1.74-3.33.23-6.83.23s-3.73,1.33-7.06.23C40.91,22.49,41.34,20.13,43.08,19.14ZM70,80.64c-2.26,2.54-3-.66-6.4-.66s-3.41.73-6.81.73-3.4.66-6.8.66-3.4.36-6.81.36-3.4.13-6.81.13-4.19,1.37-6.46-1.17c-2.54-2.85-.58-3.51-.58-7.33S29,69.55,29,65.73s1-3.82,1-7.64.33-3.82.33-7.64-.08-3.82-.08-7.64-.36-3.82-.36-7.65-2.92-4.91-.37-7.77c2.26-2.54,3.54,1,6.94,1s3.41-.49,6.81-.49,3.4-1.39,6.8-1.39,3.4,1.88,6.81,1.88,3.4-.84,6.81-.84,4.23-2.29,6.5.26c2.54,2.85-.1,3.54-.1,7.36s.35,3.81.35,7.63,1,3.82,1,7.64-.43,3.82-.43,7.64-.36,3.82-.36,7.64-.77,3.88-.1,7.64S72.56,77.79,70,80.64ZM60.46,38.26c0,4-.48,4-.48,8s.73,4,.73,8,.66,4,.66,8,.36,4,.36,8c0,1.1-1.63,2.86-2.73,2.86s-1.53-1.76-1.53-2.86c0-4-.7-4-.7-8s-.39-4-.39-8,1-4,1-8,.33-4,.33-8c0-1.11.23-1.41,1.33-1.41S60.46,37.15,60.46,38.26Zm-18,0c0,4-.48,4-.48,8s.73,4,.73,8,.66,4,.66,8,.36,4,.36,8c0,1.1-1.63,2.86-2.73,2.86s-1.53-1.76-1.53-2.86c0-4-.7-4-.7-8s-.39-4-.39-8,1-4,1-8,.33-4,.33-8c0-1.11.23-1.41,1.33-1.41S42.46,37.15,42.46,38.26Z"/></g><rect class="cls-1" x="5" y="5" width="90" height="90"/></g></svg>