<svg xmlns="http://www.w3.org/2000/svg" viewBox="0 0 1 1"><defs><style>.cls-1{fill:none;}</style></defs><g id="Guides"><g id="Typing Comment" data-name="Typing Comment"><path d="M86,16.17c-3.6,0-3.6.71-7.2.71s-3.6.72-7.19.72-3.6-.85-7.2-.85-3.6.62-7.2.62-3.6-.82-7.2-.82-3.6.6-7.2.6-3.6-.33-7.19-.33-3.6.33-7.21.33-3.6-.82-7.2-.82S17.6,17.64,14,17.64c-1.1,0-2.73.27-2.73,1.37,0,3.43,1.4,3.43,1.4,6.85s-1,3.43-1,6.86.12,3.43.12,6.85-.09,3.43-.09,6.86.7,3.43.7,6.85.23,3.44.23,6.87-.13,3.43-.13,6.86c0,1.1.44,2.32,1.54,2.32h8c4,0,5.42-3.53,8.62-1.13C33,70,29.11,72,29.11,75s1.62,3,1.62,6c0,1.87,1.44,2.48,2.59,1.33,2.26-2.24,2.15-2.35,4.41-4.58s3-1.48,5.28-3.72,1.16-3.48,4.15-4.57c3.66-1.33,3.73-.19,7.63-.19s3.9-.51,7.8-.51,3.9.21,7.8.21H78.2c3.9,0,3.9.9,7.8.9,1.1,0,2.53-1.78,2.53-2.88,0-3.43,0-3.43,0-6.85S87.1,56.73,87.1,53.3s0-3.43,0-6.85,1.19-3.43,1.19-6.86.53-3.42.53-6.85-.22-3.44-.22-6.87-.84-3.43-.84-6.86C87.73,17.91,87.1,16.17,86,16.17ZM83.42,64.41c-2.72,2.63-3.2.47-7,.47s-3.79.72-7.57.72-3.78-.85-7.56-.85-3.79.62-7.57.62-3.79-.82-7.57-.82c-.53,0-.93.77-1.31,1.14-2.69,2.65-2.93,2.42-5.62,5.08S37,78.55,33.92,76.33c-3.73-2.7.76-4.71.76-9.32,0-1.1-1.58-1.37-2.68-1.37-4,0-4-1.36-8-1.36s-5.5,3.92-8.45,1.22c-2.7-2.47.82-4.15.82-7.82s-.12-3.66-.12-7.33.09-3.67.09-7.33-.7-3.67-.7-7.34-.23-3.66-.23-7.33-2.36-5.11.27-7.67,4.1.65,7.87.65H31.1c3.78,0,3.78-1.34,7.56-1.34s3.77,1.92,7.55,1.92,3.78-1.62,7.56-1.62,3.77.6,7.55.6,3.78-.15,7.56-.15,3.78,1.06,7.56,1.06,4.5-3.06,7.22-.43.07,3.32.07,7,.51,3.67.51,7.33S84,39.34,84,43s0,3.66,0,7.33-1.53,3.88-.88,7.49S86.05,61.85,83.42,64.41ZM50,36.17c-1.93,0-3.77,1.53-5,2.8s-1.37,3.11-1.37,5,0,3.86,1.28,5.13,3.2,1.51,5.13,1.51,4-.1,5.27-1.37,1.59-3.34,1.59-5.27a7.1,7.1,0,0,0-1.77-5.08C53.82,37.66,51.93,36.17,50,36.17Zm0,10c-1.65,0-2.87-.51-2.87-2.16s1.22-3.59,2.87-3.59,2.74,1.94,2.74,3.59S51.65,46.17,50,46.17Zm20-10c-1.93,0-3.77,1.53-5,2.8s-1.37,3.11-1.37,5,0,3.86,1.28,5.13,3.2,1.51,5.13,1.51,4-.1,5.27-1.37,1.59-3.34,1.59-5.27a7.1,7.1,0,0,0-1.77-5.08C73.82,37.66,71.93,36.17,70,36.17Zm0,10c-1.65,0-2.87-.51-2.87-2.16s1.22-3.59,2.87-3.59,2.74,1.94,2.74,3.59S71.65,46.17,70,46.17Zm-40-10c-1.93,0-3.77,1.53-5,2.8s-1.37,3.11-1.37,5,0,3.86,1.28,5.13,3.2,1.51,5.13,1.51,4-.1,5.27-1.37,1.59-3.34,1.59-5.27a7.1,7.1,0,0,0-1.77-5.08C33.82,37.66,31.93,36.17,30,36.17Zm0,10c-1.65,0-2.87-.51-2.87-2.16s1.22-3.59,2.87-3.59,2.74,1.94,2.74,3.59S31.65,46.17,30,46.17Z"/></g><rect class="cls-1" x="5" y="5" width="90" height="90"/></g></svg>