<svg xmlns="http://www.w3.org/2000/svg" viewBox="0 0 100 100"><defs><style>.cls-1{fill:none;}</style></defs><g id="Guides"><g id="Up Arrow" data-name="Up Arrow"><path d="M68.55,58.07c-.78.78-3.39.84-4.17.06-2.45-2.44-1-3.88-3.45-6.33s-3.92-1-6.37-3.42-.67-4.62-4.13-4.52c-3.65.09-3,1-5.6,3.63s-2.91,2.26-5.49,4.84-1.51,3.65-4.1,6.23a3,3,0,0,1-3.59.11,3.15,3.15,0,0,1,0-3.68c2.82-2.81,3.07-2.56,5.88-5.37s2.73-2.91,5.55-5.72,2.52-3.11,5.34-5.93c.78-.78,2,.36,2.75,1.15,2.68,2.68,2.95,2.41,5.63,5.09s3.54,1.82,6.23,4.5,2.89,2.48,5.57,5.16C69.41,54.65,69.34,57.29,68.55,58.07ZM88.89,50a40.58,40.58,0,0,1-.65,7.61c-.49,2.47-3.11,4.28-4,6.55s-.37,5.47-1.74,7.52a41.27,41.27,0,0,1-4.81,6c-1.76,1.76-4.77,2.1-6.84,3.49a36.71,36.71,0,0,1-6.64,3.05c-2.28.94-4.18,3.06-6.65,3.55a39.54,39.54,0,0,1-7.51.88,38.93,38.93,0,0,1-7.53-.78,38.16,38.16,0,0,1-7.1-2.52,38.53,38.53,0,0,1-6.67-3.43,39.22,39.22,0,0,1-6.09-4.49c-1.76-1.76-2.12-4.67-3.51-6.75a36.6,36.6,0,0,1-3.78-6.28C14.38,62.09,12.51,60,12,57.55A39.12,39.12,0,0,1,11,50a39.12,39.12,0,0,1,3.52-14.7c1-2.31,1.71-4.89,3.09-6.95a40.15,40.15,0,0,1,5-5.78,40.77,40.77,0,0,1,5.82-4.91c2.06-1.37,4.94-1.35,7.26-2.31S40,12.48,42.44,12s5,1,7.56,1,5.07-1,7.47-.56a38.7,38.7,0,0,1,7.17,2.21c2.31,1,4,2.91,6.11,4.28s4.78,2,6.53,3.78a39,39,0,0,1,5.14,5.61A39.71,39.71,0,0,1,86,35.08c.94,2.27.73,5,1.22,7.51S88.89,47.46,88.89,50Zm-5.78,0a32.44,32.44,0,0,0-.91-7.35c-.58-2.51.44-5.57-.66-7.84s-4.18-3.38-5.76-5.36a32.28,32.28,0,0,0-5.27-5.18c-2-1.58-3.21-4.3-5.51-5.41a35.07,35.07,0,0,0-7.21-3c-2.43-.56-5.19.6-7.79.6a32.53,32.53,0,0,0-7.43,1,32.09,32.09,0,0,0-7.07,2.43,33.23,33.23,0,0,0-6.56,3.71A34.16,34.16,0,0,0,23.69,29,33.24,33.24,0,0,0,20,35.57c-1.09,2.27-3.43,4.17-4,6.68a36,36,0,0,0-.5,7.75c0,2.6,1.47,5,2,7.41a32.26,32.26,0,0,0,2.72,6.91A33,33,0,0,0,24,70.76a33.72,33.72,0,0,0,5.09,5.51c2,1.58,4.31,2.39,6.62,3.5a32,32,0,0,0,6.94,2.62,32.69,32.69,0,0,0,7.39.73c2.6,0,5.24,1.08,7.68.52s4.48-2.59,6.74-3.68,5.42-1,7.4-2.59,3-4.37,4.54-6.35a33.57,33.57,0,0,0,4.06-6.37c1.1-2.27,2.8-4.43,3.37-6.94S83.11,52.6,83.11,50Z"/></g><rect class="cls-1" x="5" y="5" width="90" height="90"/></g></svg>