<svg xmlns="http://www.w3.org/2000/svg" viewBox="0 0 100 100"><defs><style>.cls-1{fill:none;}</style></defs><g id="Guides"><g id="User"><path d="M59.14,52.23c2.14-1.34,3.37-3.76,5-5.78a23.05,23.05,0,0,0,3.66-6.3c.89-2.45,3.09-4.67,3.09-7.15,0-2.13-1.16-4.33-1.83-6.46s-1.12-4.37-2.32-6.22-3.43-2.85-5.07-4.27-2.8-4-4.82-4.82-4.54-.06-6.8-.06a16.83,16.83,0,0,0-6.36,1.16c-2,.82-4.59,1.15-6.24,2.59s-1.68,4.35-2.87,6.19a23,23,0,0,0-2.67,5.71A20.45,20.45,0,0,0,30.5,33c0,2.48-.09,5,.81,7.49a25.34,25.34,0,0,0,3.34,6.95c1.58,2,3.94,3.45,6.08,4.79-2.19.59-4.06,2-6.07,2.93s-4.38,1.36-6.18,2.69S25.7,61.4,24.17,63s-3.52,2.87-4.72,4.77-1.31,4.27-2.13,6.37-3.26,3.71-3.68,5.94.28,4.59.28,6.88c0,1.1,1,2.6,2.08,2.6h7.55c3.78,0,3.78-.74,7.55-.74s3.78-.93,7.56-.93,3.77,1.24,7.55,1.24,3.78-.8,7.56-.8,3.77-.47,7.55-.47,3.78,1.26,7.56,1.26,3.78-.84,7.56-.84,3.78,0,7.56,0c1.1,0,3.1-.16,3.1-1.26,0-2.29-1.83-4.43-2.24-6.59A35.22,35.22,0,0,0,83.23,74c-.83-2.1-.63-4.8-1.82-6.69s-4.11-2.54-5.63-4.18a36.31,36.31,0,0,0-4.66-4.7c-1.8-1.33-3.38-3-5.41-4A38.29,38.29,0,0,0,59.14,52.23ZM34.62,33a17.37,17.37,0,0,1,1.13-6.27c.8-2.13,1.41-4.24,2.81-5.87s3.63-2.4,5.51-3.4c2-1.1,3.82-3,5.93-3a14.59,14.59,0,0,1,6.46,2,18.69,18.69,0,0,1,5.26,4.16,19.6,19.6,0,0,1,3.69,5.67c.75,2-.42,4.4-.42,6.71s.29,4.39-.45,6.38S62,42.81,60.62,44.44s-2.11,4.42-4,5.42c-2,1.09-4.52.92-6.63.92a13,13,0,0,1-6.14-1.86,17.28,17.28,0,0,1-5.25-3.83,18.53,18.53,0,0,1-3.16-5.71A17.93,17.93,0,0,1,34.62,33ZM18.09,84.92c.14-2.34-.4-4.79.23-7s3.23-3.67,4.32-5.67,1.18-4.73,2.67-6.47a33.74,33.74,0,0,1,5.4-4.39,32.74,32.74,0,0,1,5.78-3.83c2.06-1,4.59-.47,6.86-1A30.4,30.4,0,0,1,50,55.84c2.35,0,4.68-.77,6.88-.29a32.74,32.74,0,0,1,6.67,2,31.94,31.94,0,0,1,5.69,4c1.84,1.38,3.06,3.35,4.56,5.09s3.29,3.22,4.39,5.25,1.22,4.35,1.85,6.59,1.73,4.15,1.87,6.49c-3.36,1.13-3.52-.34-7.06-.34s-3.55-.75-7.1-.75-3.55,1.09-7.09,1.09-3.55.55-7.1.55-3.55-.61-7.1-.61-3.54-.66-7.09-.66-3.55.92-7.1.92-3.56-.39-7.1-.05S21.46,86.05,18.09,84.92Z"/></g><rect class="cls-1" x="5" y="5" width="90" height="90"/></g></svg>