<svg xmlns="http://www.w3.org/2000/svg" viewBox="0 0 100 100"><defs><style>.cls-1{fill:none;}</style></defs><g id="Guides"><g id="Users"><path d="M77.83,58.36c1.46-1.23,3.82-2.58,4.66-4.37a15.18,15.18,0,0,0,1.59-6,15.36,15.36,0,0,0-1.86-6.68,15,15,0,0,0-4.69-5c-1.81-1.23-4.33-.57-6.53-.57s-4.64-.54-6.46.68S61.91,40,60.87,41.9s-.82,3.87-.82,6.1c0,2-.46,3.85.36,5.57s1.24,3.49,2.7,4.72c-1.28.45-2.37,2-3.54,2.64a31.3,31.3,0,0,0-6.46-6.34c-2.45-1.62-5-3.44-7.91-4.29,2.25-1.56,4.92-3.53,6.25-6A17.81,17.81,0,0,0,53.05,36c0-2.19-1.53-3.91-2.31-5.88s-.55-4.63-2-6.2-4.06-1.63-6-2.55S39.18,19.46,37,19.46a13.49,13.49,0,0,0-6,1.41c-1.91.92-4.26,1.45-5.72,3.05s-1,4.25-1.85,6.26A14.93,14.93,0,0,0,22,36c0,2.86-.86,5.94.43,8.36s4,4.32,6.27,5.89c-2.49.73-5.36,1.17-7.54,2.49s-3.77,3.63-5.56,5.47a30,30,0,0,0-4.67,6.07,29.4,29.4,0,0,0-2.8,7.13,29.7,29.7,0,0,0-1,7.59c0,1.1.83,3.17,1.93,3.17,3.73,0,3.73-2.2,7.45-2.2s3.73,1.76,7.46,1.76,3.72-.44,7.45-.44,3.72,0,7.45,0,3.73,0,7.45,0S50,81,53.71,81s3.73.58,7.46.58,3.73.35,7.46.35S72.35,80,76.08,80s3.73.8,7.46.8,3.73-.29,7.46-.29c1.1,0,1.13-.41,1.13-1.51,0-2.33.71-4.65,0-6.76a22,22,0,0,0-3.39-5.88c-1.32-1.85-3.4-2.75-5.22-4.11S80,59.11,77.83,58.36ZM62.59,48c0-2.08,1.93-3.79,3.37-5.52a6.41,6.41,0,0,1,10,0A8.28,8.28,0,0,1,78.26,48c0,2.08.45,4.82-1,6.55s-4,1.85-6.27,1.85-4.5-.4-5.94-2.13A10.58,10.58,0,0,1,62.59,48Zm-38-12c0-2.09,1.75-3.86,2.8-5.82a12.07,12.07,0,0,1,4.13-4.33A8.8,8.8,0,0,1,37,23.91a9.12,9.12,0,0,1,5.67,1.66C44.44,26.79,47,27.52,48,29.42s.38,4.49.38,6.58.29,4.42-.76,6.37-2.18,4.32-4,5.54S39.26,49.14,37,49.14s-3.94-1.45-5.7-2.66-4.65-1.81-5.68-3.71S24.59,38.09,24.59,36ZM10.94,77.38c.2-2.64,1.72-5.25,2.66-7.61a24.13,24.13,0,0,1,4-6.33,25,25,0,0,1,12-8.58c2.42-.75,4.77-2.62,7.43-2.62s5,1.74,7.47,2.49,5.22,1.06,7.34,2.51,4.69,2.85,6.31,4.87,2.24,4.87,3.2,7.3a21.79,21.79,0,0,1,1.36,7c-3.47,1.27-3.46,1.8-7.16,1.8s-3.7-.42-7.4-.42-3.71-.45-7.41-.45-3.7-.84-7.41-.84-3.7.5-7.4.5-3.58.63-7.25,1.16S14.42,78.66,10.94,77.38Zm55.86,0c-.17-2.49.29-5.54-.45-7.83a24.26,24.26,0,0,0-2.87-6A13.83,13.83,0,0,1,71,61.91a16.33,16.33,0,0,1,6.16,1c2.06.79,4.72.69,6.34,2.14s2,4,3,6,2.28,4,2.53,6.28c-3.49,1.1-3.76.74-7.42.74s-3.67-1.4-7.3-.91S70.28,78.54,66.8,77.38Z"/></g><rect class="cls-1" x="5" y="5" width="90" height="90"/></g></svg>