<svg xmlns="http://www.w3.org/2000/svg" viewBox="0 0 100 100"><defs><style>.cls-1{fill:none;}</style></defs><g id="Guides"><g id="Video Camera" data-name="Video Camera"><path d="M84.38,25.53c-2.85,1.78-2.83,1.83-5.65,3.65s-2.19,2.78-5,4.6-2.41,2.81-5.75,3c-1.63.11.78-1.16.78-2.8A9.14,9.14,0,0,0,66,28.06a8.68,8.68,0,0,0-6-2.32c-3.33,0-3.33-.62-6.66-.62S50,27,46.67,27,43.34,25.58,40,25.58H33.34c-3.33,0-3.33.56-6.67.56s-3.33.24-6.67.24c-2.2,0-4.47.27-5.92,1.71S12.3,31.81,12.3,34c0,4,.83,4,.83,8S13,46,13,50s-.71,4-.71,8-.8,4-.8,8c0,2.21,2.15,3.45,3.6,4.9a6.07,6.07,0,0,0,4.9,2c3.33,0,3.33.35,6.66.35h6.67c3.33,0,3.33,1,6.66,1s3.33.44,6.67.44,3.33-1.18,6.67-1.18,3.33,0,6.67,0c2.2,0,4.38-.23,5.83-1.68A8.54,8.54,0,0,0,68.35,66c0-1.63-1.95-3.81-.32-3.7,3.34.22,2.27,3.06,5.08,4.88s3.19,1.25,6,3.07,2.45,2.43,5.3,4.19c1.88,1,3.72-1.47,3.72-2.44,0-3.66.48-3.66.48-7.33S87.08,61,87.08,57.34,87,53.68,87,50s.33-3.66.33-7.33,1.38-3.66,1.38-7.33.42-3.67.42-7.33C89.09,27,86.38,24.41,84.38,25.53ZM63,66c0,2.21-.82,3-3,3-3.33,0-3.33,1.15-6.66,1.15s-3.34-.64-6.67-.64-3.33-.27-6.66-.27-3.33.32-6.67.32-3.33.14-6.67.14S23.34,69.1,20,69.1c-2.21,0-5-.89-5-3.1,0-4,1.45-4,1.45-8V50c0-4-.57-4-.57-8s-.23-4-.23-8c0-2.2,2.15-3.62,4.36-3.62,3.33,0,3.33-.67,6.66-.67s3.34-.84,6.67-.84S36.66,29,40,29s3.33.7,6.67.7,3.33.8,6.67.8S56.66,29,60,29c2.21,0,5.07,2.86,5.07,5.06,0,4-.35,4-.35,8v8c0,4-.68,4-1,8S63,62,63,66Zm20.4,1.54c-2.57,1.87-1.57-1.76-4.23-3.49s-3.29-.76-6-2.48-3.47-.92-4.81-3.79c-1.69-3.61.32-3.79.32-7.77s-2-4.18-.37-7.79c1.35-2.88,2.44-1.67,5.1-3.39s3-1.2,5.68-2.93,2.86-6.89,5.43-5c3,2.15-1,4.48-1,8.14v7.32c0,3.66.57,3.66.57,7.33s-.51,3.66.22,7.25S86.39,65.38,83.43,67.54Z"/></g><rect class="cls-1" x="5" y="5" width="90" height="90"/></g></svg>