<svg xmlns="http://www.w3.org/2000/svg" viewBox="0 0 100 100"><defs><style>.cls-1{fill:none;}</style></defs><g id="Guides"><g id="Video"><path d="M86,24.08c-3.6,0-3.6.71-7.2.71s-3.6.14-7.19.14-3.6-1.38-7.2-1.38-3.6,1.14-7.2,1.14-3.6-.53-7.2-.53-3.6-1.09-7.2-1.09-3.6,1.3-7.19,1.3S32,23,28.41,23h-7.2c-3.61,0-3.61.41-7.21.41A3.1,3.1,0,0,0,11.46,26c0,3.43,1.09,3.43,1.09,6.85s.27,3.43.27,6.86-1.21,3.43-1.21,6.85S13,50,13,53.42s-.24,3.43-.24,6.85-1.2,3.44-1.2,6.87,1.21,3.43,1.21,6.86c0,1.1.14,1.08,1.24,1.08,3.6,0,3.6.3,7.2.3s3.6,1.56,7.19,1.56,3.6-1.26,7.2-1.26,3.6-.56,7.2-.56,3.6,2,7.2,2,3.6,0,7.2,0S60.79,76,64.38,76s3.6-1.08,7.21-1.08,3.6.39,7.2.39,3.61.8,7.21.8c1.1,0,2.92-1,2.92-2.12,0-3.43-.4-3.43-.4-6.85s-.42-3.43-.42-6.86,0-3.43,0-6.85S89,50,89,46.58s-.89-3.43-.89-6.85-.64-3.44-.64-6.87.66-3.43.66-6.86A2,2,0,0,0,86,24.08ZM26.7,72.88c-3.9,3.12-7.22,2.77-11.12-.35-3.13-2.5-2.95-6.34.17-8.84,3.91-3.12,5.58-1.51,10.12.59C30.24,66.29,29.83,70.38,26.7,72.88ZM26,60c-3.9,3.12-6.76,4-10.66.92-3.12-2.49-1.75-5.53,1.38-8,3.9-3.12,4.63-2.58,9.24-.66C29.9,53.84,29.08,57.45,26,60Zm.61-11.24C22.66,51.83,19.9,51.13,16,48c-3.13-2.5-3.75-6.29-.62-8.79,3.9-3.12,5.92-1,10.48,1.1C30.15,42.26,29.69,46.21,26.57,48.71Zm0-12c-3.9,3.12-7.13,2.94-11-.18-3.12-2.5-2.55-5.9.58-8.4,3.9-3.12,5-1.45,9.52.62C30,30.74,29.72,34.24,26.59,36.74ZM69.8,71.82c-2.24,2.46-3.13.45-6.46.45s-3.34.48-6.67.48-3.33-.6-6.66-.6-3.33-.71-6.67-.71-3.33.71-6.67.71-4.88,2.73-7.13.27c-2.46-2.71-.58-4.08-.58-7.75s1.72-3.67,1.72-7.33-.32-3.67-.32-7.33,0-3.67,0-7.34S28.9,39,28.9,35.34s-1.63-4.86.84-7.58c2.24-2.46,3.59.32,6.92.32s3.34-.42,6.67-.42,3.33-.3,6.66-.3,3.33.13,6.67.13,3.33-.32,6.67-.32,4.81-2,7,.48c2.47,2.71-1,4-1,7.68s1.39,3.67,1.39,7.33-.21,3.67-.21,7.33.09,3.67.09,7.34-.3,3.53.39,7.14S72.26,69.1,69.8,71.82Zm14.32.34c-3.9,3.12-6.75,3.64-10.66.51a5.83,5.83,0,0,1,0-9.34c3.91-3.13,6-1.49,10.62.47C88.15,65.54,87.25,69.66,84.12,72.16Zm.42-11.48c-3.9,3.12-7.19,3.14-11.09,0-3.13-2.5-1.88-5.32,1.25-7.82C78.6,49.75,79.44,50,84,52,88.28,54,87.67,58.18,84.54,60.68Zm-.7-12.88c-3.91,3.12-5.87,3.24-9.77.12-3.13-2.5-3.43-5.72-.31-8.22,3.91-3.12,5.48-1.27,10.11.62C87.78,41.92,87,45.3,83.84,47.8Zm.09-11.89c-3.91,3.12-6.66,4-10.57.89-3.12-2.5-2.86-6.77.27-9.27,3.9-3.12,5.56-1,10.18.93C87.77,30.1,87.05,33.41,83.93,35.91Z"/></g><rect class="cls-1" x="5" y="5" width="90" height="90"/></g></svg>