<svg xmlns="http://www.w3.org/2000/svg" viewBox="0 0 1 1"><defs><style>.cls-1{fill:none;}</style></defs><g id="Guides"><g id="View"><path d="M50,34.35c-2.91,0-6-.21-8.37,1.16s-4.14,4-5.54,6.46-1.2,5.12-1.2,8a14.6,14.6,0,0,0,1.79,7.69c1.41,2.42,2.49,5.45,4.92,6.86s5.49.39,8.4.39,5.68.35,8-1,4.93-3.2,6.33-5.62.56-5.39.56-8.3.56-5.8-.8-8.16a17.22,17.22,0,0,0-5.81-6.26C56,34.22,52.91,34.35,50,34.35Zm0,26.33c-2.18,0-4.45,1.1-6.21.08s-2.58-3.26-3.63-5.08a11.07,11.07,0,0,1-2-5.68,11.94,11.94,0,0,1,1.35-6c1.06-1.82,2.34-3.83,4.16-4.89s4.13-.5,6.31-.5,4.77-.91,6.53.12a14.44,14.44,0,0,1,4.9,4.71c1,1.77.92,4.42.92,6.6s-1.56,3.87-2.58,5.64a10.94,10.94,0,0,1-4,4.32C54,61,52.18,60.68,50,60.68ZM94,49c-2.15-2.17-1.48-2.83-3.63-5s-2.1-2.23-4.25-4.4a53.63,53.63,0,0,0-4.69-4.83,51.4,51.4,0,0,0-5.76-3.5c-1.92-1.12-4.48-.93-6.52-1.78s-3.52-3.47-5.67-4.05a55.29,55.29,0,0,0-6.73-.9A53.61,53.61,0,0,0,50,23.93a54.25,54.25,0,0,0-6.77.32c-2.21.29-4,2.73-6.14,3.3s-4.89-.57-6.93.28-3,3.84-4.94,5-4.29,1.4-6,2.76a51.49,51.49,0,0,0-4.78,4.58c-2.15,2.17-3,1.29-5.19,3.46S7,45.73,4.88,47.9c-.77.78.72,1.94,1.49,2.72,2.15,2.17.57,3.74,2.72,5.91s2.52,1.8,4.67,4c1.57,1.59,4.17,2,5.9,3.32a49.66,49.66,0,0,0,5.16,4.08c1.92,1.12,3.32,3.38,5.36,4.23a51.33,51.33,0,0,0,6.35,2.44c2.12.57,4.72-.92,6.93-.63a51,51,0,0,0,6.54,0c2.23,0,4.56,1.85,6.74,1.56s4.14-2.06,6.27-2.63,3.87-2,5.91-2.86,4.82-.12,6.74-1.24,2.69-3.83,4.45-5.19,4.58-1.42,6.15-3c2.15-2.17,2.63-1.69,4.78-3.86s1.31-3,3.46-5.18C95.27,50.7,94.75,49.81,94,49ZM82.05,56.34C80.31,58.1,79.64,61,77.69,62.4s-4.61,1.84-6.78,2.95a43.91,43.91,0,0,1-6.53,3.21,46.12,46.12,0,0,1-7.06,2c-2.39.38-4.85,1.1-7.32,1.1s-4.83-1.38-7.22-1.75-5.23.62-7.54-.13a47.23,47.23,0,0,1-7-2.76c-2.16-1.12-3.91-3.18-5.89-4.64s-3.09-3.82-4.83-5.57c-3.6-3.64-7.21-1.65-7.21-6.77s2.85-3.88,6.45-7.52C18.51,40.73,21.05,40,23,38.54s3.66-3.28,5.83-4.39,4.13-3,6.46-3.72A48.28,48.28,0,0,1,42.6,29c2.39-.38,4.93.84,7.4.84s5.08-1.66,7.47-1.28,4.63,2.07,6.94,2.82,4.34,2.16,6.52,3.28,5.15,1,7.14,2.46S81,41.2,82.76,43c3.6,3.64,5.47,2.28,6.79,7.22S85.65,52.71,82.05,56.34Z"/></g><rect class="cls-1" x="5" y="5" width="90" height="90"/></g></svg>