<svg xmlns="http://www.w3.org/2000/svg" viewBox="0 0 1 1"><defs><style>.cls-1{fill:none;}</style></defs><g id="Guides"><g id="Volume"><path d="M72.51,65.22,90.69,50c0,2.14-.79,4.27-1.1,6.37S87.65,60.21,87,62.25s0,4.46-.94,6.39A44.8,44.8,0,0,1,82.56,74a1.52,1.52,0,0,1-1.49.69c-.38,0-.33-.43-.67-.65-.92-.61-2.21-1.6-1.61-2.52,1.44-2.17,4.18-3.67,5.15-6a41.23,41.23,0,0,0,2.39-7.56c.5-2.52-.61-5.31-.61-7.9a38.82,38.82,0,0,0-.85-7.61,38.86,38.86,0,0,0-2.65-7.14c-1-2.36-1.22-5.09-2.65-7.26-.6-.92.11-1.09,1-1.7s1.1-1,1.7-.1a42.86,42.86,0,0,1,2.89,5.59c.91,1.93,3.41,3.28,4,5.31s-.81,4.56-.5,6.67S90.69,47.86,90.69,50ZM80.5,50c0,2.93-1,5.86-1.77,8.68s-2.91,5-4.35,7.51c-.37.65,0,1.83-.73,1.83-.34,0-.57-.52-.89-.7A1.56,1.56,0,0,1,72.19,65a31,31,0,0,0,3.37-7.11c.66-2.49-.48-5.26-.48-7.84s1.36-5.41.7-7.9a32,32,0,0,0-2.91-7.43c-.55-1-1.31-1.88-.35-2.42a2.61,2.61,0,0,1,3.2.8,35.92,35.92,0,0,1,3.8,8.06A35.86,35.86,0,0,1,80.5,50ZM70.32,50c0,3.16-1.24,6.23-2.42,9.11-.32.77-1.11.06-1.9.06-.25,0-.6,1.34-.85,1.24a2.06,2.06,0,0,1-.8-2.76A20.38,20.38,0,0,0,66,50a21.09,21.09,0,0,0-1.08-7.86c-.42-1-.93-2.57.09-3s1.54,1.12,2,2.14C68.1,44.17,70.32,46.85,70.32,50ZM57.66,16c0,3.78,1.44,3.78,1.44,7.55s-1.2,3.78-1.2,7.55-.1,3.78-.1,7.56.67,3.77.67,7.55S56.93,50,56.93,53.76s1,3.78,1,7.56,0,3.78,0,7.56-.48,3.78-.48,7.56,1.06,3.78,1.06,7.56c0,.81-1.47.58-2.21.89-.25.1-.11.09-.37.09-.52,0-1.15.94-1.53.55-2.3-2.3-1.4-3.2-3.7-5.5S47.94,78.25,45.64,76,42.32,74.66,40,72.36s-.5-5.06-3.56-6.17c-3.78-1.38-4.32.12-8.34.12s-4,1.78-8.06,1.78-4-.81-8.06-.81c-1.1,0-3.11-1.18-3.11-2.28,0-3.75.08-3.75.08-7.5s2-3.75,2-7.5-1.27-3.75-1.27-7.5V35c0-1.1,1.22-1,2.32-1,4,0,4-1.31,8.05-1.31s4,.95,8.06.95,4.37,1,8.16-.42c3-1.11,2.93-1.84,5.23-4.14s1.52-3.08,3.82-5.38,2.66-1.95,5-4.25S51.67,16.28,54,14c.57-.58,1.88.27,2.63.58A1.37,1.37,0,0,1,57.66,16ZM35.56,36.4C33,34,31.5,37,28,37s-3.5.6-7,.6-4.66-3.2-7.23-.82c-2.38,2.2,1.09,3.49,1.09,6.73s-1,3.25-1,6.5,1.24,3.25,1.24,6.51S11.63,60.77,14,63c2.56,2.38,3.49-.83,7-.83s3.5,1.46,7,1.46,5,2.36,7.55,0c2.38-2.21-1.17-3.85-1.17-7.09s-.22-3.25-.22-6.5,1.16-3.06,2-6.21C37.09,40.09,37.94,38.61,35.56,36.4ZM53.72,21.45C50.51,20,51.54,23.37,49,25.87S45.69,27.52,43.19,30s-2.61,2.64-4,5.9-.44,3.45-.44,7-.11,3.54-.11,7.08-.45,3.55-.45,7.09.08,3.54,1.43,6.82,1.14,3.47,3.64,6,2.43,2.57,4.93,5.07,2.44,5.45,5.65,4-.26-3.4-.26-7-.47-3.65-.47-7.29S54.2,61,54.2,57.3s.93-3.64.93-7.29-.61-3.65-.61-7.29.21-3.65.21-7.3-2.66-4-1.8-7.55S57,23,53.72,21.45Z"/></g><rect class="cls-1" x="5" y="5" width="90" height="90"/></g></svg>