<svg xmlns="http://www.w3.org/2000/svg" viewBox="0 0 100 100"><defs><style>.cls-1{fill:none;}</style></defs><g id="Guides"><g id="Warning"><path d="M88.05,77.42c-1.9-3.26-3.1-2.54-5.09-5.74s-2.35-3-4.34-6.2-1.24-3.68-3.23-6.89-2.12-3.12-4.12-6.33S69.44,49,67.45,45.74s-2.33-3-4.32-6.21-1.54-3.49-3.54-6.7-2.78-2.72-4.78-5.93-1.7-3.4-3.69-6.62c-.77-1.29-1.3-1.1-2.07.2-2,3.22-3.28,2.42-5.27,5.64S42,29.46,40,32.68s-2.36,3-4.35,6.22-1.38,3.59-3.37,6.81-1.17,3.73-3.16,6.95S27,55.82,25,59,22,61.6,20,64.82s-2.39,3-4.39,6.2-1,3.85-3,7.08c1.52-2.45-3,3.57,1.47,3.63,3.59,0,3.59.25,7.19.25s3.59-1.79,7.18-1.79,3.59,1,7.18,1,3.6.42,7.19.42,3.59-1.48,7.18-1.48,3.6.66,7.19.66S60.79,80,64.38,80s3.6.21,7.19.21S75.17,82,78.76,82s3.6-1.43,7.2-1.44C90,80.52,87.26,76.46,88.05,77.42Zm-69.91-.77c-1.8-2.88.69-2.89,2.49-5.78s1.43-3.12,3.23-6,2.55-2.43,4.35-5.32,1.66-3,3.46-5.88,2-2.79,3.75-5.69,1.46-3.1,3.25-6,2.25-2.62,4-5.51,1-3.39,2.8-6.29,1-5.89,4.41-5.89,2.62,3,4.42,5.87.52,3.69,2.32,6.59,2,2.77,3.81,5.66,1.44,3.12,3.24,6,2.41,2.52,4.22,5.41,2.62,2.39,4.42,5.28,1.71,3,3.52,5.85.73,3.57,2.54,6.47,5,2.19,3.21,5.1c-1.89,3.06-2.84.77-6.43.77s-3.6-1-7.2-1S64.4,76,60.8,76s-3.6,1.79-7.2,1.79-3.6-1-7.2-1-3.6-.42-7.19-.42S35.6,77.86,32,77.86s-3.65-1.46-7.16-.67S20.05,79.71,18.14,76.65ZM51.39,39c0,4,1.3,4,1.3,8s.43,4,.43,8c0,1.1-2,2.18-3.07,2.18A2.48,2.48,0,0,1,47.72,55c0-4,.19-4,.19-8s-.4-4-.4-8c0-1.1,1.45-2,2.54-2S51.39,37.9,51.39,39ZM50.05,60.32c-3.3,0-5.33,3.34-5.33,6.65s2,4.93,5.33,4.93,5.8-1.62,5.8-4.93S53.35,60.32,50.05,60.32Zm0,8c-1.09,0-2.64-.25-2.64-1.35S49,63.9,50.05,63.9s2.18,2,2.18,3.07S51.15,68.32,50.05,68.32Z"/></g><rect class="cls-1" x="5" y="5" width="90" height="90"/></g></svg>